%TF.GenerationSoftware,KiCad,Pcbnew,9.0.3*%
%TF.CreationDate,2025-08-28T21:01:50-07:00*%
%TF.ProjectId,xyp-gpib,7879702d-6770-4696-922e-6b696361645f,rev?*%
%TF.SameCoordinates,Original*%
%TF.FileFunction,Legend,Bot*%
%TF.FilePolarity,Positive*%
%FSLAX46Y46*%
G04 Gerber Fmt 4.6, Leading zero omitted, Abs format (unit mm)*
G04 Created by KiCad (PCBNEW 9.0.3) date 2025-08-28 21:01:50*
%MOMM*%
%LPD*%
G01*
G04 APERTURE LIST*
%ADD10C,0.150000*%
%ADD11C,0.120000*%
%ADD12C,0.000000*%
G04 APERTURE END LIST*
D10*
X219128792Y-80666295D02*
X219585935Y-80666295D01*
X219357363Y-80666295D02*
X219357363Y-79866295D01*
X219357363Y-79866295D02*
X219433554Y-79980580D01*
X219433554Y-79980580D02*
X219509744Y-80056771D01*
X219509744Y-80056771D02*
X219585935Y-80094866D01*
D11*
%TO.C,GPIB1*%
X179314000Y-82550000D02*
X186314000Y-90200000D01*
X186314000Y-74900000D02*
X179314000Y-82550000D01*
X186314000Y-90200000D02*
X226314000Y-90200000D01*
X226314000Y-74900000D02*
X186314000Y-74900000D01*
X226314000Y-74900000D02*
X234314000Y-82550000D01*
X234314000Y-82550000D02*
X226314000Y-90200000D01*
D12*
%TO.C,G\u002A\u002A\u002A*%
G36*
X186780089Y-81909801D02*
G01*
X186791520Y-81923006D01*
X186813695Y-81985551D01*
X186796886Y-82044439D01*
X186745167Y-82079824D01*
X186678950Y-82080471D01*
X186621855Y-82046726D01*
X186599230Y-81986335D01*
X186611682Y-81936062D01*
X186657622Y-81891562D01*
X186719979Y-81880175D01*
X186780089Y-81909801D01*
G37*
G36*
X186703933Y-82895923D02*
G01*
X186743613Y-82930360D01*
X186772932Y-82967700D01*
X186779545Y-83025546D01*
X186734427Y-83086040D01*
X186729507Y-83090408D01*
X186680583Y-83117223D01*
X186628040Y-83102524D01*
X186605341Y-83085769D01*
X186575588Y-83028090D01*
X186581676Y-82964074D01*
X186624079Y-82916098D01*
X186669997Y-82894096D01*
X186703933Y-82895923D01*
G37*
G36*
X187924980Y-77599141D02*
G01*
X187949997Y-77623066D01*
X187955670Y-77683796D01*
X187957807Y-77731068D01*
X187976633Y-77797561D01*
X187984138Y-77804827D01*
X188022211Y-77841687D01*
X188103336Y-77870065D01*
X188228802Y-77889311D01*
X188245934Y-77891274D01*
X188378865Y-77911182D01*
X188469873Y-77936680D01*
X188529124Y-77971708D01*
X188566788Y-78020201D01*
X188582481Y-78052777D01*
X188590381Y-78099769D01*
X188569178Y-78148608D01*
X188514204Y-78216753D01*
X188490791Y-78243996D01*
X188450394Y-78294661D01*
X188434413Y-78320667D01*
X188436373Y-78323531D01*
X188471165Y-78336573D01*
X188535693Y-78349899D01*
X188546427Y-78351795D01*
X188654046Y-78394777D01*
X188728824Y-78469826D01*
X188763983Y-78566779D01*
X188752748Y-78675472D01*
X188750832Y-78681111D01*
X188708286Y-78751865D01*
X188632339Y-78793161D01*
X188619060Y-78797760D01*
X188563388Y-78822968D01*
X188540801Y-78843866D01*
X188545215Y-78851646D01*
X188583670Y-78879518D01*
X188648804Y-78913064D01*
X188657864Y-78917217D01*
X188747026Y-78972032D01*
X188793443Y-79039334D01*
X188806769Y-79132538D01*
X188787986Y-79211733D01*
X188724130Y-79272965D01*
X188613942Y-79309124D01*
X188595506Y-79312820D01*
X188537557Y-79330980D01*
X188514204Y-79349761D01*
X188516451Y-79356054D01*
X188548786Y-79387838D01*
X188607293Y-79427450D01*
X188669271Y-79471916D01*
X188694979Y-79520310D01*
X188675291Y-79577124D01*
X188610341Y-79652226D01*
X188586694Y-79674986D01*
X188535466Y-79715093D01*
X188476758Y-79743538D01*
X188399152Y-79763757D01*
X188291229Y-79779184D01*
X188141572Y-79793256D01*
X188134604Y-79793851D01*
X188023651Y-79807654D01*
X187941315Y-79826054D01*
X187899881Y-79846352D01*
X187895055Y-79858937D01*
X187887203Y-79916786D01*
X187880650Y-80020781D01*
X187875351Y-80172327D01*
X187871262Y-80372834D01*
X187868342Y-80623708D01*
X187866546Y-80926358D01*
X187862581Y-81970974D01*
X188075356Y-81957675D01*
X188077297Y-81957555D01*
X188172923Y-81953461D01*
X188308870Y-81950015D01*
X188472610Y-81947418D01*
X188651618Y-81945870D01*
X188833366Y-81945570D01*
X189064977Y-81948095D01*
X189259097Y-81955735D01*
X189416679Y-81969926D01*
X189546108Y-81992116D01*
X189655764Y-82023753D01*
X189754032Y-82066288D01*
X189849292Y-82121167D01*
X189856204Y-82125616D01*
X189969012Y-82210600D01*
X190067522Y-82306333D01*
X190140862Y-82400877D01*
X190178159Y-82482293D01*
X190191828Y-82538576D01*
X190205125Y-82582701D01*
X190206547Y-82587304D01*
X190210665Y-82640445D01*
X190208738Y-82727026D01*
X190202046Y-82830667D01*
X190191873Y-82934991D01*
X190179497Y-83023617D01*
X190166203Y-83080168D01*
X190153111Y-83109885D01*
X190076581Y-83219795D01*
X189966465Y-83320334D01*
X189837591Y-83397196D01*
X189814781Y-83407297D01*
X189752742Y-83430935D01*
X189689849Y-83445953D01*
X189613027Y-83453962D01*
X189509203Y-83456574D01*
X189365303Y-83455401D01*
X189233038Y-83451661D01*
X189099088Y-83444462D01*
X188987287Y-83434990D01*
X188913157Y-83424312D01*
X188905753Y-83422713D01*
X188827951Y-83406657D01*
X188714043Y-83383919D01*
X188578155Y-83357295D01*
X188434413Y-83329580D01*
X188413369Y-83325548D01*
X188270214Y-83297690D01*
X188137255Y-83271138D01*
X188028522Y-83248726D01*
X187958042Y-83233292D01*
X187925763Y-83226679D01*
X187856057Y-83220179D01*
X187817789Y-83228583D01*
X187815906Y-83233980D01*
X187810791Y-83282784D01*
X187805837Y-83376907D01*
X187801198Y-83510587D01*
X187797024Y-83678059D01*
X187793468Y-83873558D01*
X187790683Y-84091321D01*
X187788820Y-84325583D01*
X187782790Y-85399645D01*
X187830748Y-85409318D01*
X187875879Y-85418420D01*
X187918246Y-85426959D01*
X188015589Y-85446560D01*
X188118263Y-85467219D01*
X188165040Y-85478351D01*
X188283672Y-85521057D01*
X188388412Y-85577602D01*
X188466438Y-85640229D01*
X188504934Y-85701183D01*
X188506080Y-85705961D01*
X188509540Y-85793346D01*
X188483568Y-85866493D01*
X188434352Y-85907328D01*
X188417887Y-85913217D01*
X188384471Y-85939519D01*
X188403327Y-85968975D01*
X188473893Y-86000261D01*
X188495838Y-86008518D01*
X188586047Y-86066234D01*
X188649688Y-86145504D01*
X188673785Y-86231328D01*
X188666089Y-86271454D01*
X188619029Y-86342997D01*
X188541258Y-86402661D01*
X188446847Y-86437653D01*
X188418265Y-86444015D01*
X188365379Y-86467259D01*
X188360925Y-86493704D01*
X188407123Y-86518816D01*
X188435368Y-86532247D01*
X188497473Y-86586418D01*
X188547105Y-86657279D01*
X188567398Y-86723309D01*
X188556153Y-86768661D01*
X188504778Y-86834931D01*
X188424609Y-86889572D01*
X188329839Y-86920784D01*
X188294138Y-86927734D01*
X188235851Y-86949907D01*
X188224249Y-86975886D01*
X188262518Y-87001838D01*
X188288259Y-87016847D01*
X188336173Y-87078181D01*
X188361815Y-87158359D01*
X188355806Y-87234040D01*
X188336797Y-87272133D01*
X188290960Y-87317755D01*
X188217884Y-87349247D01*
X188108983Y-87369797D01*
X187955670Y-87382594D01*
X187703000Y-87396733D01*
X187694745Y-87496471D01*
X187686463Y-87555437D01*
X187665380Y-87588521D01*
X187621604Y-87596209D01*
X187598367Y-87595223D01*
X187570657Y-87582551D01*
X187559059Y-87544177D01*
X187556717Y-87466382D01*
X187556392Y-87434541D01*
X187548185Y-87363709D01*
X187520733Y-87315025D01*
X187463240Y-87265256D01*
X187405819Y-87215096D01*
X187328699Y-87114808D01*
X187272408Y-86986894D01*
X187233776Y-86823238D01*
X187209637Y-86615722D01*
X187200243Y-86424110D01*
X187204088Y-86272787D01*
X187330689Y-86272787D01*
X187331619Y-86396515D01*
X187343246Y-86551089D01*
X187343440Y-86553133D01*
X187361706Y-86725798D01*
X187380942Y-86854308D01*
X187404094Y-86947569D01*
X187434111Y-87014491D01*
X187473941Y-87063982D01*
X187526532Y-87104950D01*
X187625979Y-87156550D01*
X187765121Y-87199834D01*
X187905909Y-87218823D01*
X188026768Y-87209027D01*
X188067237Y-87196806D01*
X188124333Y-87162665D01*
X188133554Y-87123676D01*
X188097786Y-87084212D01*
X188019916Y-87048645D01*
X187902834Y-87021349D01*
X187858093Y-87011848D01*
X187770362Y-86970705D01*
X187727250Y-86909025D01*
X187732279Y-86830744D01*
X187733330Y-86827787D01*
X187747526Y-86794070D01*
X187768303Y-86774099D01*
X187807303Y-86764997D01*
X187876168Y-86763886D01*
X187986538Y-86767887D01*
X188157959Y-86770069D01*
X188282468Y-86759939D01*
X188356650Y-86737204D01*
X188381220Y-86701744D01*
X188356787Y-86662422D01*
X188286226Y-86625548D01*
X188176720Y-86594616D01*
X188035461Y-86572317D01*
X188008431Y-86569033D01*
X187879806Y-86541210D01*
X187801087Y-86498917D01*
X187772825Y-86442613D01*
X187795569Y-86372754D01*
X187796906Y-86370774D01*
X187822981Y-86352345D01*
X187875275Y-86340555D01*
X187962752Y-86334179D01*
X188094376Y-86331997D01*
X188172530Y-86330938D01*
X188286496Y-86326401D01*
X188376434Y-86319191D01*
X188427764Y-86310257D01*
X188464855Y-86287665D01*
X188487607Y-86227567D01*
X188485622Y-86210649D01*
X188453393Y-86163531D01*
X188378914Y-86122906D01*
X188258547Y-86087199D01*
X188088654Y-86054836D01*
X188016790Y-86043246D01*
X187913121Y-86024821D01*
X187848297Y-86008529D01*
X187813238Y-85990662D01*
X187798863Y-85967512D01*
X187796089Y-85935370D01*
X187796975Y-85915364D01*
X187814912Y-85863589D01*
X187861814Y-85832277D01*
X187945398Y-85818161D01*
X188073379Y-85817974D01*
X188104374Y-85818896D01*
X188226387Y-85815271D01*
X188299867Y-85797275D01*
X188327339Y-85763803D01*
X188311326Y-85713750D01*
X188300376Y-85700289D01*
X188236010Y-85656791D01*
X188136656Y-85615219D01*
X188015962Y-85580593D01*
X187887577Y-85557932D01*
X187830748Y-85553482D01*
X187687886Y-85568120D01*
X187571156Y-85624756D01*
X187478417Y-85725443D01*
X187407530Y-85872234D01*
X187356351Y-86067181D01*
X187341034Y-86158528D01*
X187330689Y-86272787D01*
X187204088Y-86272787D01*
X187207008Y-86157845D01*
X187237787Y-85921632D01*
X187291741Y-85724584D01*
X187351900Y-85594865D01*
X187428889Y-85498141D01*
X187530892Y-85428166D01*
X187536434Y-85425295D01*
X187572137Y-85404215D01*
X187593867Y-85378463D01*
X187605093Y-85335909D01*
X187609285Y-85264422D01*
X187609911Y-85151872D01*
X187606981Y-85030309D01*
X187595945Y-84934947D01*
X187576665Y-84891542D01*
X187575208Y-84890537D01*
X187534364Y-84871089D01*
X187455061Y-84838846D01*
X187348093Y-84798055D01*
X187224256Y-84752959D01*
X187151954Y-84726471D01*
X186844809Y-84597694D01*
X186557485Y-84451423D01*
X186306665Y-84295968D01*
X186211644Y-84226629D01*
X185957643Y-84000281D01*
X185744654Y-83744677D01*
X185575002Y-83464143D01*
X185451015Y-83163004D01*
X185375018Y-82845584D01*
X185349339Y-82516209D01*
X185349831Y-82483738D01*
X185499855Y-82483738D01*
X185505984Y-82670775D01*
X185520670Y-82840215D01*
X185543727Y-82974577D01*
X185583962Y-83104472D01*
X185654598Y-83277570D01*
X185742149Y-83456809D01*
X185837403Y-83623534D01*
X185931148Y-83759093D01*
X186012105Y-83851183D01*
X186167874Y-83996726D01*
X186352828Y-84141737D01*
X186554008Y-84276323D01*
X186758453Y-84390592D01*
X186826033Y-84423622D01*
X186972996Y-84491218D01*
X187122228Y-84555016D01*
X187265324Y-84611884D01*
X187393880Y-84658688D01*
X187499492Y-84692296D01*
X187573756Y-84709574D01*
X187608268Y-84707391D01*
X187608804Y-84706587D01*
X187615085Y-84670287D01*
X187621883Y-84588505D01*
X187628836Y-84468298D01*
X187635585Y-84316726D01*
X187641769Y-84140845D01*
X187647029Y-83947716D01*
X187664295Y-83211578D01*
X187604588Y-83169758D01*
X187553398Y-83143000D01*
X187489134Y-83127937D01*
X187460300Y-83125255D01*
X187384602Y-83110446D01*
X187295576Y-83087011D01*
X187223171Y-83062134D01*
X187172540Y-83031455D01*
X187157764Y-82995492D01*
X187159688Y-82969432D01*
X187180034Y-82934993D01*
X187230556Y-82926087D01*
X187321046Y-82939349D01*
X187529468Y-82981827D01*
X187906240Y-83058138D01*
X188231348Y-83123280D01*
X188505012Y-83177298D01*
X188727453Y-83220234D01*
X188898890Y-83252132D01*
X189019544Y-83273034D01*
X189024598Y-83273849D01*
X189291158Y-83306103D01*
X189514651Y-83309826D01*
X189697197Y-83284498D01*
X189840916Y-83229605D01*
X189947929Y-83144629D01*
X190020354Y-83029053D01*
X190040504Y-82954603D01*
X190052866Y-82837746D01*
X190053317Y-82708813D01*
X190041921Y-82589127D01*
X190018744Y-82500007D01*
X189999309Y-82461551D01*
X189909780Y-82346331D01*
X189786903Y-82245829D01*
X189645604Y-82173121D01*
X189548676Y-82140001D01*
X189431987Y-82109647D01*
X189305355Y-82088324D01*
X189160187Y-82075307D01*
X188987885Y-82069871D01*
X188779855Y-82071291D01*
X188527502Y-82078842D01*
X188517432Y-82079217D01*
X188315236Y-82086101D01*
X188103854Y-82092238D01*
X187898868Y-82097246D01*
X187715861Y-82100742D01*
X187570416Y-82102344D01*
X187428014Y-82102507D01*
X187323208Y-82100814D01*
X187255240Y-82096172D01*
X187215753Y-82087520D01*
X187196390Y-82073800D01*
X187188794Y-82053951D01*
X187186694Y-82036451D01*
X187198737Y-81998593D01*
X187242585Y-81974603D01*
X187325244Y-81961944D01*
X187453722Y-81958083D01*
X187544439Y-81955597D01*
X187638783Y-81944104D01*
X187684687Y-81923822D01*
X187690038Y-81908673D01*
X187699341Y-81843087D01*
X187708458Y-81731513D01*
X187717106Y-81578517D01*
X187725000Y-81388663D01*
X187731856Y-81166518D01*
X187732585Y-81138778D01*
X187737819Y-80928294D01*
X187741055Y-80764360D01*
X187742101Y-80641051D01*
X187740762Y-80552440D01*
X187736845Y-80492603D01*
X187730156Y-80455613D01*
X187720503Y-80435546D01*
X187707691Y-80426476D01*
X187694353Y-80422768D01*
X187618230Y-80419676D01*
X187505379Y-80430778D01*
X187366535Y-80454070D01*
X187212429Y-80487547D01*
X187053795Y-80529206D01*
X186901367Y-80577042D01*
X186848931Y-80595203D01*
X186694989Y-80650476D01*
X186575296Y-80698701D01*
X186477000Y-80746661D01*
X186387249Y-80801142D01*
X186293191Y-80868927D01*
X186181974Y-80956802D01*
X186106891Y-81021305D01*
X185910372Y-81231473D01*
X185744287Y-81472257D01*
X185616128Y-81731630D01*
X185533389Y-81997571D01*
X185514005Y-82126798D01*
X185502467Y-82296585D01*
X185499855Y-82483738D01*
X185349831Y-82483738D01*
X185350600Y-82432977D01*
X185382291Y-82089843D01*
X185455086Y-81768419D01*
X185566930Y-81472542D01*
X185715769Y-81206051D01*
X185899549Y-80972784D01*
X186116214Y-80776578D01*
X186363711Y-80621272D01*
X186414373Y-80596176D01*
X186585135Y-80519512D01*
X186772447Y-80445140D01*
X186965561Y-80376523D01*
X187153733Y-80317124D01*
X187326214Y-80270409D01*
X187472260Y-80239839D01*
X187581123Y-80228880D01*
X187612339Y-80227350D01*
X187618230Y-80225382D01*
X187660409Y-80211288D01*
X187692000Y-80170092D01*
X187712495Y-80094408D01*
X187727276Y-79974884D01*
X187745067Y-79787381D01*
X187635332Y-79699196D01*
X187525652Y-79577470D01*
X187445935Y-79414009D01*
X187396891Y-79211526D01*
X187379165Y-78972682D01*
X187379438Y-78967455D01*
X187518777Y-78967455D01*
X187520790Y-79082766D01*
X187527311Y-79167250D01*
X187540412Y-79234601D01*
X187562169Y-79298515D01*
X187594656Y-79372687D01*
X187613153Y-79411720D01*
X187665725Y-79502628D01*
X187724453Y-79562228D01*
X187800989Y-79596652D01*
X187906984Y-79612032D01*
X188054087Y-79614501D01*
X188138291Y-79612811D01*
X188269459Y-79604982D01*
X188357324Y-79590046D01*
X188408313Y-79566610D01*
X188428855Y-79533282D01*
X188426238Y-79511921D01*
X188382946Y-79474123D01*
X188292239Y-79442912D01*
X188157830Y-79419842D01*
X188130015Y-79416156D01*
X188029084Y-79391718D01*
X187973005Y-79352807D01*
X187955670Y-79295669D01*
X187964209Y-79258434D01*
X188014934Y-79216455D01*
X188112125Y-79197149D01*
X188256752Y-79200209D01*
X188316152Y-79204114D01*
X188440245Y-79201111D01*
X188531299Y-79178432D01*
X188596483Y-79140398D01*
X188618244Y-79096891D01*
X188591241Y-79052839D01*
X188517697Y-79010092D01*
X188399833Y-78970499D01*
X188239872Y-78935910D01*
X188231274Y-78934398D01*
X188100389Y-78907204D01*
X188015408Y-78878826D01*
X187969459Y-78846121D01*
X187955670Y-78805948D01*
X187971786Y-78762149D01*
X188024336Y-78730644D01*
X188118751Y-78709998D01*
X188260464Y-78698291D01*
X188395266Y-78687914D01*
X188510895Y-78666985D01*
X188574954Y-78636975D01*
X188586998Y-78598021D01*
X188562388Y-78565165D01*
X188492051Y-78529508D01*
X188374935Y-78499313D01*
X188207886Y-78473545D01*
X188121190Y-78461478D01*
X187988870Y-78434283D01*
X187905623Y-78401513D01*
X187868798Y-78361896D01*
X187875742Y-78314162D01*
X187901792Y-78285105D01*
X187977107Y-78245491D01*
X188081072Y-78218035D01*
X188198744Y-78207667D01*
X188204145Y-78207587D01*
X188287221Y-78192677D01*
X188354407Y-78159847D01*
X188384782Y-78133261D01*
X188396550Y-78105794D01*
X188370545Y-78076712D01*
X188365592Y-78073276D01*
X188309361Y-78054465D01*
X188214600Y-78038607D01*
X188093783Y-78027903D01*
X187984138Y-78023423D01*
X187865539Y-78028891D01*
X187780002Y-78054415D01*
X187716104Y-78106852D01*
X187662426Y-78193063D01*
X187607545Y-78319906D01*
X187584010Y-78380239D01*
X187554517Y-78464742D01*
X187535730Y-78540807D01*
X187525179Y-78623841D01*
X187520390Y-78729250D01*
X187518891Y-78872440D01*
X187518777Y-78967455D01*
X187379438Y-78967455D01*
X187393400Y-78700137D01*
X187410476Y-78567728D01*
X187461789Y-78327423D01*
X187534286Y-78132837D01*
X187627433Y-77985215D01*
X187740701Y-77885802D01*
X187748096Y-77881247D01*
X187796502Y-77842860D01*
X187817881Y-77794953D01*
X187822686Y-77715867D01*
X187822949Y-77682941D01*
X187828747Y-77625036D01*
X187848196Y-77600730D01*
X187889178Y-77595791D01*
X187924980Y-77599141D01*
G37*
%TD*%
M02*
