%TF.GenerationSoftware,KiCad,Pcbnew,9.0.3*%
%TF.CreationDate,2025-08-28T21:01:52-07:00*%
%TF.ProjectId,xyp-gpib,7879702d-6770-4696-922e-6b696361645f,rev?*%
%TF.SameCoordinates,Original*%
%TF.FileFunction,Drillmap*%
%TF.FilePolarity,Positive*%
%FSLAX45Y45*%
G04 Gerber Fmt 4.5, Leading zero omitted, Abs format (unit mm)*
G04 Created by KiCad (PCBNEW 9.0.3) date 2025-08-28 21:01:52*
%MOMM*%
%LPD*%
G01*
G04 APERTURE LIST*
%ADD10C,0.050000*%
%ADD11C,0.200000*%
%ADD12C,0.100000*%
G04 APERTURE END LIST*
D10*
X23400000Y-7600000D02*
X23400000Y-8900000D01*
X18000000Y-8900000D02*
X18000000Y-8775000D01*
X18000000Y-7600000D02*
X18000000Y-7700000D01*
X18000000Y-8775000D02*
X18000000Y-7700000D01*
X18100000Y-7500000D02*
X23300000Y-7500000D01*
X23300000Y-9000000D02*
X18100000Y-9000000D01*
X23400000Y-8900000D02*
G75*
G02*
X23300000Y-9000000I-100000J0D01*
G01*
X18100000Y-9000000D02*
G75*
G02*
X18000000Y-8900000I0J100000D01*
G01*
X23300000Y-7500000D02*
G75*
G02*
X23400000Y-7600000I0J-100000D01*
G01*
X18000000Y-7600000D02*
G75*
G02*
X18100000Y-7500000I100000J0D01*
G01*
D11*
D12*
X18085300Y-8374600D02*
X18115300Y-8404600D01*
X18115300Y-8374600D02*
X18085300Y-8404600D01*
X18200300Y-8364600D02*
X18230300Y-8394600D01*
X18230300Y-8364600D02*
X18200300Y-8394600D01*
X18200300Y-8564600D02*
X18230300Y-8594600D01*
X18230300Y-8564600D02*
X18200300Y-8594600D01*
X18315300Y-8069600D02*
X18345300Y-8099600D01*
X18345300Y-8069600D02*
X18315300Y-8099600D01*
X18357800Y-8589600D02*
X18387800Y-8619600D01*
X18387800Y-8589600D02*
X18357800Y-8619600D01*
X18375300Y-8754600D02*
X18405300Y-8784600D01*
X18405300Y-8754600D02*
X18375300Y-8784600D01*
X18385300Y-7609600D02*
X18415300Y-7639600D01*
X18415300Y-7609600D02*
X18385300Y-7639600D01*
X18424377Y-8312923D02*
X18454377Y-8342923D01*
X18454377Y-8312923D02*
X18424377Y-8342923D01*
X18425300Y-8389600D02*
X18455300Y-8419600D01*
X18455300Y-8389600D02*
X18425300Y-8419600D01*
X18440300Y-8134600D02*
X18470300Y-8164600D01*
X18470300Y-8134600D02*
X18440300Y-8164600D01*
X18440300Y-8639600D02*
X18470300Y-8669600D01*
X18470300Y-8639600D02*
X18440300Y-8669600D01*
X18536150Y-8603750D02*
X18566150Y-8633750D01*
X18566150Y-8603750D02*
X18536150Y-8633750D01*
X18555602Y-8703601D02*
X18585602Y-8733601D01*
X18585602Y-8703601D02*
X18555602Y-8733601D01*
X18565300Y-7944600D02*
X18595300Y-7974600D01*
X18595300Y-7944600D02*
X18565300Y-7974600D01*
X18590300Y-7594600D02*
X18620300Y-7624600D01*
X18620300Y-7594600D02*
X18590300Y-7624600D01*
X18620300Y-7824600D02*
X18650300Y-7854600D01*
X18650300Y-7824600D02*
X18620300Y-7854600D01*
X18669726Y-8709654D02*
X18699726Y-8739654D01*
X18699726Y-8709654D02*
X18669726Y-8739654D01*
X18669900Y-8078100D02*
X18699900Y-8108100D01*
X18699900Y-8078100D02*
X18669900Y-8108100D01*
X18669900Y-8478100D02*
X18699900Y-8508100D01*
X18699900Y-8478100D02*
X18669900Y-8508100D01*
X18680300Y-7639600D02*
X18710300Y-7669600D01*
X18710300Y-7639600D02*
X18680300Y-7669600D01*
X18710300Y-7824600D02*
X18740300Y-7854600D01*
X18740300Y-7824600D02*
X18710300Y-7854600D01*
X18790300Y-7819600D02*
X18820300Y-7849600D01*
X18820300Y-7819600D02*
X18790300Y-7849600D01*
X18869900Y-8278100D02*
X18899900Y-8308100D01*
X18899900Y-8278100D02*
X18869900Y-8308100D01*
X18869900Y-8278100D02*
X18899900Y-8308100D01*
X18899900Y-8278100D02*
X18869900Y-8308100D01*
X18869900Y-8278100D02*
X18899900Y-8308100D01*
X18899900Y-8278100D02*
X18869900Y-8308100D01*
X18869900Y-8278100D02*
X18899900Y-8308100D01*
X18899900Y-8278100D02*
X18869900Y-8308100D01*
X18869900Y-8278100D02*
X18899900Y-8308100D01*
X18899900Y-8278100D02*
X18869900Y-8308100D01*
X18869900Y-8278100D02*
X18899900Y-8308100D01*
X18899900Y-8278100D02*
X18869900Y-8308100D01*
X18918300Y-7792405D02*
X18948300Y-7822405D01*
X18948300Y-7792405D02*
X18918300Y-7822405D01*
X18930300Y-7674600D02*
X18960300Y-7704600D01*
X18960300Y-7674600D02*
X18930300Y-7704600D01*
X18993300Y-7792405D02*
X19023300Y-7822405D01*
X19023300Y-7792405D02*
X18993300Y-7822405D01*
X19069900Y-8078100D02*
X19099900Y-8108100D01*
X19099900Y-8078100D02*
X19069900Y-8108100D01*
X19069900Y-8478100D02*
X19099900Y-8508100D01*
X19099900Y-8478100D02*
X19069900Y-8508100D01*
X19165300Y-7616400D02*
X19195300Y-7646400D01*
X19195300Y-7616400D02*
X19165300Y-7646400D01*
X19255300Y-7959600D02*
X19285300Y-7989600D01*
X19285300Y-7959600D02*
X19255300Y-7989600D01*
X19300300Y-8579600D02*
X19330300Y-8609600D01*
X19330300Y-8579600D02*
X19300300Y-8609600D01*
X19310300Y-8179600D02*
X19340300Y-8209600D01*
X19340300Y-8179600D02*
X19310300Y-8209600D01*
X19330300Y-7616400D02*
X19360300Y-7646400D01*
X19360300Y-7616400D02*
X19330300Y-7646400D01*
X19490300Y-8234600D02*
X19520300Y-8264600D01*
X19520300Y-8234600D02*
X19490300Y-8264600D01*
X19665300Y-7614600D02*
X19695300Y-7644600D01*
X19695300Y-7614600D02*
X19665300Y-7644600D01*
X19694900Y-8303100D02*
X19724900Y-8333100D01*
X19724900Y-8303100D02*
X19694900Y-8333100D01*
X19775300Y-8234600D02*
X19805300Y-8264600D01*
X19805300Y-8234600D02*
X19775300Y-8264600D01*
X19870300Y-7594600D02*
X19900300Y-7624600D01*
X19900300Y-7594600D02*
X19870300Y-7624600D01*
X19915300Y-7662100D02*
X19945300Y-7692100D01*
X19945300Y-7662100D02*
X19915300Y-7692100D01*
X19915300Y-7737100D02*
X19945300Y-7767100D01*
X19945300Y-7737100D02*
X19915300Y-7767100D01*
X20110300Y-7694600D02*
X20140300Y-7724600D01*
X20140300Y-7694600D02*
X20110300Y-7724600D01*
X20410300Y-7594600D02*
X20440300Y-7624600D01*
X20440300Y-7594600D02*
X20410300Y-7624600D01*
X20500300Y-7594600D02*
X20530300Y-7624600D01*
X20530300Y-7594600D02*
X20500300Y-7624600D01*
X20645300Y-8239600D02*
X20675300Y-8269600D01*
X20675300Y-8239600D02*
X20645300Y-8269600D01*
X20946020Y-8668320D02*
X20976020Y-8698320D01*
X20976020Y-8668320D02*
X20946020Y-8698320D01*
X21310300Y-7594600D02*
X21340300Y-7624600D01*
X21340300Y-7594600D02*
X21310300Y-7624600D01*
X21344900Y-8728100D02*
X21374900Y-8758100D01*
X21374900Y-8728100D02*
X21344900Y-8758100D01*
X21395300Y-8239600D02*
X21425300Y-8269600D01*
X21425300Y-8239600D02*
X21395300Y-8269600D01*
X21619900Y-8903100D02*
X21649900Y-8933100D01*
X21649900Y-8903100D02*
X21619900Y-8933100D01*
X21950300Y-8074600D02*
X21980300Y-8104600D01*
X21980300Y-8074600D02*
X21950300Y-8104600D01*
X22019900Y-8153100D02*
X22049900Y-8183100D01*
X22049900Y-8153100D02*
X22019900Y-8183100D01*
X22170300Y-7754600D02*
X22200300Y-7784600D01*
X22200300Y-7754600D02*
X22170300Y-7784600D01*
X22550300Y-7954600D02*
X22580300Y-7984600D01*
X22580300Y-7954600D02*
X22550300Y-7984600D01*
X22550300Y-8444600D02*
X22580300Y-8474600D01*
X22580300Y-8444600D02*
X22550300Y-8474600D01*
X22560300Y-8554600D02*
X22590300Y-8584600D01*
X22590300Y-8554600D02*
X22560300Y-8584600D01*
X22570300Y-7874600D02*
X22600300Y-7904600D01*
X22600300Y-7874600D02*
X22570300Y-7904600D01*
X22763620Y-7827680D02*
G75*
G02*
X22703620Y-7827680I-30000J0D01*
G01*
X22703620Y-7827680D02*
G75*
G02*
X22763620Y-7827680I30000J0D01*
G01*
X22678620Y-7857680D02*
X22788620Y-7857680D01*
X22788620Y-7797680D02*
G75*
G02*
X22788620Y-7857680I0J-30000D01*
G01*
X22788620Y-7797680D02*
X22678620Y-7797680D01*
X22678620Y-7797680D02*
G75*
G03*
X22678620Y-7857680I0J-30000D01*
G01*
X22763620Y-8691680D02*
G75*
G02*
X22703620Y-8691680I-30000J0D01*
G01*
X22703620Y-8691680D02*
G75*
G02*
X22763620Y-8691680I30000J0D01*
G01*
X22678620Y-8721680D02*
X22788620Y-8721680D01*
X22788620Y-8661680D02*
G75*
G02*
X22788620Y-8721680I0J-30000D01*
G01*
X22788620Y-8661680D02*
X22678620Y-8661680D01*
X22678620Y-8661680D02*
G75*
G03*
X22678620Y-8721680I0J-30000D01*
G01*
X23181620Y-7827680D02*
G75*
G02*
X23121620Y-7827680I-30000J0D01*
G01*
X23121620Y-7827680D02*
G75*
G02*
X23181620Y-7827680I30000J0D01*
G01*
X23121620Y-7857680D02*
X23181620Y-7857680D01*
X23181620Y-7797680D02*
G75*
G02*
X23181620Y-7857680I0J-30000D01*
G01*
X23181620Y-7797680D02*
X23121620Y-7797680D01*
X23121620Y-7797680D02*
G75*
G03*
X23121620Y-7857680I0J-30000D01*
G01*
X23181620Y-8691680D02*
G75*
G02*
X23121620Y-8691680I-30000J0D01*
G01*
X23121620Y-8691680D02*
G75*
G02*
X23181620Y-8691680I30000J0D01*
G01*
X23121620Y-8721680D02*
X23181620Y-8721680D01*
X23181620Y-8661680D02*
G75*
G02*
X23181620Y-8721680I0J-30000D01*
G01*
X23181620Y-8661680D02*
X23121620Y-8661680D01*
X23121620Y-8661680D02*
G75*
G03*
X23121620Y-8721680I0J-30000D01*
G01*
X19443400Y-7990500D02*
X19443400Y-8090500D01*
X19393400Y-8040500D02*
X19493400Y-8040500D01*
X19443400Y-8419500D02*
X19443400Y-8519500D01*
X19393400Y-8469500D02*
X19493400Y-8469500D01*
X19659400Y-7990500D02*
X19659400Y-8090500D01*
X19609400Y-8040500D02*
X19709400Y-8040500D01*
X19659400Y-8419500D02*
X19659400Y-8519500D01*
X19609400Y-8469500D02*
X19709400Y-8469500D01*
X19875400Y-7990500D02*
X19875400Y-8090500D01*
X19825400Y-8040500D02*
X19925400Y-8040500D01*
X19875400Y-8419500D02*
X19875400Y-8519500D01*
X19825400Y-8469500D02*
X19925400Y-8469500D01*
X20091400Y-7990500D02*
X20091400Y-8090500D01*
X20041400Y-8040500D02*
X20141400Y-8040500D01*
X20091400Y-8419500D02*
X20091400Y-8519500D01*
X20041400Y-8469500D02*
X20141400Y-8469500D01*
X20307400Y-7990500D02*
X20307400Y-8090500D01*
X20257400Y-8040500D02*
X20357400Y-8040500D01*
X20307400Y-8419500D02*
X20307400Y-8519500D01*
X20257400Y-8469500D02*
X20357400Y-8469500D01*
X20523400Y-7990500D02*
X20523400Y-8090500D01*
X20473400Y-8040500D02*
X20573400Y-8040500D01*
X20523400Y-8419500D02*
X20523400Y-8519500D01*
X20473400Y-8469500D02*
X20573400Y-8469500D01*
X20739400Y-7990500D02*
X20739400Y-8090500D01*
X20689400Y-8040500D02*
X20789400Y-8040500D01*
X20739400Y-8419500D02*
X20739400Y-8519500D01*
X20689400Y-8469500D02*
X20789400Y-8469500D01*
X20955400Y-7990500D02*
X20955400Y-8090500D01*
X20905400Y-8040500D02*
X21005400Y-8040500D01*
X20955400Y-8419500D02*
X20955400Y-8519500D01*
X20905400Y-8469500D02*
X21005400Y-8469500D01*
X21171400Y-7990500D02*
X21171400Y-8090500D01*
X21121400Y-8040500D02*
X21221400Y-8040500D01*
X21171400Y-8419500D02*
X21171400Y-8519500D01*
X21121400Y-8469500D02*
X21221400Y-8469500D01*
X21387400Y-7990500D02*
X21387400Y-8090500D01*
X21337400Y-8040500D02*
X21437400Y-8040500D01*
X21387400Y-8419500D02*
X21387400Y-8519500D01*
X21337400Y-8469500D02*
X21437400Y-8469500D01*
X21603400Y-7990500D02*
X21603400Y-8090500D01*
X21553400Y-8040500D02*
X21653400Y-8040500D01*
X21603400Y-8419500D02*
X21603400Y-8519500D01*
X21553400Y-8469500D02*
X21653400Y-8469500D01*
X21819400Y-7990500D02*
X21819400Y-8090500D01*
X21769400Y-8040500D02*
X21869400Y-8040500D01*
X21819400Y-8419500D02*
X21819400Y-8519500D01*
X21769400Y-8469500D02*
X21869400Y-8469500D01*
D11*
X18258277Y-9313984D02*
X18258277Y-9113984D01*
X18258277Y-9113984D02*
X18305896Y-9113984D01*
X18305896Y-9113984D02*
X18334467Y-9123508D01*
X18334467Y-9123508D02*
X18353515Y-9142555D01*
X18353515Y-9142555D02*
X18363039Y-9161603D01*
X18363039Y-9161603D02*
X18372563Y-9199698D01*
X18372563Y-9199698D02*
X18372563Y-9228270D01*
X18372563Y-9228270D02*
X18363039Y-9266365D01*
X18363039Y-9266365D02*
X18353515Y-9285412D01*
X18353515Y-9285412D02*
X18334467Y-9304460D01*
X18334467Y-9304460D02*
X18305896Y-9313984D01*
X18305896Y-9313984D02*
X18258277Y-9313984D01*
X18458277Y-9313984D02*
X18458277Y-9180650D01*
X18458277Y-9218746D02*
X18467801Y-9199698D01*
X18467801Y-9199698D02*
X18477324Y-9190174D01*
X18477324Y-9190174D02*
X18496372Y-9180650D01*
X18496372Y-9180650D02*
X18515420Y-9180650D01*
X18582086Y-9313984D02*
X18582086Y-9180650D01*
X18582086Y-9113984D02*
X18572563Y-9123508D01*
X18572563Y-9123508D02*
X18582086Y-9133031D01*
X18582086Y-9133031D02*
X18591610Y-9123508D01*
X18591610Y-9123508D02*
X18582086Y-9113984D01*
X18582086Y-9113984D02*
X18582086Y-9133031D01*
X18705896Y-9313984D02*
X18686848Y-9304460D01*
X18686848Y-9304460D02*
X18677324Y-9285412D01*
X18677324Y-9285412D02*
X18677324Y-9113984D01*
X18810658Y-9313984D02*
X18791610Y-9304460D01*
X18791610Y-9304460D02*
X18782086Y-9285412D01*
X18782086Y-9285412D02*
X18782086Y-9113984D01*
X19039229Y-9313984D02*
X19039229Y-9113984D01*
X19039229Y-9113984D02*
X19105896Y-9256841D01*
X19105896Y-9256841D02*
X19172563Y-9113984D01*
X19172563Y-9113984D02*
X19172563Y-9313984D01*
X19353515Y-9313984D02*
X19353515Y-9209222D01*
X19353515Y-9209222D02*
X19343991Y-9190174D01*
X19343991Y-9190174D02*
X19324944Y-9180650D01*
X19324944Y-9180650D02*
X19286848Y-9180650D01*
X19286848Y-9180650D02*
X19267801Y-9190174D01*
X19353515Y-9304460D02*
X19334467Y-9313984D01*
X19334467Y-9313984D02*
X19286848Y-9313984D01*
X19286848Y-9313984D02*
X19267801Y-9304460D01*
X19267801Y-9304460D02*
X19258277Y-9285412D01*
X19258277Y-9285412D02*
X19258277Y-9266365D01*
X19258277Y-9266365D02*
X19267801Y-9247317D01*
X19267801Y-9247317D02*
X19286848Y-9237793D01*
X19286848Y-9237793D02*
X19334467Y-9237793D01*
X19334467Y-9237793D02*
X19353515Y-9228270D01*
X19448753Y-9180650D02*
X19448753Y-9380650D01*
X19448753Y-9190174D02*
X19467801Y-9180650D01*
X19467801Y-9180650D02*
X19505896Y-9180650D01*
X19505896Y-9180650D02*
X19524944Y-9190174D01*
X19524944Y-9190174D02*
X19534467Y-9199698D01*
X19534467Y-9199698D02*
X19543991Y-9218746D01*
X19543991Y-9218746D02*
X19543991Y-9275889D01*
X19543991Y-9275889D02*
X19534467Y-9294936D01*
X19534467Y-9294936D02*
X19524944Y-9304460D01*
X19524944Y-9304460D02*
X19505896Y-9313984D01*
X19505896Y-9313984D02*
X19467801Y-9313984D01*
X19467801Y-9313984D02*
X19448753Y-9304460D01*
X19629705Y-9294936D02*
X19639229Y-9304460D01*
X19639229Y-9304460D02*
X19629705Y-9313984D01*
X19629705Y-9313984D02*
X19620182Y-9304460D01*
X19620182Y-9304460D02*
X19629705Y-9294936D01*
X19629705Y-9294936D02*
X19629705Y-9313984D01*
X19629705Y-9190174D02*
X19639229Y-9199698D01*
X19639229Y-9199698D02*
X19629705Y-9209222D01*
X19629705Y-9209222D02*
X19620182Y-9199698D01*
X19620182Y-9199698D02*
X19629705Y-9190174D01*
X19629705Y-9190174D02*
X19629705Y-9209222D01*
D12*
X17967500Y-9627500D02*
X17997500Y-9657500D01*
X17997500Y-9627500D02*
X17967500Y-9657500D01*
D11*
X18296372Y-9533984D02*
X18315420Y-9533984D01*
X18315420Y-9533984D02*
X18334467Y-9543508D01*
X18334467Y-9543508D02*
X18343991Y-9553031D01*
X18343991Y-9553031D02*
X18353515Y-9572079D01*
X18353515Y-9572079D02*
X18363039Y-9610174D01*
X18363039Y-9610174D02*
X18363039Y-9657793D01*
X18363039Y-9657793D02*
X18353515Y-9695889D01*
X18353515Y-9695889D02*
X18343991Y-9714936D01*
X18343991Y-9714936D02*
X18334467Y-9724460D01*
X18334467Y-9724460D02*
X18315420Y-9733984D01*
X18315420Y-9733984D02*
X18296372Y-9733984D01*
X18296372Y-9733984D02*
X18277324Y-9724460D01*
X18277324Y-9724460D02*
X18267801Y-9714936D01*
X18267801Y-9714936D02*
X18258277Y-9695889D01*
X18258277Y-9695889D02*
X18248753Y-9657793D01*
X18248753Y-9657793D02*
X18248753Y-9610174D01*
X18248753Y-9610174D02*
X18258277Y-9572079D01*
X18258277Y-9572079D02*
X18267801Y-9553031D01*
X18267801Y-9553031D02*
X18277324Y-9543508D01*
X18277324Y-9543508D02*
X18296372Y-9533984D01*
X18448753Y-9714936D02*
X18458277Y-9724460D01*
X18458277Y-9724460D02*
X18448753Y-9733984D01*
X18448753Y-9733984D02*
X18439229Y-9724460D01*
X18439229Y-9724460D02*
X18448753Y-9714936D01*
X18448753Y-9714936D02*
X18448753Y-9733984D01*
X18524944Y-9533984D02*
X18648753Y-9533984D01*
X18648753Y-9533984D02*
X18582086Y-9610174D01*
X18582086Y-9610174D02*
X18610658Y-9610174D01*
X18610658Y-9610174D02*
X18629705Y-9619698D01*
X18629705Y-9619698D02*
X18639229Y-9629222D01*
X18639229Y-9629222D02*
X18648753Y-9648270D01*
X18648753Y-9648270D02*
X18648753Y-9695889D01*
X18648753Y-9695889D02*
X18639229Y-9714936D01*
X18639229Y-9714936D02*
X18629705Y-9724460D01*
X18629705Y-9724460D02*
X18610658Y-9733984D01*
X18610658Y-9733984D02*
X18553515Y-9733984D01*
X18553515Y-9733984D02*
X18534467Y-9724460D01*
X18534467Y-9724460D02*
X18524944Y-9714936D01*
X18772563Y-9533984D02*
X18791610Y-9533984D01*
X18791610Y-9533984D02*
X18810658Y-9543508D01*
X18810658Y-9543508D02*
X18820182Y-9553031D01*
X18820182Y-9553031D02*
X18829705Y-9572079D01*
X18829705Y-9572079D02*
X18839229Y-9610174D01*
X18839229Y-9610174D02*
X18839229Y-9657793D01*
X18839229Y-9657793D02*
X18829705Y-9695889D01*
X18829705Y-9695889D02*
X18820182Y-9714936D01*
X18820182Y-9714936D02*
X18810658Y-9724460D01*
X18810658Y-9724460D02*
X18791610Y-9733984D01*
X18791610Y-9733984D02*
X18772563Y-9733984D01*
X18772563Y-9733984D02*
X18753515Y-9724460D01*
X18753515Y-9724460D02*
X18743991Y-9714936D01*
X18743991Y-9714936D02*
X18734467Y-9695889D01*
X18734467Y-9695889D02*
X18724944Y-9657793D01*
X18724944Y-9657793D02*
X18724944Y-9610174D01*
X18724944Y-9610174D02*
X18734467Y-9572079D01*
X18734467Y-9572079D02*
X18743991Y-9553031D01*
X18743991Y-9553031D02*
X18753515Y-9543508D01*
X18753515Y-9543508D02*
X18772563Y-9533984D01*
X18963039Y-9533984D02*
X18982086Y-9533984D01*
X18982086Y-9533984D02*
X19001134Y-9543508D01*
X19001134Y-9543508D02*
X19010658Y-9553031D01*
X19010658Y-9553031D02*
X19020182Y-9572079D01*
X19020182Y-9572079D02*
X19029705Y-9610174D01*
X19029705Y-9610174D02*
X19029705Y-9657793D01*
X19029705Y-9657793D02*
X19020182Y-9695889D01*
X19020182Y-9695889D02*
X19010658Y-9714936D01*
X19010658Y-9714936D02*
X19001134Y-9724460D01*
X19001134Y-9724460D02*
X18982086Y-9733984D01*
X18982086Y-9733984D02*
X18963039Y-9733984D01*
X18963039Y-9733984D02*
X18943991Y-9724460D01*
X18943991Y-9724460D02*
X18934467Y-9714936D01*
X18934467Y-9714936D02*
X18924944Y-9695889D01*
X18924944Y-9695889D02*
X18915420Y-9657793D01*
X18915420Y-9657793D02*
X18915420Y-9610174D01*
X18915420Y-9610174D02*
X18924944Y-9572079D01*
X18924944Y-9572079D02*
X18934467Y-9553031D01*
X18934467Y-9553031D02*
X18943991Y-9543508D01*
X18943991Y-9543508D02*
X18963039Y-9533984D01*
X19115420Y-9733984D02*
X19115420Y-9600650D01*
X19115420Y-9619698D02*
X19124944Y-9610174D01*
X19124944Y-9610174D02*
X19143991Y-9600650D01*
X19143991Y-9600650D02*
X19172563Y-9600650D01*
X19172563Y-9600650D02*
X19191610Y-9610174D01*
X19191610Y-9610174D02*
X19201134Y-9629222D01*
X19201134Y-9629222D02*
X19201134Y-9733984D01*
X19201134Y-9629222D02*
X19210658Y-9610174D01*
X19210658Y-9610174D02*
X19229705Y-9600650D01*
X19229705Y-9600650D02*
X19258277Y-9600650D01*
X19258277Y-9600650D02*
X19277325Y-9610174D01*
X19277325Y-9610174D02*
X19286848Y-9629222D01*
X19286848Y-9629222D02*
X19286848Y-9733984D01*
X19382086Y-9733984D02*
X19382086Y-9600650D01*
X19382086Y-9619698D02*
X19391610Y-9610174D01*
X19391610Y-9610174D02*
X19410658Y-9600650D01*
X19410658Y-9600650D02*
X19439229Y-9600650D01*
X19439229Y-9600650D02*
X19458277Y-9610174D01*
X19458277Y-9610174D02*
X19467801Y-9629222D01*
X19467801Y-9629222D02*
X19467801Y-9733984D01*
X19467801Y-9629222D02*
X19477325Y-9610174D01*
X19477325Y-9610174D02*
X19496372Y-9600650D01*
X19496372Y-9600650D02*
X19524944Y-9600650D01*
X19524944Y-9600650D02*
X19543991Y-9610174D01*
X19543991Y-9610174D02*
X19553515Y-9629222D01*
X19553515Y-9629222D02*
X19553515Y-9733984D01*
X19943991Y-9524460D02*
X19772563Y-9781603D01*
X20201134Y-9533984D02*
X20220182Y-9533984D01*
X20220182Y-9533984D02*
X20239229Y-9543508D01*
X20239229Y-9543508D02*
X20248753Y-9553031D01*
X20248753Y-9553031D02*
X20258277Y-9572079D01*
X20258277Y-9572079D02*
X20267801Y-9610174D01*
X20267801Y-9610174D02*
X20267801Y-9657793D01*
X20267801Y-9657793D02*
X20258277Y-9695889D01*
X20258277Y-9695889D02*
X20248753Y-9714936D01*
X20248753Y-9714936D02*
X20239229Y-9724460D01*
X20239229Y-9724460D02*
X20220182Y-9733984D01*
X20220182Y-9733984D02*
X20201134Y-9733984D01*
X20201134Y-9733984D02*
X20182087Y-9724460D01*
X20182087Y-9724460D02*
X20172563Y-9714936D01*
X20172563Y-9714936D02*
X20163039Y-9695889D01*
X20163039Y-9695889D02*
X20153515Y-9657793D01*
X20153515Y-9657793D02*
X20153515Y-9610174D01*
X20153515Y-9610174D02*
X20163039Y-9572079D01*
X20163039Y-9572079D02*
X20172563Y-9553031D01*
X20172563Y-9553031D02*
X20182087Y-9543508D01*
X20182087Y-9543508D02*
X20201134Y-9533984D01*
X20353515Y-9714936D02*
X20363039Y-9724460D01*
X20363039Y-9724460D02*
X20353515Y-9733984D01*
X20353515Y-9733984D02*
X20343991Y-9724460D01*
X20343991Y-9724460D02*
X20353515Y-9714936D01*
X20353515Y-9714936D02*
X20353515Y-9733984D01*
X20486848Y-9533984D02*
X20505896Y-9533984D01*
X20505896Y-9533984D02*
X20524944Y-9543508D01*
X20524944Y-9543508D02*
X20534468Y-9553031D01*
X20534468Y-9553031D02*
X20543991Y-9572079D01*
X20543991Y-9572079D02*
X20553515Y-9610174D01*
X20553515Y-9610174D02*
X20553515Y-9657793D01*
X20553515Y-9657793D02*
X20543991Y-9695889D01*
X20543991Y-9695889D02*
X20534468Y-9714936D01*
X20534468Y-9714936D02*
X20524944Y-9724460D01*
X20524944Y-9724460D02*
X20505896Y-9733984D01*
X20505896Y-9733984D02*
X20486848Y-9733984D01*
X20486848Y-9733984D02*
X20467801Y-9724460D01*
X20467801Y-9724460D02*
X20458277Y-9714936D01*
X20458277Y-9714936D02*
X20448753Y-9695889D01*
X20448753Y-9695889D02*
X20439229Y-9657793D01*
X20439229Y-9657793D02*
X20439229Y-9610174D01*
X20439229Y-9610174D02*
X20448753Y-9572079D01*
X20448753Y-9572079D02*
X20458277Y-9553031D01*
X20458277Y-9553031D02*
X20467801Y-9543508D01*
X20467801Y-9543508D02*
X20486848Y-9533984D01*
X20743991Y-9733984D02*
X20629706Y-9733984D01*
X20686848Y-9733984D02*
X20686848Y-9533984D01*
X20686848Y-9533984D02*
X20667801Y-9562555D01*
X20667801Y-9562555D02*
X20648753Y-9581603D01*
X20648753Y-9581603D02*
X20629706Y-9591127D01*
X20934468Y-9733984D02*
X20820182Y-9733984D01*
X20877325Y-9733984D02*
X20877325Y-9533984D01*
X20877325Y-9533984D02*
X20858277Y-9562555D01*
X20858277Y-9562555D02*
X20839229Y-9581603D01*
X20839229Y-9581603D02*
X20820182Y-9591127D01*
X21048753Y-9619698D02*
X21029706Y-9610174D01*
X21029706Y-9610174D02*
X21020182Y-9600650D01*
X21020182Y-9600650D02*
X21010658Y-9581603D01*
X21010658Y-9581603D02*
X21010658Y-9572079D01*
X21010658Y-9572079D02*
X21020182Y-9553031D01*
X21020182Y-9553031D02*
X21029706Y-9543508D01*
X21029706Y-9543508D02*
X21048753Y-9533984D01*
X21048753Y-9533984D02*
X21086849Y-9533984D01*
X21086849Y-9533984D02*
X21105896Y-9543508D01*
X21105896Y-9543508D02*
X21115420Y-9553031D01*
X21115420Y-9553031D02*
X21124944Y-9572079D01*
X21124944Y-9572079D02*
X21124944Y-9581603D01*
X21124944Y-9581603D02*
X21115420Y-9600650D01*
X21115420Y-9600650D02*
X21105896Y-9610174D01*
X21105896Y-9610174D02*
X21086849Y-9619698D01*
X21086849Y-9619698D02*
X21048753Y-9619698D01*
X21048753Y-9619698D02*
X21029706Y-9629222D01*
X21029706Y-9629222D02*
X21020182Y-9638746D01*
X21020182Y-9638746D02*
X21010658Y-9657793D01*
X21010658Y-9657793D02*
X21010658Y-9695889D01*
X21010658Y-9695889D02*
X21020182Y-9714936D01*
X21020182Y-9714936D02*
X21029706Y-9724460D01*
X21029706Y-9724460D02*
X21048753Y-9733984D01*
X21048753Y-9733984D02*
X21086849Y-9733984D01*
X21086849Y-9733984D02*
X21105896Y-9724460D01*
X21105896Y-9724460D02*
X21115420Y-9714936D01*
X21115420Y-9714936D02*
X21124944Y-9695889D01*
X21124944Y-9695889D02*
X21124944Y-9657793D01*
X21124944Y-9657793D02*
X21115420Y-9638746D01*
X21115420Y-9638746D02*
X21105896Y-9629222D01*
X21105896Y-9629222D02*
X21086849Y-9619698D01*
X21201134Y-9533984D02*
X21201134Y-9572079D01*
X21277325Y-9533984D02*
X21277325Y-9572079D01*
X21572563Y-9810174D02*
X21563039Y-9800650D01*
X21563039Y-9800650D02*
X21543991Y-9772079D01*
X21543991Y-9772079D02*
X21534468Y-9753031D01*
X21534468Y-9753031D02*
X21524944Y-9724460D01*
X21524944Y-9724460D02*
X21515420Y-9676841D01*
X21515420Y-9676841D02*
X21515420Y-9638746D01*
X21515420Y-9638746D02*
X21524944Y-9591127D01*
X21524944Y-9591127D02*
X21534468Y-9562555D01*
X21534468Y-9562555D02*
X21543991Y-9543508D01*
X21543991Y-9543508D02*
X21563039Y-9514936D01*
X21563039Y-9514936D02*
X21572563Y-9505412D01*
X21734468Y-9533984D02*
X21696372Y-9533984D01*
X21696372Y-9533984D02*
X21677325Y-9543508D01*
X21677325Y-9543508D02*
X21667801Y-9553031D01*
X21667801Y-9553031D02*
X21648753Y-9581603D01*
X21648753Y-9581603D02*
X21639230Y-9619698D01*
X21639230Y-9619698D02*
X21639230Y-9695889D01*
X21639230Y-9695889D02*
X21648753Y-9714936D01*
X21648753Y-9714936D02*
X21658277Y-9724460D01*
X21658277Y-9724460D02*
X21677325Y-9733984D01*
X21677325Y-9733984D02*
X21715420Y-9733984D01*
X21715420Y-9733984D02*
X21734468Y-9724460D01*
X21734468Y-9724460D02*
X21743991Y-9714936D01*
X21743991Y-9714936D02*
X21753515Y-9695889D01*
X21753515Y-9695889D02*
X21753515Y-9648270D01*
X21753515Y-9648270D02*
X21743991Y-9629222D01*
X21743991Y-9629222D02*
X21734468Y-9619698D01*
X21734468Y-9619698D02*
X21715420Y-9610174D01*
X21715420Y-9610174D02*
X21677325Y-9610174D01*
X21677325Y-9610174D02*
X21658277Y-9619698D01*
X21658277Y-9619698D02*
X21648753Y-9629222D01*
X21648753Y-9629222D02*
X21639230Y-9648270D01*
X21943991Y-9733984D02*
X21829706Y-9733984D01*
X21886849Y-9733984D02*
X21886849Y-9533984D01*
X21886849Y-9533984D02*
X21867801Y-9562555D01*
X21867801Y-9562555D02*
X21848753Y-9581603D01*
X21848753Y-9581603D02*
X21829706Y-9591127D01*
X22182087Y-9733984D02*
X22182087Y-9533984D01*
X22267801Y-9733984D02*
X22267801Y-9629222D01*
X22267801Y-9629222D02*
X22258277Y-9610174D01*
X22258277Y-9610174D02*
X22239230Y-9600650D01*
X22239230Y-9600650D02*
X22210658Y-9600650D01*
X22210658Y-9600650D02*
X22191611Y-9610174D01*
X22191611Y-9610174D02*
X22182087Y-9619698D01*
X22391610Y-9733984D02*
X22372563Y-9724460D01*
X22372563Y-9724460D02*
X22363039Y-9714936D01*
X22363039Y-9714936D02*
X22353515Y-9695889D01*
X22353515Y-9695889D02*
X22353515Y-9638746D01*
X22353515Y-9638746D02*
X22363039Y-9619698D01*
X22363039Y-9619698D02*
X22372563Y-9610174D01*
X22372563Y-9610174D02*
X22391610Y-9600650D01*
X22391610Y-9600650D02*
X22420182Y-9600650D01*
X22420182Y-9600650D02*
X22439230Y-9610174D01*
X22439230Y-9610174D02*
X22448753Y-9619698D01*
X22448753Y-9619698D02*
X22458277Y-9638746D01*
X22458277Y-9638746D02*
X22458277Y-9695889D01*
X22458277Y-9695889D02*
X22448753Y-9714936D01*
X22448753Y-9714936D02*
X22439230Y-9724460D01*
X22439230Y-9724460D02*
X22420182Y-9733984D01*
X22420182Y-9733984D02*
X22391610Y-9733984D01*
X22572563Y-9733984D02*
X22553515Y-9724460D01*
X22553515Y-9724460D02*
X22543991Y-9705412D01*
X22543991Y-9705412D02*
X22543991Y-9533984D01*
X22724944Y-9724460D02*
X22705896Y-9733984D01*
X22705896Y-9733984D02*
X22667801Y-9733984D01*
X22667801Y-9733984D02*
X22648753Y-9724460D01*
X22648753Y-9724460D02*
X22639230Y-9705412D01*
X22639230Y-9705412D02*
X22639230Y-9629222D01*
X22639230Y-9629222D02*
X22648753Y-9610174D01*
X22648753Y-9610174D02*
X22667801Y-9600650D01*
X22667801Y-9600650D02*
X22705896Y-9600650D01*
X22705896Y-9600650D02*
X22724944Y-9610174D01*
X22724944Y-9610174D02*
X22734468Y-9629222D01*
X22734468Y-9629222D02*
X22734468Y-9648270D01*
X22734468Y-9648270D02*
X22639230Y-9667317D01*
X22810658Y-9724460D02*
X22829706Y-9733984D01*
X22829706Y-9733984D02*
X22867801Y-9733984D01*
X22867801Y-9733984D02*
X22886849Y-9724460D01*
X22886849Y-9724460D02*
X22896372Y-9705412D01*
X22896372Y-9705412D02*
X22896372Y-9695889D01*
X22896372Y-9695889D02*
X22886849Y-9676841D01*
X22886849Y-9676841D02*
X22867801Y-9667317D01*
X22867801Y-9667317D02*
X22839230Y-9667317D01*
X22839230Y-9667317D02*
X22820182Y-9657793D01*
X22820182Y-9657793D02*
X22810658Y-9638746D01*
X22810658Y-9638746D02*
X22810658Y-9629222D01*
X22810658Y-9629222D02*
X22820182Y-9610174D01*
X22820182Y-9610174D02*
X22839230Y-9600650D01*
X22839230Y-9600650D02*
X22867801Y-9600650D01*
X22867801Y-9600650D02*
X22886849Y-9610174D01*
X22963039Y-9810174D02*
X22972563Y-9800650D01*
X22972563Y-9800650D02*
X22991611Y-9772079D01*
X22991611Y-9772079D02*
X23001134Y-9753031D01*
X23001134Y-9753031D02*
X23010658Y-9724460D01*
X23010658Y-9724460D02*
X23020182Y-9676841D01*
X23020182Y-9676841D02*
X23020182Y-9638746D01*
X23020182Y-9638746D02*
X23010658Y-9591127D01*
X23010658Y-9591127D02*
X23001134Y-9562555D01*
X23001134Y-9562555D02*
X22991611Y-9543508D01*
X22991611Y-9543508D02*
X22972563Y-9514936D01*
X22972563Y-9514936D02*
X22963039Y-9505412D01*
D12*
X17997500Y-9906500D02*
G75*
G02*
X17937500Y-9906500I-30000J0D01*
G01*
X17937500Y-9906500D02*
G75*
G02*
X17997500Y-9906500I30000J0D01*
G01*
D11*
X18296372Y-9797984D02*
X18315420Y-9797984D01*
X18315420Y-9797984D02*
X18334467Y-9807508D01*
X18334467Y-9807508D02*
X18343991Y-9817031D01*
X18343991Y-9817031D02*
X18353515Y-9836079D01*
X18353515Y-9836079D02*
X18363039Y-9874174D01*
X18363039Y-9874174D02*
X18363039Y-9921793D01*
X18363039Y-9921793D02*
X18353515Y-9959889D01*
X18353515Y-9959889D02*
X18343991Y-9978936D01*
X18343991Y-9978936D02*
X18334467Y-9988460D01*
X18334467Y-9988460D02*
X18315420Y-9997984D01*
X18315420Y-9997984D02*
X18296372Y-9997984D01*
X18296372Y-9997984D02*
X18277324Y-9988460D01*
X18277324Y-9988460D02*
X18267801Y-9978936D01*
X18267801Y-9978936D02*
X18258277Y-9959889D01*
X18258277Y-9959889D02*
X18248753Y-9921793D01*
X18248753Y-9921793D02*
X18248753Y-9874174D01*
X18248753Y-9874174D02*
X18258277Y-9836079D01*
X18258277Y-9836079D02*
X18267801Y-9817031D01*
X18267801Y-9817031D02*
X18277324Y-9807508D01*
X18277324Y-9807508D02*
X18296372Y-9797984D01*
X18448753Y-9978936D02*
X18458277Y-9988460D01*
X18458277Y-9988460D02*
X18448753Y-9997984D01*
X18448753Y-9997984D02*
X18439229Y-9988460D01*
X18439229Y-9988460D02*
X18448753Y-9978936D01*
X18448753Y-9978936D02*
X18448753Y-9997984D01*
X18629705Y-9797984D02*
X18591610Y-9797984D01*
X18591610Y-9797984D02*
X18572563Y-9807508D01*
X18572563Y-9807508D02*
X18563039Y-9817031D01*
X18563039Y-9817031D02*
X18543991Y-9845603D01*
X18543991Y-9845603D02*
X18534467Y-9883698D01*
X18534467Y-9883698D02*
X18534467Y-9959889D01*
X18534467Y-9959889D02*
X18543991Y-9978936D01*
X18543991Y-9978936D02*
X18553515Y-9988460D01*
X18553515Y-9988460D02*
X18572563Y-9997984D01*
X18572563Y-9997984D02*
X18610658Y-9997984D01*
X18610658Y-9997984D02*
X18629705Y-9988460D01*
X18629705Y-9988460D02*
X18639229Y-9978936D01*
X18639229Y-9978936D02*
X18648753Y-9959889D01*
X18648753Y-9959889D02*
X18648753Y-9912270D01*
X18648753Y-9912270D02*
X18639229Y-9893222D01*
X18639229Y-9893222D02*
X18629705Y-9883698D01*
X18629705Y-9883698D02*
X18610658Y-9874174D01*
X18610658Y-9874174D02*
X18572563Y-9874174D01*
X18572563Y-9874174D02*
X18553515Y-9883698D01*
X18553515Y-9883698D02*
X18543991Y-9893222D01*
X18543991Y-9893222D02*
X18534467Y-9912270D01*
X18772563Y-9797984D02*
X18791610Y-9797984D01*
X18791610Y-9797984D02*
X18810658Y-9807508D01*
X18810658Y-9807508D02*
X18820182Y-9817031D01*
X18820182Y-9817031D02*
X18829705Y-9836079D01*
X18829705Y-9836079D02*
X18839229Y-9874174D01*
X18839229Y-9874174D02*
X18839229Y-9921793D01*
X18839229Y-9921793D02*
X18829705Y-9959889D01*
X18829705Y-9959889D02*
X18820182Y-9978936D01*
X18820182Y-9978936D02*
X18810658Y-9988460D01*
X18810658Y-9988460D02*
X18791610Y-9997984D01*
X18791610Y-9997984D02*
X18772563Y-9997984D01*
X18772563Y-9997984D02*
X18753515Y-9988460D01*
X18753515Y-9988460D02*
X18743991Y-9978936D01*
X18743991Y-9978936D02*
X18734467Y-9959889D01*
X18734467Y-9959889D02*
X18724944Y-9921793D01*
X18724944Y-9921793D02*
X18724944Y-9874174D01*
X18724944Y-9874174D02*
X18734467Y-9836079D01*
X18734467Y-9836079D02*
X18743991Y-9817031D01*
X18743991Y-9817031D02*
X18753515Y-9807508D01*
X18753515Y-9807508D02*
X18772563Y-9797984D01*
X18963039Y-9797984D02*
X18982086Y-9797984D01*
X18982086Y-9797984D02*
X19001134Y-9807508D01*
X19001134Y-9807508D02*
X19010658Y-9817031D01*
X19010658Y-9817031D02*
X19020182Y-9836079D01*
X19020182Y-9836079D02*
X19029705Y-9874174D01*
X19029705Y-9874174D02*
X19029705Y-9921793D01*
X19029705Y-9921793D02*
X19020182Y-9959889D01*
X19020182Y-9959889D02*
X19010658Y-9978936D01*
X19010658Y-9978936D02*
X19001134Y-9988460D01*
X19001134Y-9988460D02*
X18982086Y-9997984D01*
X18982086Y-9997984D02*
X18963039Y-9997984D01*
X18963039Y-9997984D02*
X18943991Y-9988460D01*
X18943991Y-9988460D02*
X18934467Y-9978936D01*
X18934467Y-9978936D02*
X18924944Y-9959889D01*
X18924944Y-9959889D02*
X18915420Y-9921793D01*
X18915420Y-9921793D02*
X18915420Y-9874174D01*
X18915420Y-9874174D02*
X18924944Y-9836079D01*
X18924944Y-9836079D02*
X18934467Y-9817031D01*
X18934467Y-9817031D02*
X18943991Y-9807508D01*
X18943991Y-9807508D02*
X18963039Y-9797984D01*
X19115420Y-9997984D02*
X19115420Y-9864650D01*
X19115420Y-9883698D02*
X19124944Y-9874174D01*
X19124944Y-9874174D02*
X19143991Y-9864650D01*
X19143991Y-9864650D02*
X19172563Y-9864650D01*
X19172563Y-9864650D02*
X19191610Y-9874174D01*
X19191610Y-9874174D02*
X19201134Y-9893222D01*
X19201134Y-9893222D02*
X19201134Y-9997984D01*
X19201134Y-9893222D02*
X19210658Y-9874174D01*
X19210658Y-9874174D02*
X19229705Y-9864650D01*
X19229705Y-9864650D02*
X19258277Y-9864650D01*
X19258277Y-9864650D02*
X19277325Y-9874174D01*
X19277325Y-9874174D02*
X19286848Y-9893222D01*
X19286848Y-9893222D02*
X19286848Y-9997984D01*
X19382086Y-9997984D02*
X19382086Y-9864650D01*
X19382086Y-9883698D02*
X19391610Y-9874174D01*
X19391610Y-9874174D02*
X19410658Y-9864650D01*
X19410658Y-9864650D02*
X19439229Y-9864650D01*
X19439229Y-9864650D02*
X19458277Y-9874174D01*
X19458277Y-9874174D02*
X19467801Y-9893222D01*
X19467801Y-9893222D02*
X19467801Y-9997984D01*
X19467801Y-9893222D02*
X19477325Y-9874174D01*
X19477325Y-9874174D02*
X19496372Y-9864650D01*
X19496372Y-9864650D02*
X19524944Y-9864650D01*
X19524944Y-9864650D02*
X19543991Y-9874174D01*
X19543991Y-9874174D02*
X19553515Y-9893222D01*
X19553515Y-9893222D02*
X19553515Y-9997984D01*
X19943991Y-9788460D02*
X19772563Y-10045603D01*
X20201134Y-9797984D02*
X20220182Y-9797984D01*
X20220182Y-9797984D02*
X20239229Y-9807508D01*
X20239229Y-9807508D02*
X20248753Y-9817031D01*
X20248753Y-9817031D02*
X20258277Y-9836079D01*
X20258277Y-9836079D02*
X20267801Y-9874174D01*
X20267801Y-9874174D02*
X20267801Y-9921793D01*
X20267801Y-9921793D02*
X20258277Y-9959889D01*
X20258277Y-9959889D02*
X20248753Y-9978936D01*
X20248753Y-9978936D02*
X20239229Y-9988460D01*
X20239229Y-9988460D02*
X20220182Y-9997984D01*
X20220182Y-9997984D02*
X20201134Y-9997984D01*
X20201134Y-9997984D02*
X20182087Y-9988460D01*
X20182087Y-9988460D02*
X20172563Y-9978936D01*
X20172563Y-9978936D02*
X20163039Y-9959889D01*
X20163039Y-9959889D02*
X20153515Y-9921793D01*
X20153515Y-9921793D02*
X20153515Y-9874174D01*
X20153515Y-9874174D02*
X20163039Y-9836079D01*
X20163039Y-9836079D02*
X20172563Y-9817031D01*
X20172563Y-9817031D02*
X20182087Y-9807508D01*
X20182087Y-9807508D02*
X20201134Y-9797984D01*
X20353515Y-9978936D02*
X20363039Y-9988460D01*
X20363039Y-9988460D02*
X20353515Y-9997984D01*
X20353515Y-9997984D02*
X20343991Y-9988460D01*
X20343991Y-9988460D02*
X20353515Y-9978936D01*
X20353515Y-9978936D02*
X20353515Y-9997984D01*
X20486848Y-9797984D02*
X20505896Y-9797984D01*
X20505896Y-9797984D02*
X20524944Y-9807508D01*
X20524944Y-9807508D02*
X20534468Y-9817031D01*
X20534468Y-9817031D02*
X20543991Y-9836079D01*
X20543991Y-9836079D02*
X20553515Y-9874174D01*
X20553515Y-9874174D02*
X20553515Y-9921793D01*
X20553515Y-9921793D02*
X20543991Y-9959889D01*
X20543991Y-9959889D02*
X20534468Y-9978936D01*
X20534468Y-9978936D02*
X20524944Y-9988460D01*
X20524944Y-9988460D02*
X20505896Y-9997984D01*
X20505896Y-9997984D02*
X20486848Y-9997984D01*
X20486848Y-9997984D02*
X20467801Y-9988460D01*
X20467801Y-9988460D02*
X20458277Y-9978936D01*
X20458277Y-9978936D02*
X20448753Y-9959889D01*
X20448753Y-9959889D02*
X20439229Y-9921793D01*
X20439229Y-9921793D02*
X20439229Y-9874174D01*
X20439229Y-9874174D02*
X20448753Y-9836079D01*
X20448753Y-9836079D02*
X20458277Y-9817031D01*
X20458277Y-9817031D02*
X20467801Y-9807508D01*
X20467801Y-9807508D02*
X20486848Y-9797984D01*
X20629706Y-9817031D02*
X20639229Y-9807508D01*
X20639229Y-9807508D02*
X20658277Y-9797984D01*
X20658277Y-9797984D02*
X20705896Y-9797984D01*
X20705896Y-9797984D02*
X20724944Y-9807508D01*
X20724944Y-9807508D02*
X20734468Y-9817031D01*
X20734468Y-9817031D02*
X20743991Y-9836079D01*
X20743991Y-9836079D02*
X20743991Y-9855127D01*
X20743991Y-9855127D02*
X20734468Y-9883698D01*
X20734468Y-9883698D02*
X20620182Y-9997984D01*
X20620182Y-9997984D02*
X20743991Y-9997984D01*
X20810658Y-9797984D02*
X20934468Y-9797984D01*
X20934468Y-9797984D02*
X20867801Y-9874174D01*
X20867801Y-9874174D02*
X20896372Y-9874174D01*
X20896372Y-9874174D02*
X20915420Y-9883698D01*
X20915420Y-9883698D02*
X20924944Y-9893222D01*
X20924944Y-9893222D02*
X20934468Y-9912270D01*
X20934468Y-9912270D02*
X20934468Y-9959889D01*
X20934468Y-9959889D02*
X20924944Y-9978936D01*
X20924944Y-9978936D02*
X20915420Y-9988460D01*
X20915420Y-9988460D02*
X20896372Y-9997984D01*
X20896372Y-9997984D02*
X20839229Y-9997984D01*
X20839229Y-9997984D02*
X20820182Y-9988460D01*
X20820182Y-9988460D02*
X20810658Y-9978936D01*
X21105896Y-9797984D02*
X21067801Y-9797984D01*
X21067801Y-9797984D02*
X21048753Y-9807508D01*
X21048753Y-9807508D02*
X21039229Y-9817031D01*
X21039229Y-9817031D02*
X21020182Y-9845603D01*
X21020182Y-9845603D02*
X21010658Y-9883698D01*
X21010658Y-9883698D02*
X21010658Y-9959889D01*
X21010658Y-9959889D02*
X21020182Y-9978936D01*
X21020182Y-9978936D02*
X21029706Y-9988460D01*
X21029706Y-9988460D02*
X21048753Y-9997984D01*
X21048753Y-9997984D02*
X21086849Y-9997984D01*
X21086849Y-9997984D02*
X21105896Y-9988460D01*
X21105896Y-9988460D02*
X21115420Y-9978936D01*
X21115420Y-9978936D02*
X21124944Y-9959889D01*
X21124944Y-9959889D02*
X21124944Y-9912270D01*
X21124944Y-9912270D02*
X21115420Y-9893222D01*
X21115420Y-9893222D02*
X21105896Y-9883698D01*
X21105896Y-9883698D02*
X21086849Y-9874174D01*
X21086849Y-9874174D02*
X21048753Y-9874174D01*
X21048753Y-9874174D02*
X21029706Y-9883698D01*
X21029706Y-9883698D02*
X21020182Y-9893222D01*
X21020182Y-9893222D02*
X21010658Y-9912270D01*
X21201134Y-9797984D02*
X21201134Y-9836079D01*
X21277325Y-9797984D02*
X21277325Y-9836079D01*
X21572563Y-10074174D02*
X21563039Y-10064650D01*
X21563039Y-10064650D02*
X21543991Y-10036079D01*
X21543991Y-10036079D02*
X21534468Y-10017031D01*
X21534468Y-10017031D02*
X21524944Y-9988460D01*
X21524944Y-9988460D02*
X21515420Y-9940841D01*
X21515420Y-9940841D02*
X21515420Y-9902746D01*
X21515420Y-9902746D02*
X21524944Y-9855127D01*
X21524944Y-9855127D02*
X21534468Y-9826555D01*
X21534468Y-9826555D02*
X21543991Y-9807508D01*
X21543991Y-9807508D02*
X21563039Y-9778936D01*
X21563039Y-9778936D02*
X21572563Y-9769412D01*
X21686849Y-9797984D02*
X21705896Y-9797984D01*
X21705896Y-9797984D02*
X21724944Y-9807508D01*
X21724944Y-9807508D02*
X21734468Y-9817031D01*
X21734468Y-9817031D02*
X21743991Y-9836079D01*
X21743991Y-9836079D02*
X21753515Y-9874174D01*
X21753515Y-9874174D02*
X21753515Y-9921793D01*
X21753515Y-9921793D02*
X21743991Y-9959889D01*
X21743991Y-9959889D02*
X21734468Y-9978936D01*
X21734468Y-9978936D02*
X21724944Y-9988460D01*
X21724944Y-9988460D02*
X21705896Y-9997984D01*
X21705896Y-9997984D02*
X21686849Y-9997984D01*
X21686849Y-9997984D02*
X21667801Y-9988460D01*
X21667801Y-9988460D02*
X21658277Y-9978936D01*
X21658277Y-9978936D02*
X21648753Y-9959889D01*
X21648753Y-9959889D02*
X21639230Y-9921793D01*
X21639230Y-9921793D02*
X21639230Y-9874174D01*
X21639230Y-9874174D02*
X21648753Y-9836079D01*
X21648753Y-9836079D02*
X21658277Y-9817031D01*
X21658277Y-9817031D02*
X21667801Y-9807508D01*
X21667801Y-9807508D02*
X21686849Y-9797984D01*
X21991611Y-9997984D02*
X21991611Y-9797984D01*
X22077325Y-9997984D02*
X22077325Y-9893222D01*
X22077325Y-9893222D02*
X22067801Y-9874174D01*
X22067801Y-9874174D02*
X22048753Y-9864650D01*
X22048753Y-9864650D02*
X22020182Y-9864650D01*
X22020182Y-9864650D02*
X22001134Y-9874174D01*
X22001134Y-9874174D02*
X21991611Y-9883698D01*
X22201134Y-9997984D02*
X22182087Y-9988460D01*
X22182087Y-9988460D02*
X22172563Y-9978936D01*
X22172563Y-9978936D02*
X22163039Y-9959889D01*
X22163039Y-9959889D02*
X22163039Y-9902746D01*
X22163039Y-9902746D02*
X22172563Y-9883698D01*
X22172563Y-9883698D02*
X22182087Y-9874174D01*
X22182087Y-9874174D02*
X22201134Y-9864650D01*
X22201134Y-9864650D02*
X22229706Y-9864650D01*
X22229706Y-9864650D02*
X22248753Y-9874174D01*
X22248753Y-9874174D02*
X22258277Y-9883698D01*
X22258277Y-9883698D02*
X22267801Y-9902746D01*
X22267801Y-9902746D02*
X22267801Y-9959889D01*
X22267801Y-9959889D02*
X22258277Y-9978936D01*
X22258277Y-9978936D02*
X22248753Y-9988460D01*
X22248753Y-9988460D02*
X22229706Y-9997984D01*
X22229706Y-9997984D02*
X22201134Y-9997984D01*
X22382087Y-9997984D02*
X22363039Y-9988460D01*
X22363039Y-9988460D02*
X22353515Y-9969412D01*
X22353515Y-9969412D02*
X22353515Y-9797984D01*
X22534468Y-9988460D02*
X22515420Y-9997984D01*
X22515420Y-9997984D02*
X22477325Y-9997984D01*
X22477325Y-9997984D02*
X22458277Y-9988460D01*
X22458277Y-9988460D02*
X22448753Y-9969412D01*
X22448753Y-9969412D02*
X22448753Y-9893222D01*
X22448753Y-9893222D02*
X22458277Y-9874174D01*
X22458277Y-9874174D02*
X22477325Y-9864650D01*
X22477325Y-9864650D02*
X22515420Y-9864650D01*
X22515420Y-9864650D02*
X22534468Y-9874174D01*
X22534468Y-9874174D02*
X22543991Y-9893222D01*
X22543991Y-9893222D02*
X22543991Y-9912270D01*
X22543991Y-9912270D02*
X22448753Y-9931317D01*
X22620182Y-9988460D02*
X22639230Y-9997984D01*
X22639230Y-9997984D02*
X22677325Y-9997984D01*
X22677325Y-9997984D02*
X22696372Y-9988460D01*
X22696372Y-9988460D02*
X22705896Y-9969412D01*
X22705896Y-9969412D02*
X22705896Y-9959889D01*
X22705896Y-9959889D02*
X22696372Y-9940841D01*
X22696372Y-9940841D02*
X22677325Y-9931317D01*
X22677325Y-9931317D02*
X22648753Y-9931317D01*
X22648753Y-9931317D02*
X22629706Y-9921793D01*
X22629706Y-9921793D02*
X22620182Y-9902746D01*
X22620182Y-9902746D02*
X22620182Y-9893222D01*
X22620182Y-9893222D02*
X22629706Y-9874174D01*
X22629706Y-9874174D02*
X22648753Y-9864650D01*
X22648753Y-9864650D02*
X22677325Y-9864650D01*
X22677325Y-9864650D02*
X22696372Y-9874174D01*
X22943992Y-9921793D02*
X23096373Y-9921793D01*
X23020182Y-9997984D02*
X23020182Y-9845603D01*
X23429706Y-9864650D02*
X23429706Y-9997984D01*
X23382087Y-9788460D02*
X23334468Y-9931317D01*
X23334468Y-9931317D02*
X23458277Y-9931317D01*
X23677325Y-9988460D02*
X23696373Y-9997984D01*
X23696373Y-9997984D02*
X23734468Y-9997984D01*
X23734468Y-9997984D02*
X23753515Y-9988460D01*
X23753515Y-9988460D02*
X23763039Y-9969412D01*
X23763039Y-9969412D02*
X23763039Y-9959889D01*
X23763039Y-9959889D02*
X23753515Y-9940841D01*
X23753515Y-9940841D02*
X23734468Y-9931317D01*
X23734468Y-9931317D02*
X23705896Y-9931317D01*
X23705896Y-9931317D02*
X23686849Y-9921793D01*
X23686849Y-9921793D02*
X23677325Y-9902746D01*
X23677325Y-9902746D02*
X23677325Y-9893222D01*
X23677325Y-9893222D02*
X23686849Y-9874174D01*
X23686849Y-9874174D02*
X23705896Y-9864650D01*
X23705896Y-9864650D02*
X23734468Y-9864650D01*
X23734468Y-9864650D02*
X23753515Y-9874174D01*
X23877325Y-9997984D02*
X23858277Y-9988460D01*
X23858277Y-9988460D02*
X23848754Y-9969412D01*
X23848754Y-9969412D02*
X23848754Y-9797984D01*
X23982087Y-9997984D02*
X23963039Y-9988460D01*
X23963039Y-9988460D02*
X23953515Y-9978936D01*
X23953515Y-9978936D02*
X23943992Y-9959889D01*
X23943992Y-9959889D02*
X23943992Y-9902746D01*
X23943992Y-9902746D02*
X23953515Y-9883698D01*
X23953515Y-9883698D02*
X23963039Y-9874174D01*
X23963039Y-9874174D02*
X23982087Y-9864650D01*
X23982087Y-9864650D02*
X24010658Y-9864650D01*
X24010658Y-9864650D02*
X24029706Y-9874174D01*
X24029706Y-9874174D02*
X24039230Y-9883698D01*
X24039230Y-9883698D02*
X24048754Y-9902746D01*
X24048754Y-9902746D02*
X24048754Y-9959889D01*
X24048754Y-9959889D02*
X24039230Y-9978936D01*
X24039230Y-9978936D02*
X24029706Y-9988460D01*
X24029706Y-9988460D02*
X24010658Y-9997984D01*
X24010658Y-9997984D02*
X23982087Y-9997984D01*
X24105896Y-9864650D02*
X24182087Y-9864650D01*
X24134468Y-9797984D02*
X24134468Y-9969412D01*
X24134468Y-9969412D02*
X24143992Y-9988460D01*
X24143992Y-9988460D02*
X24163039Y-9997984D01*
X24163039Y-9997984D02*
X24182087Y-9997984D01*
X24239230Y-9988460D02*
X24258277Y-9997984D01*
X24258277Y-9997984D02*
X24296373Y-9997984D01*
X24296373Y-9997984D02*
X24315420Y-9988460D01*
X24315420Y-9988460D02*
X24324944Y-9969412D01*
X24324944Y-9969412D02*
X24324944Y-9959889D01*
X24324944Y-9959889D02*
X24315420Y-9940841D01*
X24315420Y-9940841D02*
X24296373Y-9931317D01*
X24296373Y-9931317D02*
X24267801Y-9931317D01*
X24267801Y-9931317D02*
X24248754Y-9921793D01*
X24248754Y-9921793D02*
X24239230Y-9902746D01*
X24239230Y-9902746D02*
X24239230Y-9893222D01*
X24239230Y-9893222D02*
X24248754Y-9874174D01*
X24248754Y-9874174D02*
X24267801Y-9864650D01*
X24267801Y-9864650D02*
X24296373Y-9864650D01*
X24296373Y-9864650D02*
X24315420Y-9874174D01*
X24391611Y-10074174D02*
X24401135Y-10064650D01*
X24401135Y-10064650D02*
X24420182Y-10036079D01*
X24420182Y-10036079D02*
X24429706Y-10017031D01*
X24429706Y-10017031D02*
X24439230Y-9988460D01*
X24439230Y-9988460D02*
X24448754Y-9940841D01*
X24448754Y-9940841D02*
X24448754Y-9902746D01*
X24448754Y-9902746D02*
X24439230Y-9855127D01*
X24439230Y-9855127D02*
X24429706Y-9826555D01*
X24429706Y-9826555D02*
X24420182Y-9807508D01*
X24420182Y-9807508D02*
X24401135Y-9778936D01*
X24401135Y-9778936D02*
X24391611Y-9769412D01*
D12*
X17947500Y-10120500D02*
X17947500Y-10220500D01*
X17897500Y-10170500D02*
X17997500Y-10170500D01*
D11*
X18363039Y-10261984D02*
X18248753Y-10261984D01*
X18305896Y-10261984D02*
X18305896Y-10061984D01*
X18305896Y-10061984D02*
X18286848Y-10090555D01*
X18286848Y-10090555D02*
X18267801Y-10109603D01*
X18267801Y-10109603D02*
X18248753Y-10119127D01*
X18448753Y-10242936D02*
X18458277Y-10252460D01*
X18458277Y-10252460D02*
X18448753Y-10261984D01*
X18448753Y-10261984D02*
X18439229Y-10252460D01*
X18439229Y-10252460D02*
X18448753Y-10242936D01*
X18448753Y-10242936D02*
X18448753Y-10261984D01*
X18582086Y-10061984D02*
X18601134Y-10061984D01*
X18601134Y-10061984D02*
X18620182Y-10071508D01*
X18620182Y-10071508D02*
X18629705Y-10081031D01*
X18629705Y-10081031D02*
X18639229Y-10100079D01*
X18639229Y-10100079D02*
X18648753Y-10138174D01*
X18648753Y-10138174D02*
X18648753Y-10185793D01*
X18648753Y-10185793D02*
X18639229Y-10223889D01*
X18639229Y-10223889D02*
X18629705Y-10242936D01*
X18629705Y-10242936D02*
X18620182Y-10252460D01*
X18620182Y-10252460D02*
X18601134Y-10261984D01*
X18601134Y-10261984D02*
X18582086Y-10261984D01*
X18582086Y-10261984D02*
X18563039Y-10252460D01*
X18563039Y-10252460D02*
X18553515Y-10242936D01*
X18553515Y-10242936D02*
X18543991Y-10223889D01*
X18543991Y-10223889D02*
X18534467Y-10185793D01*
X18534467Y-10185793D02*
X18534467Y-10138174D01*
X18534467Y-10138174D02*
X18543991Y-10100079D01*
X18543991Y-10100079D02*
X18553515Y-10081031D01*
X18553515Y-10081031D02*
X18563039Y-10071508D01*
X18563039Y-10071508D02*
X18582086Y-10061984D01*
X18772563Y-10061984D02*
X18791610Y-10061984D01*
X18791610Y-10061984D02*
X18810658Y-10071508D01*
X18810658Y-10071508D02*
X18820182Y-10081031D01*
X18820182Y-10081031D02*
X18829705Y-10100079D01*
X18829705Y-10100079D02*
X18839229Y-10138174D01*
X18839229Y-10138174D02*
X18839229Y-10185793D01*
X18839229Y-10185793D02*
X18829705Y-10223889D01*
X18829705Y-10223889D02*
X18820182Y-10242936D01*
X18820182Y-10242936D02*
X18810658Y-10252460D01*
X18810658Y-10252460D02*
X18791610Y-10261984D01*
X18791610Y-10261984D02*
X18772563Y-10261984D01*
X18772563Y-10261984D02*
X18753515Y-10252460D01*
X18753515Y-10252460D02*
X18743991Y-10242936D01*
X18743991Y-10242936D02*
X18734467Y-10223889D01*
X18734467Y-10223889D02*
X18724944Y-10185793D01*
X18724944Y-10185793D02*
X18724944Y-10138174D01*
X18724944Y-10138174D02*
X18734467Y-10100079D01*
X18734467Y-10100079D02*
X18743991Y-10081031D01*
X18743991Y-10081031D02*
X18753515Y-10071508D01*
X18753515Y-10071508D02*
X18772563Y-10061984D01*
X18963039Y-10061984D02*
X18982086Y-10061984D01*
X18982086Y-10061984D02*
X19001134Y-10071508D01*
X19001134Y-10071508D02*
X19010658Y-10081031D01*
X19010658Y-10081031D02*
X19020182Y-10100079D01*
X19020182Y-10100079D02*
X19029705Y-10138174D01*
X19029705Y-10138174D02*
X19029705Y-10185793D01*
X19029705Y-10185793D02*
X19020182Y-10223889D01*
X19020182Y-10223889D02*
X19010658Y-10242936D01*
X19010658Y-10242936D02*
X19001134Y-10252460D01*
X19001134Y-10252460D02*
X18982086Y-10261984D01*
X18982086Y-10261984D02*
X18963039Y-10261984D01*
X18963039Y-10261984D02*
X18943991Y-10252460D01*
X18943991Y-10252460D02*
X18934467Y-10242936D01*
X18934467Y-10242936D02*
X18924944Y-10223889D01*
X18924944Y-10223889D02*
X18915420Y-10185793D01*
X18915420Y-10185793D02*
X18915420Y-10138174D01*
X18915420Y-10138174D02*
X18924944Y-10100079D01*
X18924944Y-10100079D02*
X18934467Y-10081031D01*
X18934467Y-10081031D02*
X18943991Y-10071508D01*
X18943991Y-10071508D02*
X18963039Y-10061984D01*
X19115420Y-10261984D02*
X19115420Y-10128650D01*
X19115420Y-10147698D02*
X19124944Y-10138174D01*
X19124944Y-10138174D02*
X19143991Y-10128650D01*
X19143991Y-10128650D02*
X19172563Y-10128650D01*
X19172563Y-10128650D02*
X19191610Y-10138174D01*
X19191610Y-10138174D02*
X19201134Y-10157222D01*
X19201134Y-10157222D02*
X19201134Y-10261984D01*
X19201134Y-10157222D02*
X19210658Y-10138174D01*
X19210658Y-10138174D02*
X19229705Y-10128650D01*
X19229705Y-10128650D02*
X19258277Y-10128650D01*
X19258277Y-10128650D02*
X19277325Y-10138174D01*
X19277325Y-10138174D02*
X19286848Y-10157222D01*
X19286848Y-10157222D02*
X19286848Y-10261984D01*
X19382086Y-10261984D02*
X19382086Y-10128650D01*
X19382086Y-10147698D02*
X19391610Y-10138174D01*
X19391610Y-10138174D02*
X19410658Y-10128650D01*
X19410658Y-10128650D02*
X19439229Y-10128650D01*
X19439229Y-10128650D02*
X19458277Y-10138174D01*
X19458277Y-10138174D02*
X19467801Y-10157222D01*
X19467801Y-10157222D02*
X19467801Y-10261984D01*
X19467801Y-10157222D02*
X19477325Y-10138174D01*
X19477325Y-10138174D02*
X19496372Y-10128650D01*
X19496372Y-10128650D02*
X19524944Y-10128650D01*
X19524944Y-10128650D02*
X19543991Y-10138174D01*
X19543991Y-10138174D02*
X19553515Y-10157222D01*
X19553515Y-10157222D02*
X19553515Y-10261984D01*
X19943991Y-10052460D02*
X19772563Y-10309603D01*
X20201134Y-10061984D02*
X20220182Y-10061984D01*
X20220182Y-10061984D02*
X20239229Y-10071508D01*
X20239229Y-10071508D02*
X20248753Y-10081031D01*
X20248753Y-10081031D02*
X20258277Y-10100079D01*
X20258277Y-10100079D02*
X20267801Y-10138174D01*
X20267801Y-10138174D02*
X20267801Y-10185793D01*
X20267801Y-10185793D02*
X20258277Y-10223889D01*
X20258277Y-10223889D02*
X20248753Y-10242936D01*
X20248753Y-10242936D02*
X20239229Y-10252460D01*
X20239229Y-10252460D02*
X20220182Y-10261984D01*
X20220182Y-10261984D02*
X20201134Y-10261984D01*
X20201134Y-10261984D02*
X20182087Y-10252460D01*
X20182087Y-10252460D02*
X20172563Y-10242936D01*
X20172563Y-10242936D02*
X20163039Y-10223889D01*
X20163039Y-10223889D02*
X20153515Y-10185793D01*
X20153515Y-10185793D02*
X20153515Y-10138174D01*
X20153515Y-10138174D02*
X20163039Y-10100079D01*
X20163039Y-10100079D02*
X20172563Y-10081031D01*
X20172563Y-10081031D02*
X20182087Y-10071508D01*
X20182087Y-10071508D02*
X20201134Y-10061984D01*
X20353515Y-10242936D02*
X20363039Y-10252460D01*
X20363039Y-10252460D02*
X20353515Y-10261984D01*
X20353515Y-10261984D02*
X20343991Y-10252460D01*
X20343991Y-10252460D02*
X20353515Y-10242936D01*
X20353515Y-10242936D02*
X20353515Y-10261984D01*
X20486848Y-10061984D02*
X20505896Y-10061984D01*
X20505896Y-10061984D02*
X20524944Y-10071508D01*
X20524944Y-10071508D02*
X20534468Y-10081031D01*
X20534468Y-10081031D02*
X20543991Y-10100079D01*
X20543991Y-10100079D02*
X20553515Y-10138174D01*
X20553515Y-10138174D02*
X20553515Y-10185793D01*
X20553515Y-10185793D02*
X20543991Y-10223889D01*
X20543991Y-10223889D02*
X20534468Y-10242936D01*
X20534468Y-10242936D02*
X20524944Y-10252460D01*
X20524944Y-10252460D02*
X20505896Y-10261984D01*
X20505896Y-10261984D02*
X20486848Y-10261984D01*
X20486848Y-10261984D02*
X20467801Y-10252460D01*
X20467801Y-10252460D02*
X20458277Y-10242936D01*
X20458277Y-10242936D02*
X20448753Y-10223889D01*
X20448753Y-10223889D02*
X20439229Y-10185793D01*
X20439229Y-10185793D02*
X20439229Y-10138174D01*
X20439229Y-10138174D02*
X20448753Y-10100079D01*
X20448753Y-10100079D02*
X20458277Y-10081031D01*
X20458277Y-10081031D02*
X20467801Y-10071508D01*
X20467801Y-10071508D02*
X20486848Y-10061984D01*
X20620182Y-10061984D02*
X20743991Y-10061984D01*
X20743991Y-10061984D02*
X20677325Y-10138174D01*
X20677325Y-10138174D02*
X20705896Y-10138174D01*
X20705896Y-10138174D02*
X20724944Y-10147698D01*
X20724944Y-10147698D02*
X20734468Y-10157222D01*
X20734468Y-10157222D02*
X20743991Y-10176270D01*
X20743991Y-10176270D02*
X20743991Y-10223889D01*
X20743991Y-10223889D02*
X20734468Y-10242936D01*
X20734468Y-10242936D02*
X20724944Y-10252460D01*
X20724944Y-10252460D02*
X20705896Y-10261984D01*
X20705896Y-10261984D02*
X20648753Y-10261984D01*
X20648753Y-10261984D02*
X20629706Y-10252460D01*
X20629706Y-10252460D02*
X20620182Y-10242936D01*
X20839229Y-10261984D02*
X20877325Y-10261984D01*
X20877325Y-10261984D02*
X20896372Y-10252460D01*
X20896372Y-10252460D02*
X20905896Y-10242936D01*
X20905896Y-10242936D02*
X20924944Y-10214365D01*
X20924944Y-10214365D02*
X20934468Y-10176270D01*
X20934468Y-10176270D02*
X20934468Y-10100079D01*
X20934468Y-10100079D02*
X20924944Y-10081031D01*
X20924944Y-10081031D02*
X20915420Y-10071508D01*
X20915420Y-10071508D02*
X20896372Y-10061984D01*
X20896372Y-10061984D02*
X20858277Y-10061984D01*
X20858277Y-10061984D02*
X20839229Y-10071508D01*
X20839229Y-10071508D02*
X20829706Y-10081031D01*
X20829706Y-10081031D02*
X20820182Y-10100079D01*
X20820182Y-10100079D02*
X20820182Y-10147698D01*
X20820182Y-10147698D02*
X20829706Y-10166746D01*
X20829706Y-10166746D02*
X20839229Y-10176270D01*
X20839229Y-10176270D02*
X20858277Y-10185793D01*
X20858277Y-10185793D02*
X20896372Y-10185793D01*
X20896372Y-10185793D02*
X20915420Y-10176270D01*
X20915420Y-10176270D02*
X20924944Y-10166746D01*
X20924944Y-10166746D02*
X20934468Y-10147698D01*
X21105896Y-10128650D02*
X21105896Y-10261984D01*
X21058277Y-10052460D02*
X21010658Y-10195317D01*
X21010658Y-10195317D02*
X21134468Y-10195317D01*
X21201134Y-10061984D02*
X21201134Y-10100079D01*
X21277325Y-10061984D02*
X21277325Y-10100079D01*
X21572563Y-10338174D02*
X21563039Y-10328650D01*
X21563039Y-10328650D02*
X21543991Y-10300079D01*
X21543991Y-10300079D02*
X21534468Y-10281031D01*
X21534468Y-10281031D02*
X21524944Y-10252460D01*
X21524944Y-10252460D02*
X21515420Y-10204841D01*
X21515420Y-10204841D02*
X21515420Y-10166746D01*
X21515420Y-10166746D02*
X21524944Y-10119127D01*
X21524944Y-10119127D02*
X21534468Y-10090555D01*
X21534468Y-10090555D02*
X21543991Y-10071508D01*
X21543991Y-10071508D02*
X21563039Y-10042936D01*
X21563039Y-10042936D02*
X21572563Y-10033412D01*
X21639230Y-10081031D02*
X21648753Y-10071508D01*
X21648753Y-10071508D02*
X21667801Y-10061984D01*
X21667801Y-10061984D02*
X21715420Y-10061984D01*
X21715420Y-10061984D02*
X21734468Y-10071508D01*
X21734468Y-10071508D02*
X21743991Y-10081031D01*
X21743991Y-10081031D02*
X21753515Y-10100079D01*
X21753515Y-10100079D02*
X21753515Y-10119127D01*
X21753515Y-10119127D02*
X21743991Y-10147698D01*
X21743991Y-10147698D02*
X21629706Y-10261984D01*
X21629706Y-10261984D02*
X21753515Y-10261984D01*
X21924944Y-10128650D02*
X21924944Y-10261984D01*
X21877325Y-10052460D02*
X21829706Y-10195317D01*
X21829706Y-10195317D02*
X21953515Y-10195317D01*
X22182087Y-10261984D02*
X22182087Y-10061984D01*
X22267801Y-10261984D02*
X22267801Y-10157222D01*
X22267801Y-10157222D02*
X22258277Y-10138174D01*
X22258277Y-10138174D02*
X22239230Y-10128650D01*
X22239230Y-10128650D02*
X22210658Y-10128650D01*
X22210658Y-10128650D02*
X22191611Y-10138174D01*
X22191611Y-10138174D02*
X22182087Y-10147698D01*
X22391610Y-10261984D02*
X22372563Y-10252460D01*
X22372563Y-10252460D02*
X22363039Y-10242936D01*
X22363039Y-10242936D02*
X22353515Y-10223889D01*
X22353515Y-10223889D02*
X22353515Y-10166746D01*
X22353515Y-10166746D02*
X22363039Y-10147698D01*
X22363039Y-10147698D02*
X22372563Y-10138174D01*
X22372563Y-10138174D02*
X22391610Y-10128650D01*
X22391610Y-10128650D02*
X22420182Y-10128650D01*
X22420182Y-10128650D02*
X22439230Y-10138174D01*
X22439230Y-10138174D02*
X22448753Y-10147698D01*
X22448753Y-10147698D02*
X22458277Y-10166746D01*
X22458277Y-10166746D02*
X22458277Y-10223889D01*
X22458277Y-10223889D02*
X22448753Y-10242936D01*
X22448753Y-10242936D02*
X22439230Y-10252460D01*
X22439230Y-10252460D02*
X22420182Y-10261984D01*
X22420182Y-10261984D02*
X22391610Y-10261984D01*
X22572563Y-10261984D02*
X22553515Y-10252460D01*
X22553515Y-10252460D02*
X22543991Y-10233412D01*
X22543991Y-10233412D02*
X22543991Y-10061984D01*
X22724944Y-10252460D02*
X22705896Y-10261984D01*
X22705896Y-10261984D02*
X22667801Y-10261984D01*
X22667801Y-10261984D02*
X22648753Y-10252460D01*
X22648753Y-10252460D02*
X22639230Y-10233412D01*
X22639230Y-10233412D02*
X22639230Y-10157222D01*
X22639230Y-10157222D02*
X22648753Y-10138174D01*
X22648753Y-10138174D02*
X22667801Y-10128650D01*
X22667801Y-10128650D02*
X22705896Y-10128650D01*
X22705896Y-10128650D02*
X22724944Y-10138174D01*
X22724944Y-10138174D02*
X22734468Y-10157222D01*
X22734468Y-10157222D02*
X22734468Y-10176270D01*
X22734468Y-10176270D02*
X22639230Y-10195317D01*
X22810658Y-10252460D02*
X22829706Y-10261984D01*
X22829706Y-10261984D02*
X22867801Y-10261984D01*
X22867801Y-10261984D02*
X22886849Y-10252460D01*
X22886849Y-10252460D02*
X22896372Y-10233412D01*
X22896372Y-10233412D02*
X22896372Y-10223889D01*
X22896372Y-10223889D02*
X22886849Y-10204841D01*
X22886849Y-10204841D02*
X22867801Y-10195317D01*
X22867801Y-10195317D02*
X22839230Y-10195317D01*
X22839230Y-10195317D02*
X22820182Y-10185793D01*
X22820182Y-10185793D02*
X22810658Y-10166746D01*
X22810658Y-10166746D02*
X22810658Y-10157222D01*
X22810658Y-10157222D02*
X22820182Y-10138174D01*
X22820182Y-10138174D02*
X22839230Y-10128650D01*
X22839230Y-10128650D02*
X22867801Y-10128650D01*
X22867801Y-10128650D02*
X22886849Y-10138174D01*
X22963039Y-10338174D02*
X22972563Y-10328650D01*
X22972563Y-10328650D02*
X22991611Y-10300079D01*
X22991611Y-10300079D02*
X23001134Y-10281031D01*
X23001134Y-10281031D02*
X23010658Y-10252460D01*
X23010658Y-10252460D02*
X23020182Y-10204841D01*
X23020182Y-10204841D02*
X23020182Y-10166746D01*
X23020182Y-10166746D02*
X23010658Y-10119127D01*
X23010658Y-10119127D02*
X23001134Y-10090555D01*
X23001134Y-10090555D02*
X22991611Y-10071508D01*
X22991611Y-10071508D02*
X22972563Y-10042936D01*
X22972563Y-10042936D02*
X22963039Y-10033412D01*
M02*
