%TF.GenerationSoftware,KiCad,Pcbnew,9.0.3*%
%TF.CreationDate,2025-08-28T21:01:50-07:00*%
%TF.ProjectId,xyp-gpib,7879702d-6770-4696-922e-6b696361645f,rev?*%
%TF.SameCoordinates,Original*%
%TF.FileFunction,Copper,L4,Bot*%
%TF.FilePolarity,Positive*%
%FSLAX46Y46*%
G04 Gerber Fmt 4.6, Leading zero omitted, Abs format (unit mm)*
G04 Created by KiCad (PCBNEW 9.0.3) date 2025-08-28 21:01:50*
%MOMM*%
%LPD*%
G01*
G04 APERTURE LIST*
G04 Aperture macros list*
%AMFreePoly0*
4,1,19,0.500000,0.418198,1.081873,0.418198,1.140652,0.399100,1.176979,0.349100,1.176979,0.287296,1.152584,0.247487,-0.883883,-1.788980,-0.938952,-1.817038,-0.999993,-1.807370,-1.043695,-1.763668,-1.054594,-1.718269,-1.054595,0.318198,-1.035496,0.376977,-0.985496,0.413304,-0.954594,0.418199,-0.500000,0.418198,-0.500000,0.500000,0.500000,0.500000,0.500000,0.418198,0.500000,0.418198,
$1*%
%AMFreePoly1*
4,1,23,0.500000,0.418198,0.954594,0.418199,1.013373,0.399100,1.049700,0.349100,1.054595,0.318198,1.054594,-2.100106,1.035496,-2.158886,1.025305,-2.170818,0.007071,-3.189052,-0.047997,-3.217110,-0.109039,-3.207442,-0.134351,-3.189052,-1.152584,-2.170818,-1.180642,-2.115750,-1.181873,-2.100106,-1.181872,0.318198,-1.162775,0.376977,-1.112775,0.413304,-1.081873,0.418198,-0.500000,0.418198,
-0.500000,0.500000,0.500000,0.500000,0.500000,0.418198,0.500000,0.418198,$1*%
%AMFreePoly2*
4,1,19,0.500000,0.418198,0.954594,0.418199,1.013373,0.399100,1.049700,0.349100,1.054595,0.318198,1.054594,-1.718269,1.035496,-1.777048,0.985496,-1.813375,0.923692,-1.813375,0.883883,-1.788980,-1.152584,0.247487,-1.180642,0.302555,-1.170974,0.363597,-1.127272,0.407299,-1.081873,0.418198,-0.500000,0.418198,-0.500000,0.500000,0.500000,0.500000,0.500000,0.418198,0.500000,0.418198,
$1*%
G04 Aperture macros list end*
%TA.AperFunction,SMDPad,CuDef*%
%ADD10FreePoly0,315.000000*%
%TD*%
%TA.AperFunction,SMDPad,CuDef*%
%ADD11FreePoly1,315.000000*%
%TD*%
%TA.AperFunction,SMDPad,CuDef*%
%ADD12FreePoly2,315.000000*%
%TD*%
%TA.AperFunction,ComponentPad*%
%ADD13O,2.100000X1.000000*%
%TD*%
%TA.AperFunction,ComponentPad*%
%ADD14O,1.600000X1.000000*%
%TD*%
%TA.AperFunction,ComponentPad*%
%ADD15R,1.500000X2.000000*%
%TD*%
%TA.AperFunction,ComponentPad*%
%ADD16O,1.500000X2.000000*%
%TD*%
%TA.AperFunction,ViaPad*%
%ADD17C,0.600000*%
%TD*%
%TA.AperFunction,Conductor*%
%ADD18C,0.250000*%
%TD*%
%TA.AperFunction,Conductor*%
%ADD19C,0.300000*%
%TD*%
%TA.AperFunction,Conductor*%
%ADD20C,0.150000*%
%TD*%
%TA.AperFunction,Conductor*%
%ADD21C,0.220000*%
%TD*%
G04 APERTURE END LIST*
D10*
%TO.P,ISP1,2,VCC*%
%TO.N,+5V*%
X184121200Y-89210800D03*
D11*
%TO.P,ISP1,4,MOSI*%
%TO.N,/MOSI*%
X182501200Y-87590800D03*
D12*
%TO.P,ISP1,6,GND*%
%TO.N,GND*%
X180791200Y-85880800D03*
%TD*%
D13*
%TO.P,J1,S1,SHIELD*%
%TO.N,GND*%
X227336200Y-86916800D03*
D14*
X231516200Y-86916800D03*
D13*
X227336200Y-78276800D03*
D14*
X231516200Y-78276800D03*
%TD*%
D15*
%TO.P,GPIB1,1,1*%
%TO.N,/DIO5*%
X218194000Y-84695000D03*
D16*
%TO.P,GPIB1,2,2*%
%TO.N,/DIO1*%
X218194000Y-80405000D03*
%TO.P,GPIB1,3,3*%
%TO.N,/DIO6*%
X216034000Y-84695000D03*
%TO.P,GPIB1,4,4*%
%TO.N,/DIO2*%
X216034000Y-80405000D03*
%TO.P,GPIB1,5,5*%
%TO.N,/DIO7*%
X213874000Y-84695000D03*
%TO.P,GPIB1,6,6*%
%TO.N,/DIO3*%
X213874000Y-80405000D03*
%TO.P,GPIB1,7,7*%
%TO.N,/DIO8*%
X211714000Y-84695000D03*
%TO.P,GPIB1,8,8*%
%TO.N,/DIO4*%
X211714000Y-80405000D03*
%TO.P,GPIB1,9,9*%
%TO.N,/REN*%
X209554000Y-84695000D03*
%TO.P,GPIB1,10,10*%
%TO.N,/EOI*%
X209554000Y-80405000D03*
%TO.P,GPIB1,11,11*%
%TO.N,GND*%
X207394000Y-84695000D03*
%TO.P,GPIB1,12,12*%
%TO.N,/DAV*%
X207394000Y-80405000D03*
%TO.P,GPIB1,13,13*%
%TO.N,GND*%
X205234000Y-84695000D03*
%TO.P,GPIB1,14,14*%
%TO.N,/NRFD*%
X205234000Y-80405000D03*
%TO.P,GPIB1,15,15*%
%TO.N,GND*%
X203074000Y-84695000D03*
%TO.P,GPIB1,16,16*%
%TO.N,/NDAC*%
X203074000Y-80405000D03*
%TO.P,GPIB1,17,17*%
%TO.N,GND*%
X200914000Y-84695000D03*
%TO.P,GPIB1,18,18*%
%TO.N,/IFC*%
X200914000Y-80405000D03*
%TO.P,GPIB1,19,19*%
%TO.N,GND*%
X198754000Y-84695000D03*
%TO.P,GPIB1,20,20*%
%TO.N,/SRQ*%
X198754000Y-80405000D03*
%TO.P,GPIB1,21,21*%
%TO.N,GND*%
X196594000Y-84695000D03*
%TO.P,GPIB1,22,22*%
%TO.N,/ATN*%
X196594000Y-80405000D03*
%TO.P,GPIB1,23,23*%
%TO.N,GND*%
X194434000Y-84695000D03*
%TO.P,GPIB1,24,24*%
X194434000Y-80405000D03*
%TD*%
D17*
%TO.N,GND*%
X183303000Y-80846000D03*
X186849000Y-80931000D03*
X186953000Y-76546000D03*
X188849000Y-82931000D03*
X190849000Y-84931000D03*
X181003000Y-83896000D03*
X198853000Y-76096000D03*
X191803000Y-76314000D03*
X188849000Y-82931000D03*
X196803000Y-76296000D03*
X201253000Y-77096000D03*
X225853000Y-78896000D03*
X185706024Y-87186005D03*
X225753000Y-85696000D03*
X186849000Y-84931000D03*
X188849000Y-82931000D03*
X193453000Y-76314000D03*
X188849000Y-82931000D03*
X188849000Y-82931000D03*
X205153000Y-76096000D03*
X190849000Y-80931000D03*
X220349000Y-81681000D03*
X221853000Y-77696000D03*
X189453000Y-76896000D03*
X214103000Y-82546000D03*
X182153000Y-83796000D03*
X188849000Y-82931000D03*
%TO.N,+5V*%
X184003000Y-76246000D03*
X216349000Y-89181000D03*
X192703000Y-79746000D03*
X225653000Y-79696000D03*
X213253000Y-76096000D03*
X197099000Y-83181000D03*
X225653000Y-84596000D03*
X204253000Y-76096000D03*
X213599000Y-87431000D03*
X193153000Y-85946000D03*
X188053000Y-78346000D03*
X186847259Y-87246536D03*
X184553000Y-81496000D03*
%TO.N,/EOI*%
X209610200Y-86833200D03*
%TO.N,/DIO4*%
X184553000Y-86546000D03*
%TO.N,/DIO3*%
X183728000Y-86046000D03*
%TO.N,/DIO6*%
X185511500Y-86187500D03*
%TO.N,/DIO2*%
X184403000Y-84046000D03*
%TO.N,/DIO1*%
X184393771Y-83279234D03*
%TO.N,/MOSI*%
X186053000Y-76096000D03*
X219653000Y-80896000D03*
X186353000Y-78396000D03*
%TO.N,Net-(D1-A)*%
X197903000Y-82496000D03*
X195053000Y-82496000D03*
%TO.N,/SCK*%
X182153000Y-85796000D03*
X187253000Y-78396000D03*
%TO.N,/MISO*%
X183903000Y-87696000D03*
X185803000Y-79596000D03*
%TO.N,/Db+*%
X199303000Y-77521000D03*
X190083000Y-78074055D03*
%TO.N,/Db-*%
X189333000Y-78074055D03*
X199303000Y-76771000D03*
%TO.N,Net-(D2-A)*%
X206603000Y-82546000D03*
X193253000Y-81946000D03*
%TD*%
D18*
%TO.N,GND*%
X180791200Y-85880800D02*
X180791200Y-84107800D01*
X180791200Y-84107800D02*
X181003000Y-83896000D01*
D19*
%TO.N,+5V*%
X184121200Y-89210800D02*
X184138200Y-89210800D01*
X184138200Y-89210800D02*
X185153000Y-88196000D01*
D20*
%TO.N,/NRFD*%
X205234000Y-80727000D02*
X205234000Y-80405000D01*
%TO.N,/EOI*%
X210530000Y-86019000D02*
X209715800Y-86833200D01*
X209715800Y-86833200D02*
X209610200Y-86833200D01*
X209554000Y-80405000D02*
X210530000Y-81381000D01*
X210530000Y-81381000D02*
X210530000Y-86019000D01*
%TO.N,/DIO4*%
X212753000Y-81444000D02*
X211714000Y-80405000D01*
X184553000Y-86546000D02*
X184553000Y-86271000D01*
X184553000Y-86271000D02*
X185278000Y-85546000D01*
X188003000Y-85546000D02*
X190279000Y-87822000D01*
X211227000Y-87822000D02*
X212753000Y-86296000D01*
X212753000Y-86296000D02*
X212753000Y-81444000D01*
X190279000Y-87822000D02*
X211227000Y-87822000D01*
X185278000Y-85546000D02*
X188003000Y-85546000D01*
%TO.N,/DIO3*%
X184828000Y-84946000D02*
X185853000Y-84946000D01*
X185853000Y-84946000D02*
X191753000Y-79046000D01*
X191753000Y-79046000D02*
X212515000Y-79046000D01*
X183728000Y-86046000D02*
X184828000Y-84946000D01*
X212515000Y-79046000D02*
X213874000Y-80405000D01*
%TO.N,/DIO6*%
X214503000Y-88296000D02*
X216034000Y-86765000D01*
X187894500Y-86187500D02*
X190003000Y-88296000D01*
X185511500Y-86187500D02*
X187894500Y-86187500D01*
X216034000Y-86765000D02*
X216034000Y-84695000D01*
X190003000Y-88296000D02*
X214503000Y-88296000D01*
%TO.N,/DIO2*%
X191353000Y-78546000D02*
X214175000Y-78546000D01*
X184403000Y-84046000D02*
X185853000Y-84046000D01*
X214175000Y-78546000D02*
X216034000Y-80405000D01*
X185853000Y-84046000D02*
X191353000Y-78546000D01*
%TO.N,/DIO1*%
X185769766Y-83279234D02*
X191003000Y-78046000D01*
X191003000Y-78046000D02*
X215835000Y-78046000D01*
X184393771Y-83279234D02*
X185769766Y-83279234D01*
X215835000Y-78046000D02*
X218194000Y-80405000D01*
%TO.N,/MOSI*%
X182679000Y-86396000D02*
X182145600Y-86929400D01*
X219653000Y-80896000D02*
X219653000Y-80233728D01*
X182679000Y-80070000D02*
X182679000Y-86396000D01*
X188953000Y-75496000D02*
X188753000Y-75696000D01*
X188753000Y-75696000D02*
X186453000Y-75696000D01*
X186453000Y-75696000D02*
X186053000Y-76096000D01*
X214915272Y-75496000D02*
X188953000Y-75496000D01*
X184353000Y-78396000D02*
X182679000Y-80070000D01*
X219653000Y-80233728D02*
X214915272Y-75496000D01*
X186353000Y-78396000D02*
X184353000Y-78396000D01*
%TO.N,Net-(D1-A)*%
X195053000Y-82496000D02*
X197903000Y-82496000D01*
%TO.N,/SCK*%
X181553000Y-85196000D02*
X182153000Y-85796000D01*
X186703000Y-77846000D02*
X183903000Y-77846000D01*
X187253000Y-78396000D02*
X186703000Y-77846000D01*
X181553000Y-80196000D02*
X181553000Y-85196000D01*
X183903000Y-77846000D02*
X181553000Y-80196000D01*
%TO.N,/MISO*%
X183153000Y-85596000D02*
X183153000Y-86946000D01*
X185803000Y-81046000D02*
X183803000Y-83046000D01*
X185803000Y-79596000D02*
X185803000Y-81046000D01*
X183803000Y-83046000D02*
X183803000Y-84946000D01*
X183153000Y-86946000D02*
X183903000Y-87696000D01*
X183803000Y-84946000D02*
X183153000Y-85596000D01*
D21*
%TO.N,/Db+*%
X190083000Y-78074055D02*
X190083000Y-77847315D01*
X199113000Y-77331000D02*
X199303000Y-77521000D01*
X190083000Y-77847315D02*
X190599315Y-77331000D01*
X190599315Y-77331000D02*
X199113000Y-77331000D01*
%TO.N,/Db-*%
X199113000Y-76961000D02*
X199303000Y-76771000D01*
X190402681Y-76961000D02*
X199113000Y-76961000D01*
X189522000Y-77841681D02*
X190402681Y-76961000D01*
X189333000Y-78074055D02*
X189522000Y-77885055D01*
X189522000Y-77885055D02*
X189522000Y-77841681D01*
D20*
%TO.N,Net-(D2-A)*%
X206603000Y-82546000D02*
X206003000Y-81946000D01*
X206003000Y-81946000D02*
X193253000Y-81946000D01*
%TD*%
%TA.AperFunction,Conductor*%
%TO.N,+5V*%
G36*
X233004842Y-75300976D02*
G01*
X233126764Y-75312985D01*
X233145794Y-75316770D01*
X233219273Y-75339059D01*
X233258354Y-75350915D01*
X233276285Y-75358342D01*
X233380022Y-75413791D01*
X233396158Y-75424573D01*
X233487083Y-75499193D01*
X233500806Y-75512916D01*
X233575426Y-75603841D01*
X233586208Y-75619977D01*
X233641657Y-75723714D01*
X233649084Y-75741645D01*
X233683228Y-75854203D01*
X233687014Y-75873237D01*
X233699023Y-75995157D01*
X233699500Y-76004861D01*
X233699500Y-88995138D01*
X233699023Y-89004842D01*
X233687014Y-89126762D01*
X233683228Y-89145796D01*
X233649084Y-89258354D01*
X233641657Y-89276285D01*
X233586208Y-89380022D01*
X233575426Y-89396158D01*
X233500806Y-89487083D01*
X233487083Y-89500806D01*
X233396158Y-89575426D01*
X233380022Y-89586208D01*
X233276285Y-89641657D01*
X233258354Y-89649084D01*
X233145796Y-89683228D01*
X233126763Y-89687014D01*
X233020719Y-89697459D01*
X233004841Y-89699023D01*
X232995139Y-89699500D01*
X185539869Y-89699500D01*
X185481678Y-89680593D01*
X185445714Y-89631093D01*
X185444586Y-89627374D01*
X185442113Y-89618609D01*
X185442112Y-89618604D01*
X185412655Y-89560791D01*
X185412654Y-89560789D01*
X185365755Y-89496239D01*
X185105284Y-89235767D01*
X185078190Y-89185079D01*
X185063894Y-89113214D01*
X185063894Y-89113212D01*
X185008618Y-89030488D01*
X185008615Y-89030484D01*
X184301515Y-88323384D01*
X184301511Y-88323381D01*
X184210676Y-88262686D01*
X184212715Y-88259633D01*
X184179733Y-88231463D01*
X184165450Y-88171968D01*
X184188865Y-88115440D01*
X184205836Y-88101326D01*
X184205165Y-88100451D01*
X184210308Y-88096503D01*
X184210314Y-88096500D01*
X184303500Y-88003314D01*
X184333073Y-87952093D01*
X184369390Y-87889190D01*
X184369390Y-87889188D01*
X184369392Y-87889186D01*
X184403500Y-87761892D01*
X184403500Y-87630108D01*
X184369392Y-87502814D01*
X184369390Y-87502811D01*
X184369390Y-87502809D01*
X184303503Y-87388690D01*
X184303501Y-87388688D01*
X184303500Y-87388686D01*
X184210314Y-87295500D01*
X184210311Y-87295498D01*
X184210309Y-87295496D01*
X184096189Y-87229609D01*
X184096191Y-87229609D01*
X184046799Y-87216375D01*
X183968892Y-87195500D01*
X183837108Y-87195500D01*
X183833124Y-87195500D01*
X183774933Y-87176593D01*
X183763120Y-87166504D01*
X183457496Y-86860880D01*
X183453869Y-86853762D01*
X183447407Y-86849067D01*
X183440243Y-86827018D01*
X183429719Y-86806363D01*
X183428500Y-86790876D01*
X183428500Y-86612924D01*
X183447407Y-86554733D01*
X183496907Y-86518769D01*
X183553120Y-86517297D01*
X183662108Y-86546500D01*
X183662110Y-86546500D01*
X183793890Y-86546500D01*
X183793892Y-86546500D01*
X183921186Y-86512392D01*
X183921187Y-86512391D01*
X183927454Y-86510712D01*
X183928263Y-86513731D01*
X183976458Y-86509862D01*
X184028678Y-86541748D01*
X184052182Y-86598239D01*
X184052500Y-86606163D01*
X184052500Y-86611892D01*
X184081364Y-86719614D01*
X184086609Y-86739190D01*
X184152496Y-86853309D01*
X184152498Y-86853311D01*
X184152500Y-86853314D01*
X184245686Y-86946500D01*
X184245688Y-86946501D01*
X184245690Y-86946503D01*
X184359810Y-87012390D01*
X184359808Y-87012390D01*
X184359812Y-87012391D01*
X184359814Y-87012392D01*
X184487108Y-87046500D01*
X184487110Y-87046500D01*
X184618890Y-87046500D01*
X184618892Y-87046500D01*
X184746186Y-87012392D01*
X184746188Y-87012390D01*
X184746190Y-87012390D01*
X184860309Y-86946503D01*
X184860309Y-86946502D01*
X184860314Y-86946500D01*
X184953500Y-86853314D01*
X184956679Y-86847808D01*
X185019390Y-86739190D01*
X185019390Y-86739188D01*
X185019392Y-86739186D01*
X185046161Y-86639281D01*
X185079484Y-86587969D01*
X185136605Y-86566042D01*
X185190005Y-86578442D01*
X185200456Y-86584270D01*
X185204186Y-86588000D01*
X185318314Y-86653892D01*
X185331759Y-86657494D01*
X185342485Y-86663476D01*
X185355342Y-86677334D01*
X185371199Y-86687630D01*
X185375651Y-86699225D01*
X185384099Y-86708331D01*
X185386354Y-86727100D01*
X185393131Y-86744749D01*
X185389917Y-86756747D01*
X185391399Y-86769080D01*
X185382190Y-86785591D01*
X185377300Y-86803851D01*
X185364271Y-86819943D01*
X185305524Y-86878690D01*
X185305520Y-86878695D01*
X185239633Y-86992814D01*
X185239632Y-86992819D01*
X185205524Y-87120113D01*
X185205524Y-87251897D01*
X185218303Y-87299590D01*
X185239633Y-87379195D01*
X185305520Y-87493314D01*
X185305522Y-87493316D01*
X185305524Y-87493319D01*
X185398710Y-87586505D01*
X185398712Y-87586506D01*
X185398714Y-87586508D01*
X185512834Y-87652395D01*
X185512832Y-87652395D01*
X185512836Y-87652396D01*
X185512838Y-87652397D01*
X185640132Y-87686505D01*
X185640134Y-87686505D01*
X185771914Y-87686505D01*
X185771916Y-87686505D01*
X185899210Y-87652397D01*
X185899212Y-87652395D01*
X185899214Y-87652395D01*
X186013333Y-87586508D01*
X186013333Y-87586507D01*
X186013338Y-87586505D01*
X186106524Y-87493319D01*
X186172416Y-87379191D01*
X186206524Y-87251897D01*
X186206524Y-87120113D01*
X186172416Y-86992819D01*
X186172414Y-86992816D01*
X186172414Y-86992814D01*
X186106527Y-86878695D01*
X186106525Y-86878693D01*
X186106524Y-86878691D01*
X186013338Y-86785505D01*
X186013335Y-86785503D01*
X186013333Y-86785501D01*
X185899213Y-86719614D01*
X185899210Y-86719613D01*
X185897633Y-86719190D01*
X185896652Y-86718553D01*
X185893218Y-86717131D01*
X185893481Y-86716494D01*
X185888759Y-86713428D01*
X185878310Y-86711773D01*
X185863675Y-86697138D01*
X185846319Y-86685867D01*
X185842527Y-86675989D01*
X185835046Y-86668508D01*
X185831808Y-86648066D01*
X185824392Y-86628746D01*
X185827130Y-86618526D01*
X185825475Y-86608076D01*
X185834870Y-86589636D01*
X185840227Y-86569645D01*
X185853248Y-86553565D01*
X185912000Y-86494814D01*
X185912000Y-86494813D01*
X185914818Y-86491996D01*
X185969335Y-86464219D01*
X185984821Y-86463000D01*
X187739377Y-86463000D01*
X187797568Y-86481907D01*
X187809380Y-86491995D01*
X189846941Y-88529557D01*
X189876595Y-88541839D01*
X189876597Y-88541841D01*
X189876598Y-88541841D01*
X189912399Y-88556670D01*
X189948200Y-88571500D01*
X189948201Y-88571500D01*
X214557799Y-88571500D01*
X214557800Y-88571500D01*
X214659058Y-88529557D01*
X214736557Y-88452058D01*
X216267557Y-86921058D01*
X216276656Y-86899092D01*
X216297900Y-86847804D01*
X226085700Y-86847804D01*
X226085700Y-86985795D01*
X226112620Y-87121127D01*
X226112620Y-87121129D01*
X226165422Y-87248606D01*
X226165428Y-87248617D01*
X226242085Y-87363341D01*
X226339658Y-87460914D01*
X226454382Y-87537571D01*
X226454393Y-87537577D01*
X226501483Y-87557082D01*
X226581872Y-87590380D01*
X226717207Y-87617300D01*
X226717208Y-87617300D01*
X227955192Y-87617300D01*
X227955193Y-87617300D01*
X228090528Y-87590380D01*
X228218011Y-87537575D01*
X228332742Y-87460914D01*
X228430314Y-87363342D01*
X228506975Y-87248611D01*
X228559780Y-87121128D01*
X228586700Y-86985793D01*
X228586700Y-86847807D01*
X228586699Y-86847804D01*
X230515700Y-86847804D01*
X230515700Y-86985795D01*
X230542620Y-87121127D01*
X230542620Y-87121129D01*
X230595422Y-87248606D01*
X230595428Y-87248617D01*
X230672085Y-87363341D01*
X230769658Y-87460914D01*
X230884382Y-87537571D01*
X230884393Y-87537577D01*
X230931483Y-87557082D01*
X231011872Y-87590380D01*
X231147207Y-87617300D01*
X231147208Y-87617300D01*
X231885192Y-87617300D01*
X231885193Y-87617300D01*
X232020528Y-87590380D01*
X232148011Y-87537575D01*
X232262742Y-87460914D01*
X232360314Y-87363342D01*
X232436975Y-87248611D01*
X232489780Y-87121128D01*
X232516700Y-86985793D01*
X232516700Y-86847807D01*
X232489780Y-86712472D01*
X232469485Y-86663476D01*
X232436977Y-86584993D01*
X232436971Y-86584982D01*
X232360314Y-86470258D01*
X232262741Y-86372685D01*
X232148017Y-86296028D01*
X232148006Y-86296022D01*
X232020528Y-86243220D01*
X231885195Y-86216300D01*
X231885193Y-86216300D01*
X231147207Y-86216300D01*
X231147204Y-86216300D01*
X231011872Y-86243220D01*
X231011870Y-86243220D01*
X230884393Y-86296022D01*
X230884382Y-86296028D01*
X230769658Y-86372685D01*
X230672085Y-86470258D01*
X230595428Y-86584982D01*
X230595422Y-86584993D01*
X230542620Y-86712470D01*
X230542620Y-86712472D01*
X230515700Y-86847804D01*
X228586699Y-86847804D01*
X228559780Y-86712472D01*
X228539485Y-86663476D01*
X228506977Y-86584993D01*
X228506971Y-86584982D01*
X228430314Y-86470258D01*
X228332741Y-86372685D01*
X228218017Y-86296028D01*
X228218006Y-86296022D01*
X228090529Y-86243220D01*
X228016950Y-86228584D01*
X227963566Y-86198687D01*
X227937951Y-86143121D01*
X227949888Y-86083112D01*
X227994819Y-86041579D01*
X228010633Y-86035862D01*
X228058335Y-86023081D01*
X228189565Y-85947315D01*
X228296715Y-85840165D01*
X228327224Y-85787322D01*
X228372479Y-85708939D01*
X228372479Y-85708937D01*
X228372481Y-85708935D01*
X228411700Y-85562566D01*
X228411700Y-85411034D01*
X228372481Y-85264665D01*
X228372479Y-85264662D01*
X228372479Y-85264660D01*
X228296718Y-85133439D01*
X228296716Y-85133437D01*
X228296715Y-85133435D01*
X228189565Y-85026285D01*
X228189562Y-85026283D01*
X228189560Y-85026281D01*
X228058338Y-84950520D01*
X228058340Y-84950520D01*
X228001547Y-84935303D01*
X227911966Y-84911300D01*
X227760434Y-84911300D01*
X227670852Y-84935303D01*
X227614060Y-84950520D01*
X227482839Y-85026281D01*
X227375681Y-85133439D01*
X227299920Y-85264660D01*
X227287350Y-85311573D01*
X227260700Y-85411034D01*
X227260700Y-85562566D01*
X227293051Y-85683302D01*
X227299920Y-85708939D01*
X227375681Y-85840160D01*
X227375683Y-85840162D01*
X227375685Y-85840165D01*
X227482835Y-85947315D01*
X227482837Y-85947316D01*
X227482839Y-85947318D01*
X227614061Y-86023079D01*
X227614062Y-86023079D01*
X227614065Y-86023081D01*
X227614067Y-86023081D01*
X227620057Y-86025563D01*
X227618943Y-86028251D01*
X227660128Y-86055000D01*
X227682053Y-86112122D01*
X227666216Y-86171222D01*
X227618665Y-86209725D01*
X227583189Y-86216300D01*
X226717204Y-86216300D01*
X226581872Y-86243220D01*
X226581870Y-86243220D01*
X226454393Y-86296022D01*
X226454382Y-86296028D01*
X226339658Y-86372685D01*
X226242085Y-86470258D01*
X226165428Y-86584982D01*
X226165422Y-86584993D01*
X226112620Y-86712470D01*
X226112620Y-86712472D01*
X226085700Y-86847804D01*
X216297900Y-86847804D01*
X216309500Y-86819800D01*
X216309500Y-85925848D01*
X216328407Y-85867657D01*
X216370614Y-85834384D01*
X216401718Y-85821500D01*
X216484231Y-85787322D01*
X216484234Y-85787319D01*
X216484238Y-85787318D01*
X216529187Y-85757282D01*
X216639908Y-85683302D01*
X216772302Y-85550908D01*
X216852088Y-85431500D01*
X216876318Y-85395238D01*
X216876319Y-85395234D01*
X216876322Y-85395231D01*
X216947973Y-85222251D01*
X216984500Y-85038616D01*
X216984500Y-84351384D01*
X216947973Y-84167749D01*
X216876322Y-83994769D01*
X216876320Y-83994767D01*
X216876318Y-83994761D01*
X216816649Y-83905463D01*
X216772302Y-83839092D01*
X216639908Y-83706698D01*
X216592847Y-83675253D01*
X217243500Y-83675253D01*
X217243500Y-85714746D01*
X217243501Y-85714758D01*
X217255132Y-85773227D01*
X217255134Y-85773233D01*
X217299445Y-85839548D01*
X217299448Y-85839552D01*
X217365769Y-85883867D01*
X217410231Y-85892711D01*
X217424241Y-85895498D01*
X217424246Y-85895498D01*
X217424252Y-85895500D01*
X217424253Y-85895500D01*
X218963747Y-85895500D01*
X218963748Y-85895500D01*
X219022231Y-85883867D01*
X219088552Y-85839552D01*
X219132867Y-85773231D01*
X219144500Y-85714748D01*
X219144500Y-85630108D01*
X225252500Y-85630108D01*
X225252500Y-85761892D01*
X225255539Y-85773233D01*
X225286609Y-85889190D01*
X225352496Y-86003309D01*
X225352498Y-86003311D01*
X225352500Y-86003314D01*
X225445686Y-86096500D01*
X225445688Y-86096501D01*
X225445690Y-86096503D01*
X225559810Y-86162390D01*
X225559808Y-86162390D01*
X225559812Y-86162391D01*
X225559814Y-86162392D01*
X225687108Y-86196500D01*
X225687110Y-86196500D01*
X225818890Y-86196500D01*
X225818892Y-86196500D01*
X225946186Y-86162392D01*
X225946188Y-86162390D01*
X225946190Y-86162390D01*
X226060309Y-86096503D01*
X226060309Y-86096502D01*
X226060314Y-86096500D01*
X226153500Y-86003314D01*
X226176083Y-85964200D01*
X226219390Y-85889190D01*
X226219390Y-85889188D01*
X226219392Y-85889186D01*
X226253500Y-85761892D01*
X226253500Y-85630108D01*
X226219392Y-85502814D01*
X226219390Y-85502811D01*
X226219390Y-85502809D01*
X226153503Y-85388690D01*
X226153501Y-85388688D01*
X226153500Y-85388686D01*
X226060314Y-85295500D01*
X226060311Y-85295498D01*
X226060309Y-85295496D01*
X225946189Y-85229609D01*
X225946191Y-85229609D01*
X225876071Y-85210821D01*
X225818892Y-85195500D01*
X225687108Y-85195500D01*
X225629929Y-85210821D01*
X225559809Y-85229609D01*
X225445690Y-85295496D01*
X225352496Y-85388690D01*
X225286609Y-85502809D01*
X225272623Y-85555008D01*
X225252500Y-85630108D01*
X219144500Y-85630108D01*
X219144500Y-83675252D01*
X219132867Y-83616769D01*
X219088552Y-83550448D01*
X219059487Y-83531027D01*
X219022233Y-83506134D01*
X219022231Y-83506133D01*
X219022228Y-83506132D01*
X219022227Y-83506132D01*
X218963758Y-83494501D01*
X218963748Y-83494500D01*
X217424252Y-83494500D01*
X217424251Y-83494500D01*
X217424241Y-83494501D01*
X217365772Y-83506132D01*
X217365766Y-83506134D01*
X217299451Y-83550445D01*
X217299445Y-83550451D01*
X217255134Y-83616766D01*
X217255132Y-83616772D01*
X217243501Y-83675241D01*
X217243500Y-83675253D01*
X216592847Y-83675253D01*
X216590207Y-83673489D01*
X216484238Y-83602681D01*
X216484229Y-83602677D01*
X216311249Y-83531026D01*
X216127618Y-83494500D01*
X216127616Y-83494500D01*
X215940384Y-83494500D01*
X215940381Y-83494500D01*
X215756750Y-83531026D01*
X215583770Y-83602677D01*
X215583761Y-83602681D01*
X215428092Y-83706698D01*
X215428088Y-83706701D01*
X215295701Y-83839088D01*
X215295698Y-83839092D01*
X215191681Y-83994761D01*
X215191677Y-83994770D01*
X215120026Y-84167750D01*
X215083500Y-84351381D01*
X215083500Y-85038618D01*
X215120026Y-85222249D01*
X215191677Y-85395229D01*
X215191681Y-85395238D01*
X215263559Y-85502809D01*
X215295698Y-85550908D01*
X215428092Y-85683302D01*
X215485237Y-85721485D01*
X215583761Y-85787318D01*
X215583767Y-85787320D01*
X215583769Y-85787322D01*
X215627203Y-85805313D01*
X215697386Y-85834384D01*
X215743911Y-85874121D01*
X215758500Y-85925848D01*
X215758500Y-86609877D01*
X215739593Y-86668068D01*
X215729504Y-86679881D01*
X214417881Y-87991504D01*
X214363364Y-88019281D01*
X214347877Y-88020500D01*
X211657123Y-88020500D01*
X211598932Y-88001593D01*
X211562968Y-87952093D01*
X211562968Y-87890907D01*
X211587119Y-87851496D01*
X211935806Y-87502809D01*
X212986557Y-86452058D01*
X212999398Y-86421057D01*
X213028500Y-86350800D01*
X213028500Y-85682718D01*
X213047407Y-85624527D01*
X213096907Y-85588563D01*
X213158093Y-85588563D01*
X213197504Y-85612714D01*
X213268092Y-85683302D01*
X213325237Y-85721485D01*
X213423761Y-85787318D01*
X213423767Y-85787320D01*
X213423769Y-85787322D01*
X213596749Y-85858973D01*
X213780384Y-85895500D01*
X213780385Y-85895500D01*
X213967615Y-85895500D01*
X213967616Y-85895500D01*
X214151251Y-85858973D01*
X214324231Y-85787322D01*
X214324234Y-85787319D01*
X214324238Y-85787318D01*
X214369187Y-85757282D01*
X214479908Y-85683302D01*
X214612302Y-85550908D01*
X214692088Y-85431500D01*
X214716318Y-85395238D01*
X214716319Y-85395234D01*
X214716322Y-85395231D01*
X214787973Y-85222251D01*
X214824500Y-85038616D01*
X214824500Y-84351384D01*
X214787973Y-84167749D01*
X214716322Y-83994769D01*
X214716320Y-83994767D01*
X214716318Y-83994761D01*
X214656649Y-83905463D01*
X214612302Y-83839092D01*
X214479908Y-83706698D01*
X214430207Y-83673489D01*
X214324238Y-83602681D01*
X214324229Y-83602677D01*
X214151249Y-83531026D01*
X213967618Y-83494500D01*
X213967616Y-83494500D01*
X213780384Y-83494500D01*
X213780381Y-83494500D01*
X213596750Y-83531026D01*
X213423770Y-83602677D01*
X213423761Y-83602681D01*
X213268092Y-83706698D01*
X213268088Y-83706701D01*
X213197504Y-83777286D01*
X213142987Y-83805063D01*
X213082555Y-83795492D01*
X213039290Y-83752227D01*
X213028500Y-83707282D01*
X213028500Y-82480108D01*
X213602500Y-82480108D01*
X213602500Y-82611892D01*
X213632579Y-82724151D01*
X213636609Y-82739190D01*
X213702496Y-82853309D01*
X213702498Y-82853311D01*
X213702500Y-82853314D01*
X213795686Y-82946500D01*
X213795688Y-82946501D01*
X213795690Y-82946503D01*
X213909810Y-83012390D01*
X213909808Y-83012390D01*
X213909812Y-83012391D01*
X213909814Y-83012392D01*
X214037108Y-83046500D01*
X214037110Y-83046500D01*
X214168890Y-83046500D01*
X214168892Y-83046500D01*
X214296186Y-83012392D01*
X214296188Y-83012390D01*
X214296190Y-83012390D01*
X214410309Y-82946503D01*
X214410309Y-82946502D01*
X214410314Y-82946500D01*
X214503500Y-82853314D01*
X214532368Y-82803314D01*
X214569390Y-82739190D01*
X214569390Y-82739188D01*
X214569392Y-82739186D01*
X214603500Y-82611892D01*
X214603500Y-82480108D01*
X214569392Y-82352814D01*
X214569390Y-82352811D01*
X214569390Y-82352809D01*
X214503503Y-82238690D01*
X214503501Y-82238688D01*
X214503500Y-82238686D01*
X214410314Y-82145500D01*
X214410311Y-82145498D01*
X214410309Y-82145496D01*
X214296189Y-82079609D01*
X214296191Y-82079609D01*
X214246799Y-82066375D01*
X214168892Y-82045500D01*
X214037108Y-82045500D01*
X213959200Y-82066375D01*
X213909809Y-82079609D01*
X213795690Y-82145496D01*
X213702496Y-82238690D01*
X213636609Y-82352809D01*
X213636608Y-82352814D01*
X213602500Y-82480108D01*
X213028500Y-82480108D01*
X213028500Y-81392718D01*
X213047407Y-81334527D01*
X213096907Y-81298563D01*
X213158093Y-81298563D01*
X213197504Y-81322714D01*
X213268092Y-81393302D01*
X213325291Y-81431521D01*
X213423761Y-81497318D01*
X213423767Y-81497320D01*
X213423769Y-81497322D01*
X213596749Y-81568973D01*
X213780384Y-81605500D01*
X213780385Y-81605500D01*
X213967615Y-81605500D01*
X213967616Y-81605500D01*
X214151251Y-81568973D01*
X214324231Y-81497322D01*
X214324234Y-81497319D01*
X214324238Y-81497318D01*
X214370931Y-81466118D01*
X214479908Y-81393302D01*
X214612302Y-81260908D01*
X214688074Y-81147507D01*
X214716318Y-81105238D01*
X214716319Y-81105234D01*
X214716322Y-81105231D01*
X214787973Y-80932251D01*
X214824500Y-80748616D01*
X214824500Y-80061384D01*
X214787973Y-79877749D01*
X214745684Y-79775657D01*
X214740884Y-79714661D01*
X214772854Y-79662492D01*
X214829382Y-79639077D01*
X214888876Y-79653361D01*
X214907153Y-79667768D01*
X215082129Y-79842744D01*
X215109906Y-79897261D01*
X215109223Y-79932062D01*
X215083500Y-80061380D01*
X215083500Y-80748618D01*
X215120026Y-80932249D01*
X215191677Y-81105229D01*
X215191681Y-81105238D01*
X215257215Y-81203314D01*
X215295698Y-81260908D01*
X215428092Y-81393302D01*
X215485291Y-81431521D01*
X215583761Y-81497318D01*
X215583767Y-81497320D01*
X215583769Y-81497322D01*
X215756749Y-81568973D01*
X215940384Y-81605500D01*
X215940385Y-81605500D01*
X216127615Y-81605500D01*
X216127616Y-81605500D01*
X216311251Y-81568973D01*
X216484231Y-81497322D01*
X216484234Y-81497319D01*
X216484238Y-81497318D01*
X216530931Y-81466118D01*
X216639908Y-81393302D01*
X216772302Y-81260908D01*
X216848074Y-81147507D01*
X216876318Y-81105238D01*
X216876319Y-81105234D01*
X216876322Y-81105231D01*
X216947973Y-80932251D01*
X216984500Y-80748616D01*
X216984500Y-80061384D01*
X216947973Y-79877749D01*
X216905684Y-79775656D01*
X216900884Y-79714662D01*
X216932853Y-79662493D01*
X216989381Y-79639078D01*
X217048876Y-79653361D01*
X217067153Y-79667769D01*
X217242128Y-79842744D01*
X217269905Y-79897261D01*
X217269222Y-79932061D01*
X217243500Y-80061379D01*
X217243500Y-80748618D01*
X217280026Y-80932249D01*
X217351677Y-81105229D01*
X217351681Y-81105238D01*
X217417215Y-81203314D01*
X217455698Y-81260908D01*
X217588092Y-81393302D01*
X217645291Y-81431521D01*
X217743761Y-81497318D01*
X217743767Y-81497320D01*
X217743769Y-81497322D01*
X217916749Y-81568973D01*
X218100384Y-81605500D01*
X218100385Y-81605500D01*
X218287615Y-81605500D01*
X218287616Y-81605500D01*
X218471251Y-81568973D01*
X218644231Y-81497322D01*
X218644234Y-81497319D01*
X218644238Y-81497318D01*
X218690931Y-81466118D01*
X218799908Y-81393302D01*
X218932302Y-81260908D01*
X219033465Y-81109507D01*
X219081515Y-81071628D01*
X219142653Y-81069226D01*
X219193527Y-81103219D01*
X219201516Y-81115009D01*
X219252496Y-81203309D01*
X219252498Y-81203311D01*
X219252500Y-81203314D01*
X219345686Y-81296500D01*
X219345688Y-81296501D01*
X219345690Y-81296503D01*
X219459810Y-81362390D01*
X219459808Y-81362390D01*
X219459812Y-81362391D01*
X219459814Y-81362392D01*
X219587108Y-81396500D01*
X219587110Y-81396500D01*
X219718890Y-81396500D01*
X219718892Y-81396500D01*
X219756003Y-81386556D01*
X219817102Y-81389758D01*
X219864652Y-81428263D01*
X219880488Y-81487364D01*
X219877251Y-81507805D01*
X219868822Y-81539263D01*
X219848500Y-81615108D01*
X219848500Y-81746892D01*
X219850087Y-81752814D01*
X219882609Y-81874190D01*
X219948496Y-81988309D01*
X219948498Y-81988311D01*
X219948500Y-81988314D01*
X220041686Y-82081500D01*
X220041688Y-82081501D01*
X220041690Y-82081503D01*
X220155810Y-82147390D01*
X220155808Y-82147390D01*
X220155812Y-82147391D01*
X220155814Y-82147392D01*
X220283108Y-82181500D01*
X220283110Y-82181500D01*
X220414890Y-82181500D01*
X220414892Y-82181500D01*
X220542186Y-82147392D01*
X220542188Y-82147390D01*
X220542190Y-82147390D01*
X220656309Y-82081503D01*
X220656309Y-82081502D01*
X220656314Y-82081500D01*
X220749500Y-81988314D01*
X220749503Y-81988309D01*
X220815390Y-81874190D01*
X220815390Y-81874188D01*
X220815392Y-81874186D01*
X220849500Y-81746892D01*
X220849500Y-81615108D01*
X220815392Y-81487814D01*
X220815390Y-81487811D01*
X220815390Y-81487809D01*
X220749503Y-81373690D01*
X220749501Y-81373688D01*
X220749500Y-81373686D01*
X220656314Y-81280500D01*
X220656311Y-81280498D01*
X220656309Y-81280496D01*
X220542189Y-81214609D01*
X220542191Y-81214609D01*
X220492799Y-81201375D01*
X220414892Y-81180500D01*
X220283108Y-81180500D01*
X220283105Y-81180500D01*
X220245996Y-81190443D01*
X220184894Y-81187240D01*
X220137345Y-81148733D01*
X220121511Y-81089632D01*
X220124746Y-81069202D01*
X220153500Y-80961892D01*
X220153500Y-80830108D01*
X220119392Y-80702814D01*
X220119390Y-80702811D01*
X220119390Y-80702809D01*
X220053503Y-80588690D01*
X220053501Y-80588688D01*
X220053500Y-80588686D01*
X219960314Y-80495500D01*
X219960311Y-80495498D01*
X219957496Y-80492683D01*
X219929719Y-80438166D01*
X219928500Y-80422679D01*
X219928500Y-80178928D01*
X219886557Y-80077670D01*
X219886557Y-80077669D01*
X218638995Y-78830108D01*
X225352500Y-78830108D01*
X225352500Y-78961892D01*
X225380742Y-79067294D01*
X225386609Y-79089190D01*
X225452496Y-79203309D01*
X225452498Y-79203311D01*
X225452500Y-79203314D01*
X225545686Y-79296500D01*
X225545688Y-79296501D01*
X225545690Y-79296503D01*
X225659810Y-79362390D01*
X225659808Y-79362390D01*
X225659812Y-79362391D01*
X225659814Y-79362392D01*
X225787108Y-79396500D01*
X225787110Y-79396500D01*
X225918890Y-79396500D01*
X225918892Y-79396500D01*
X226046186Y-79362392D01*
X226046188Y-79362390D01*
X226046190Y-79362390D01*
X226160309Y-79296503D01*
X226160309Y-79296502D01*
X226160314Y-79296500D01*
X226253500Y-79203314D01*
X226258012Y-79195500D01*
X226309169Y-79106893D01*
X226319392Y-79089186D01*
X226349874Y-78975423D01*
X226383195Y-78924112D01*
X226440317Y-78902185D01*
X226483382Y-78909584D01*
X226581872Y-78950380D01*
X226717207Y-78977300D01*
X226717208Y-78977300D01*
X227583189Y-78977300D01*
X227641380Y-78996207D01*
X227677344Y-79045707D01*
X227677344Y-79106893D01*
X227641380Y-79156393D01*
X227619547Y-79166806D01*
X227620057Y-79168037D01*
X227614061Y-79170520D01*
X227482839Y-79246281D01*
X227375681Y-79353439D01*
X227299920Y-79484660D01*
X227299919Y-79484665D01*
X227260700Y-79631034D01*
X227260700Y-79782566D01*
X227289218Y-79888998D01*
X227299920Y-79928939D01*
X227375681Y-80060160D01*
X227375683Y-80060162D01*
X227375685Y-80060165D01*
X227482835Y-80167315D01*
X227482837Y-80167316D01*
X227482839Y-80167318D01*
X227614061Y-80243079D01*
X227614059Y-80243079D01*
X227614063Y-80243080D01*
X227614065Y-80243081D01*
X227760434Y-80282300D01*
X227760436Y-80282300D01*
X227911964Y-80282300D01*
X227911966Y-80282300D01*
X228058335Y-80243081D01*
X228058337Y-80243079D01*
X228058339Y-80243079D01*
X228189560Y-80167318D01*
X228189560Y-80167317D01*
X228189565Y-80167315D01*
X228296715Y-80060165D01*
X228322868Y-80014867D01*
X228372479Y-79928939D01*
X228372479Y-79928937D01*
X228372481Y-79928935D01*
X228411700Y-79782566D01*
X228411700Y-79631034D01*
X228372481Y-79484665D01*
X228372479Y-79484662D01*
X228372479Y-79484660D01*
X228296718Y-79353439D01*
X228296716Y-79353437D01*
X228296715Y-79353435D01*
X228189565Y-79246285D01*
X228189562Y-79246283D01*
X228189560Y-79246281D01*
X228058338Y-79170520D01*
X228058339Y-79170520D01*
X228042537Y-79166286D01*
X228010641Y-79157739D01*
X227959327Y-79124415D01*
X227937401Y-79067294D01*
X227953237Y-79008193D01*
X228000787Y-78969688D01*
X228016945Y-78965016D01*
X228090528Y-78950380D01*
X228218011Y-78897575D01*
X228332742Y-78820914D01*
X228430314Y-78723342D01*
X228506975Y-78608611D01*
X228559780Y-78481128D01*
X228586700Y-78345793D01*
X228586700Y-78207807D01*
X228586699Y-78207804D01*
X230515700Y-78207804D01*
X230515700Y-78345795D01*
X230542620Y-78481127D01*
X230542620Y-78481129D01*
X230595422Y-78608606D01*
X230595428Y-78608617D01*
X230672085Y-78723341D01*
X230769658Y-78820914D01*
X230884382Y-78897571D01*
X230884393Y-78897577D01*
X230931483Y-78917082D01*
X231011872Y-78950380D01*
X231147207Y-78977300D01*
X231147208Y-78977300D01*
X231885192Y-78977300D01*
X231885193Y-78977300D01*
X232020528Y-78950380D01*
X232148011Y-78897575D01*
X232262742Y-78820914D01*
X232360314Y-78723342D01*
X232436975Y-78608611D01*
X232489780Y-78481128D01*
X232516700Y-78345793D01*
X232516700Y-78207807D01*
X232489780Y-78072472D01*
X232463143Y-78008164D01*
X232436977Y-77944993D01*
X232436971Y-77944982D01*
X232360314Y-77830258D01*
X232262741Y-77732685D01*
X232148017Y-77656028D01*
X232148006Y-77656022D01*
X232020528Y-77603220D01*
X231885195Y-77576300D01*
X231885193Y-77576300D01*
X231147207Y-77576300D01*
X231147204Y-77576300D01*
X231011872Y-77603220D01*
X231011870Y-77603220D01*
X230884393Y-77656022D01*
X230884382Y-77656028D01*
X230769658Y-77732685D01*
X230672085Y-77830258D01*
X230595428Y-77944982D01*
X230595422Y-77944993D01*
X230542620Y-78072470D01*
X230542620Y-78072472D01*
X230515700Y-78207804D01*
X228586699Y-78207804D01*
X228559780Y-78072472D01*
X228533143Y-78008164D01*
X228506977Y-77944993D01*
X228506971Y-77944982D01*
X228430314Y-77830258D01*
X228332741Y-77732685D01*
X228218017Y-77656028D01*
X228218006Y-77656022D01*
X228090528Y-77603220D01*
X227955195Y-77576300D01*
X227955193Y-77576300D01*
X226717207Y-77576300D01*
X226717204Y-77576300D01*
X226581872Y-77603220D01*
X226581870Y-77603220D01*
X226454393Y-77656022D01*
X226454382Y-77656028D01*
X226339658Y-77732685D01*
X226242085Y-77830258D01*
X226165428Y-77944982D01*
X226165422Y-77944993D01*
X226112620Y-78072470D01*
X226112620Y-78072472D01*
X226085700Y-78207804D01*
X226085700Y-78311176D01*
X226066793Y-78369367D01*
X226017293Y-78405331D01*
X225961079Y-78406803D01*
X225918894Y-78395500D01*
X225918892Y-78395500D01*
X225787108Y-78395500D01*
X225709200Y-78416375D01*
X225659809Y-78429609D01*
X225545690Y-78495496D01*
X225452496Y-78588690D01*
X225386609Y-78702809D01*
X225380980Y-78723817D01*
X225352500Y-78830108D01*
X218638995Y-78830108D01*
X217438995Y-77630108D01*
X221352500Y-77630108D01*
X221352500Y-77761892D01*
X221374046Y-77842302D01*
X221386609Y-77889190D01*
X221452496Y-78003309D01*
X221452498Y-78003311D01*
X221452500Y-78003314D01*
X221545686Y-78096500D01*
X221545688Y-78096501D01*
X221545690Y-78096503D01*
X221659810Y-78162390D01*
X221659808Y-78162390D01*
X221659812Y-78162391D01*
X221659814Y-78162392D01*
X221787108Y-78196500D01*
X221787110Y-78196500D01*
X221918890Y-78196500D01*
X221918892Y-78196500D01*
X222046186Y-78162392D01*
X222046188Y-78162390D01*
X222046190Y-78162390D01*
X222160309Y-78096503D01*
X222160309Y-78096502D01*
X222160314Y-78096500D01*
X222253500Y-78003314D01*
X222253503Y-78003309D01*
X222319390Y-77889190D01*
X222319390Y-77889188D01*
X222319392Y-77889186D01*
X222353500Y-77761892D01*
X222353500Y-77630108D01*
X222319392Y-77502814D01*
X222319390Y-77502811D01*
X222319390Y-77502809D01*
X222253503Y-77388690D01*
X222253501Y-77388688D01*
X222253500Y-77388686D01*
X222160314Y-77295500D01*
X222160311Y-77295498D01*
X222160309Y-77295496D01*
X222046189Y-77229609D01*
X222046191Y-77229609D01*
X221996799Y-77216375D01*
X221918892Y-77195500D01*
X221787108Y-77195500D01*
X221709200Y-77216375D01*
X221659809Y-77229609D01*
X221545690Y-77295496D01*
X221452496Y-77388690D01*
X221386609Y-77502809D01*
X221386608Y-77502814D01*
X221352500Y-77630108D01*
X217438995Y-77630108D01*
X215278390Y-75469503D01*
X215250614Y-75414987D01*
X215260185Y-75354555D01*
X215303450Y-75311290D01*
X215348395Y-75300500D01*
X232952405Y-75300500D01*
X232995139Y-75300500D01*
X233004842Y-75300976D01*
G37*
%TD.AperFunction*%
%TA.AperFunction,Conductor*%
G36*
X193742473Y-79340407D02*
G01*
X193778437Y-79389907D01*
X193778437Y-79451093D01*
X193754286Y-79490504D01*
X193695701Y-79549088D01*
X193695698Y-79549092D01*
X193591681Y-79704761D01*
X193591677Y-79704770D01*
X193520026Y-79877750D01*
X193483500Y-80061381D01*
X193483500Y-80748618D01*
X193520026Y-80932249D01*
X193591677Y-81105229D01*
X193591681Y-81105238D01*
X193657215Y-81203314D01*
X193695698Y-81260908D01*
X193828092Y-81393302D01*
X193885291Y-81431521D01*
X193971590Y-81489185D01*
X193972846Y-81490779D01*
X193974779Y-81491407D01*
X193991682Y-81514672D01*
X194009469Y-81537235D01*
X194009548Y-81539263D01*
X194010743Y-81540907D01*
X194010743Y-81569662D01*
X194011871Y-81598373D01*
X194010743Y-81600061D01*
X194010743Y-81602093D01*
X193993842Y-81625353D01*
X193977878Y-81649247D01*
X193975972Y-81649949D01*
X193974779Y-81651593D01*
X193947443Y-81660474D01*
X193920474Y-81670424D01*
X193916588Y-81670500D01*
X193726321Y-81670500D01*
X193668130Y-81651593D01*
X193656317Y-81641504D01*
X193653501Y-81638688D01*
X193653500Y-81638686D01*
X193560314Y-81545500D01*
X193560311Y-81545498D01*
X193560309Y-81545496D01*
X193446189Y-81479609D01*
X193446191Y-81479609D01*
X193395840Y-81466118D01*
X193318892Y-81445500D01*
X193187108Y-81445500D01*
X193110160Y-81466118D01*
X193059809Y-81479609D01*
X192945690Y-81545496D01*
X192852496Y-81638690D01*
X192786609Y-81752809D01*
X192786608Y-81752814D01*
X192752500Y-81880108D01*
X192752500Y-82011892D01*
X192764053Y-82055007D01*
X192786609Y-82139190D01*
X192852496Y-82253309D01*
X192852498Y-82253311D01*
X192852500Y-82253314D01*
X192945686Y-82346500D01*
X192945688Y-82346501D01*
X192945690Y-82346503D01*
X193059810Y-82412390D01*
X193059808Y-82412390D01*
X193059812Y-82412391D01*
X193059814Y-82412392D01*
X193187108Y-82446500D01*
X193187110Y-82446500D01*
X193318890Y-82446500D01*
X193318892Y-82446500D01*
X193446186Y-82412392D01*
X193446188Y-82412390D01*
X193446190Y-82412390D01*
X193560309Y-82346503D01*
X193560309Y-82346502D01*
X193560314Y-82346500D01*
X193653500Y-82253314D01*
X193653501Y-82253311D01*
X193656317Y-82250496D01*
X193710834Y-82222719D01*
X193726321Y-82221500D01*
X194479377Y-82221500D01*
X194537568Y-82240407D01*
X194573532Y-82289907D01*
X194575003Y-82346121D01*
X194552500Y-82430108D01*
X194552500Y-82561892D01*
X194569059Y-82623690D01*
X194586609Y-82689190D01*
X194652496Y-82803309D01*
X194652498Y-82803311D01*
X194652500Y-82803314D01*
X194745686Y-82896500D01*
X194745688Y-82896501D01*
X194745690Y-82896503D01*
X194859810Y-82962390D01*
X194859808Y-82962390D01*
X194859812Y-82962391D01*
X194859814Y-82962392D01*
X194987108Y-82996500D01*
X194987110Y-82996500D01*
X195118890Y-82996500D01*
X195118892Y-82996500D01*
X195246186Y-82962392D01*
X195246188Y-82962390D01*
X195246190Y-82962390D01*
X195360309Y-82896503D01*
X195360309Y-82896502D01*
X195360314Y-82896500D01*
X195453500Y-82803314D01*
X195453501Y-82803311D01*
X195456317Y-82800496D01*
X195510834Y-82772719D01*
X195526321Y-82771500D01*
X197429679Y-82771500D01*
X197487870Y-82790407D01*
X197499683Y-82800496D01*
X197502498Y-82803311D01*
X197502500Y-82803314D01*
X197595686Y-82896500D01*
X197595688Y-82896501D01*
X197595690Y-82896503D01*
X197709810Y-82962390D01*
X197709808Y-82962390D01*
X197709812Y-82962391D01*
X197709814Y-82962392D01*
X197837108Y-82996500D01*
X197837110Y-82996500D01*
X197968890Y-82996500D01*
X197968892Y-82996500D01*
X198096186Y-82962392D01*
X198096188Y-82962390D01*
X198096190Y-82962390D01*
X198210309Y-82896503D01*
X198210309Y-82896502D01*
X198210314Y-82896500D01*
X198303500Y-82803314D01*
X198317665Y-82778780D01*
X198369390Y-82689190D01*
X198369390Y-82689188D01*
X198369392Y-82689186D01*
X198403500Y-82561892D01*
X198403500Y-82430108D01*
X198380996Y-82346121D01*
X198384199Y-82285021D01*
X198422704Y-82237471D01*
X198476623Y-82221500D01*
X205847878Y-82221500D01*
X205906069Y-82240407D01*
X205917874Y-82250489D01*
X206073505Y-82406121D01*
X206101281Y-82460635D01*
X206102500Y-82476122D01*
X206102500Y-82480108D01*
X206102500Y-82611892D01*
X206132579Y-82724151D01*
X206136609Y-82739190D01*
X206202496Y-82853309D01*
X206202498Y-82853311D01*
X206202500Y-82853314D01*
X206295686Y-82946500D01*
X206295688Y-82946501D01*
X206295690Y-82946503D01*
X206409810Y-83012390D01*
X206409808Y-83012390D01*
X206409812Y-83012391D01*
X206409814Y-83012392D01*
X206537108Y-83046500D01*
X206537110Y-83046500D01*
X206668890Y-83046500D01*
X206668892Y-83046500D01*
X206796186Y-83012392D01*
X206796188Y-83012390D01*
X206796190Y-83012390D01*
X206910309Y-82946503D01*
X206910309Y-82946502D01*
X206910314Y-82946500D01*
X207003500Y-82853314D01*
X207032368Y-82803314D01*
X207069390Y-82739190D01*
X207069390Y-82739188D01*
X207069392Y-82739186D01*
X207103500Y-82611892D01*
X207103500Y-82480108D01*
X207069392Y-82352814D01*
X207069390Y-82352811D01*
X207069390Y-82352809D01*
X207003503Y-82238690D01*
X207003501Y-82238688D01*
X207003500Y-82238686D01*
X206910314Y-82145500D01*
X206910311Y-82145498D01*
X206910309Y-82145496D01*
X206796189Y-82079609D01*
X206796191Y-82079609D01*
X206746799Y-82066375D01*
X206668892Y-82045500D01*
X206537108Y-82045500D01*
X206533123Y-82045500D01*
X206474932Y-82026593D01*
X206463120Y-82016504D01*
X206159057Y-81712441D01*
X206129229Y-81700087D01*
X206129228Y-81700087D01*
X206057800Y-81670500D01*
X206057799Y-81670500D01*
X205751412Y-81670500D01*
X205693221Y-81651593D01*
X205657257Y-81602093D01*
X205657257Y-81540907D01*
X205693221Y-81491407D01*
X205696410Y-81489185D01*
X205749601Y-81453643D01*
X205839908Y-81393302D01*
X205972302Y-81260908D01*
X206048074Y-81147507D01*
X206076318Y-81105238D01*
X206076319Y-81105234D01*
X206076322Y-81105231D01*
X206147973Y-80932251D01*
X206184500Y-80748616D01*
X206184500Y-80061384D01*
X206147973Y-79877749D01*
X206076322Y-79704769D01*
X206076320Y-79704767D01*
X206076318Y-79704761D01*
X206016649Y-79615463D01*
X205972302Y-79549092D01*
X205913714Y-79490504D01*
X205885937Y-79435987D01*
X205895508Y-79375555D01*
X205938773Y-79332290D01*
X205983718Y-79321500D01*
X206644282Y-79321500D01*
X206702473Y-79340407D01*
X206738437Y-79389907D01*
X206738437Y-79451093D01*
X206714286Y-79490504D01*
X206655701Y-79549088D01*
X206655698Y-79549092D01*
X206551681Y-79704761D01*
X206551677Y-79704770D01*
X206480026Y-79877750D01*
X206443500Y-80061381D01*
X206443500Y-80748618D01*
X206480026Y-80932249D01*
X206551677Y-81105229D01*
X206551681Y-81105238D01*
X206617215Y-81203314D01*
X206655698Y-81260908D01*
X206788092Y-81393302D01*
X206845291Y-81431521D01*
X206943761Y-81497318D01*
X206943767Y-81497320D01*
X206943769Y-81497322D01*
X207116749Y-81568973D01*
X207300384Y-81605500D01*
X207300385Y-81605500D01*
X207487615Y-81605500D01*
X207487616Y-81605500D01*
X207671251Y-81568973D01*
X207844231Y-81497322D01*
X207844234Y-81497319D01*
X207844238Y-81497318D01*
X207890931Y-81466118D01*
X207999908Y-81393302D01*
X208132302Y-81260908D01*
X208208074Y-81147507D01*
X208236318Y-81105238D01*
X208236319Y-81105234D01*
X208236322Y-81105231D01*
X208307973Y-80932251D01*
X208344500Y-80748616D01*
X208344500Y-80061384D01*
X208307973Y-79877749D01*
X208236322Y-79704769D01*
X208236320Y-79704767D01*
X208236318Y-79704761D01*
X208176649Y-79615463D01*
X208132302Y-79549092D01*
X208073714Y-79490504D01*
X208045937Y-79435987D01*
X208055508Y-79375555D01*
X208098773Y-79332290D01*
X208143718Y-79321500D01*
X208804282Y-79321500D01*
X208862473Y-79340407D01*
X208898437Y-79389907D01*
X208898437Y-79451093D01*
X208874286Y-79490504D01*
X208815701Y-79549088D01*
X208815698Y-79549092D01*
X208711681Y-79704761D01*
X208711677Y-79704770D01*
X208640026Y-79877750D01*
X208603500Y-80061381D01*
X208603500Y-80748618D01*
X208640026Y-80932249D01*
X208711677Y-81105229D01*
X208711681Y-81105238D01*
X208777215Y-81203314D01*
X208815698Y-81260908D01*
X208948092Y-81393302D01*
X209005291Y-81431521D01*
X209103761Y-81497318D01*
X209103767Y-81497320D01*
X209103769Y-81497322D01*
X209276749Y-81568973D01*
X209460384Y-81605500D01*
X209460385Y-81605500D01*
X209647615Y-81605500D01*
X209647616Y-81605500D01*
X209831251Y-81568973D01*
X210004231Y-81497322D01*
X210088027Y-81441330D01*
X210093820Y-81439696D01*
X210098080Y-81435437D01*
X210122809Y-81431520D01*
X210146910Y-81424723D01*
X210152562Y-81426808D01*
X210158512Y-81425866D01*
X210180824Y-81437234D01*
X210204314Y-81445900D01*
X210213016Y-81453631D01*
X210225505Y-81466120D01*
X210253281Y-81520635D01*
X210254500Y-81536122D01*
X210254500Y-83584686D01*
X210235593Y-83642877D01*
X210186093Y-83678841D01*
X210124907Y-83678841D01*
X210100498Y-83667001D01*
X210004238Y-83602681D01*
X210004229Y-83602677D01*
X209831249Y-83531026D01*
X209647618Y-83494500D01*
X209647616Y-83494500D01*
X209460384Y-83494500D01*
X209460381Y-83494500D01*
X209276750Y-83531026D01*
X209103770Y-83602677D01*
X209103761Y-83602681D01*
X208948092Y-83706698D01*
X208948088Y-83706701D01*
X208815701Y-83839088D01*
X208815698Y-83839092D01*
X208711681Y-83994761D01*
X208711677Y-83994770D01*
X208640026Y-84167750D01*
X208603500Y-84351381D01*
X208603500Y-85038618D01*
X208640026Y-85222249D01*
X208711677Y-85395229D01*
X208711681Y-85395238D01*
X208783559Y-85502809D01*
X208815698Y-85550908D01*
X208948092Y-85683302D01*
X209005237Y-85721485D01*
X209103761Y-85787318D01*
X209103767Y-85787320D01*
X209103769Y-85787322D01*
X209276749Y-85858973D01*
X209460384Y-85895500D01*
X209460385Y-85895500D01*
X209647615Y-85895500D01*
X209647616Y-85895500D01*
X209831251Y-85858973D01*
X210004231Y-85787322D01*
X210100499Y-85722997D01*
X210113758Y-85719257D01*
X210124907Y-85711158D01*
X210142477Y-85711158D01*
X210159386Y-85706389D01*
X210172313Y-85711158D01*
X210186093Y-85711158D01*
X210200307Y-85721485D01*
X210216790Y-85727566D01*
X210224444Y-85739022D01*
X210235593Y-85747122D01*
X210241022Y-85763832D01*
X210250783Y-85778440D01*
X210254500Y-85805313D01*
X210254500Y-85863876D01*
X210235593Y-85922067D01*
X210225503Y-85933880D01*
X209835275Y-86324107D01*
X209780759Y-86351884D01*
X209739650Y-86349730D01*
X209676092Y-86332700D01*
X209544308Y-86332700D01*
X209472712Y-86351884D01*
X209417009Y-86366809D01*
X209302890Y-86432696D01*
X209209696Y-86525890D01*
X209143809Y-86640009D01*
X209133808Y-86677334D01*
X209109700Y-86767308D01*
X209109700Y-86899092D01*
X209134814Y-86992819D01*
X209143809Y-87026390D01*
X209209696Y-87140509D01*
X209209698Y-87140511D01*
X209209700Y-87140514D01*
X209302886Y-87233700D01*
X209302888Y-87233701D01*
X209302890Y-87233703D01*
X209417010Y-87299590D01*
X209417008Y-87299590D01*
X209417012Y-87299591D01*
X209417014Y-87299592D01*
X209544308Y-87333700D01*
X209544310Y-87333700D01*
X209676090Y-87333700D01*
X209676092Y-87333700D01*
X209803386Y-87299592D01*
X209803388Y-87299590D01*
X209803390Y-87299590D01*
X209917509Y-87233703D01*
X209917509Y-87233702D01*
X209917514Y-87233700D01*
X210010700Y-87140514D01*
X210076592Y-87026386D01*
X210110700Y-86899092D01*
X210110700Y-86868923D01*
X210129607Y-86810732D01*
X210139696Y-86798919D01*
X210428753Y-86509862D01*
X210763558Y-86175058D01*
X210796096Y-86096503D01*
X210805500Y-86073801D01*
X210805500Y-85619718D01*
X210824407Y-85561527D01*
X210873907Y-85525563D01*
X210935093Y-85525563D01*
X210974504Y-85549714D01*
X210975697Y-85550907D01*
X210975698Y-85550908D01*
X211108092Y-85683302D01*
X211165237Y-85721485D01*
X211263761Y-85787318D01*
X211263767Y-85787320D01*
X211263769Y-85787322D01*
X211436749Y-85858973D01*
X211620384Y-85895500D01*
X211620385Y-85895500D01*
X211807615Y-85895500D01*
X211807616Y-85895500D01*
X211991251Y-85858973D01*
X212164231Y-85787322D01*
X212319908Y-85683302D01*
X212319911Y-85683298D01*
X212323498Y-85680902D01*
X212382386Y-85664293D01*
X212439790Y-85685470D01*
X212473783Y-85736344D01*
X212477500Y-85763217D01*
X212477500Y-86140877D01*
X212458593Y-86199068D01*
X212448504Y-86210881D01*
X211141881Y-87517504D01*
X211087364Y-87545281D01*
X211071877Y-87546500D01*
X190434124Y-87546500D01*
X190375933Y-87527593D01*
X190364120Y-87517504D01*
X189815989Y-86969373D01*
X188159058Y-85312443D01*
X188057800Y-85270500D01*
X188057799Y-85270500D01*
X187402391Y-85270500D01*
X187344200Y-85251593D01*
X187308236Y-85202093D01*
X187308236Y-85140907D01*
X187312994Y-85130219D01*
X187312908Y-85130184D01*
X187315390Y-85124191D01*
X187315390Y-85124188D01*
X187315392Y-85124186D01*
X187349500Y-84996892D01*
X187349500Y-84865108D01*
X190348500Y-84865108D01*
X190348500Y-84996892D01*
X190376679Y-85102058D01*
X190382609Y-85124190D01*
X190448496Y-85238309D01*
X190448498Y-85238311D01*
X190448500Y-85238314D01*
X190541686Y-85331500D01*
X190541688Y-85331501D01*
X190541690Y-85331503D01*
X190655810Y-85397390D01*
X190655808Y-85397390D01*
X190655812Y-85397391D01*
X190655814Y-85397392D01*
X190783108Y-85431500D01*
X190783110Y-85431500D01*
X190914890Y-85431500D01*
X190914892Y-85431500D01*
X191042186Y-85397392D01*
X191042188Y-85397390D01*
X191042190Y-85397390D01*
X191156309Y-85331503D01*
X191156309Y-85331502D01*
X191156314Y-85331500D01*
X191249500Y-85238314D01*
X191254526Y-85229609D01*
X191315390Y-85124190D01*
X191315390Y-85124188D01*
X191315392Y-85124186D01*
X191349500Y-84996892D01*
X191349500Y-84865108D01*
X191315392Y-84737814D01*
X191315390Y-84737811D01*
X191315390Y-84737809D01*
X191249503Y-84623690D01*
X191249501Y-84623688D01*
X191249500Y-84623686D01*
X191156314Y-84530500D01*
X191156311Y-84530498D01*
X191156309Y-84530496D01*
X191042189Y-84464609D01*
X191042191Y-84464609D01*
X191005247Y-84454710D01*
X190914892Y-84430500D01*
X190783108Y-84430500D01*
X190706253Y-84451093D01*
X190655809Y-84464609D01*
X190541690Y-84530496D01*
X190448496Y-84623690D01*
X190382609Y-84737809D01*
X190382608Y-84737814D01*
X190348500Y-84865108D01*
X187349500Y-84865108D01*
X187315392Y-84737814D01*
X187315390Y-84737811D01*
X187315390Y-84737809D01*
X187249503Y-84623690D01*
X187249501Y-84623688D01*
X187249500Y-84623686D01*
X187156314Y-84530500D01*
X187156311Y-84530498D01*
X187156309Y-84530496D01*
X187042189Y-84464609D01*
X187042185Y-84464607D01*
X186956875Y-84441748D01*
X186905561Y-84408424D01*
X186883665Y-84351381D01*
X193483500Y-84351381D01*
X193483500Y-85038618D01*
X193520026Y-85222249D01*
X193591677Y-85395229D01*
X193591681Y-85395238D01*
X193663559Y-85502809D01*
X193695698Y-85550908D01*
X193828092Y-85683302D01*
X193885237Y-85721485D01*
X193983761Y-85787318D01*
X193983767Y-85787320D01*
X193983769Y-85787322D01*
X194156749Y-85858973D01*
X194340384Y-85895500D01*
X194340385Y-85895500D01*
X194527615Y-85895500D01*
X194527616Y-85895500D01*
X194711251Y-85858973D01*
X194884231Y-85787322D01*
X194884234Y-85787319D01*
X194884238Y-85787318D01*
X194929187Y-85757282D01*
X195039908Y-85683302D01*
X195172302Y-85550908D01*
X195252088Y-85431500D01*
X195276318Y-85395238D01*
X195276319Y-85395234D01*
X195276322Y-85395231D01*
X195347973Y-85222251D01*
X195384500Y-85038616D01*
X195384500Y-84351384D01*
X195384499Y-84351381D01*
X195643500Y-84351381D01*
X195643500Y-85038618D01*
X195680026Y-85222249D01*
X195751677Y-85395229D01*
X195751681Y-85395238D01*
X195823559Y-85502809D01*
X195855698Y-85550908D01*
X195988092Y-85683302D01*
X196045237Y-85721485D01*
X196143761Y-85787318D01*
X196143767Y-85787320D01*
X196143769Y-85787322D01*
X196316749Y-85858973D01*
X196500384Y-85895500D01*
X196500385Y-85895500D01*
X196687615Y-85895500D01*
X196687616Y-85895500D01*
X196871251Y-85858973D01*
X197044231Y-85787322D01*
X197044234Y-85787319D01*
X197044238Y-85787318D01*
X197089187Y-85757282D01*
X197199908Y-85683302D01*
X197332302Y-85550908D01*
X197412088Y-85431500D01*
X197436318Y-85395238D01*
X197436319Y-85395234D01*
X197436322Y-85395231D01*
X197507973Y-85222251D01*
X197544500Y-85038616D01*
X197544500Y-84351384D01*
X197544499Y-84351381D01*
X197803500Y-84351381D01*
X197803500Y-85038618D01*
X197840026Y-85222249D01*
X197911677Y-85395229D01*
X197911681Y-85395238D01*
X197983559Y-85502809D01*
X198015698Y-85550908D01*
X198148092Y-85683302D01*
X198205237Y-85721485D01*
X198303761Y-85787318D01*
X198303767Y-85787320D01*
X198303769Y-85787322D01*
X198476749Y-85858973D01*
X198660384Y-85895500D01*
X198660385Y-85895500D01*
X198847615Y-85895500D01*
X198847616Y-85895500D01*
X199031251Y-85858973D01*
X199204231Y-85787322D01*
X199204234Y-85787319D01*
X199204238Y-85787318D01*
X199249187Y-85757282D01*
X199359908Y-85683302D01*
X199492302Y-85550908D01*
X199572088Y-85431500D01*
X199596318Y-85395238D01*
X199596319Y-85395234D01*
X199596322Y-85395231D01*
X199667973Y-85222251D01*
X199704500Y-85038616D01*
X199704500Y-84351384D01*
X199704499Y-84351381D01*
X199963500Y-84351381D01*
X199963500Y-85038618D01*
X200000026Y-85222249D01*
X200071677Y-85395229D01*
X200071681Y-85395238D01*
X200143559Y-85502809D01*
X200175698Y-85550908D01*
X200308092Y-85683302D01*
X200365237Y-85721485D01*
X200463761Y-85787318D01*
X200463767Y-85787320D01*
X200463769Y-85787322D01*
X200636749Y-85858973D01*
X200820384Y-85895500D01*
X200820385Y-85895500D01*
X201007615Y-85895500D01*
X201007616Y-85895500D01*
X201191251Y-85858973D01*
X201364231Y-85787322D01*
X201364234Y-85787319D01*
X201364238Y-85787318D01*
X201409187Y-85757282D01*
X201519908Y-85683302D01*
X201652302Y-85550908D01*
X201732088Y-85431500D01*
X201756318Y-85395238D01*
X201756319Y-85395234D01*
X201756322Y-85395231D01*
X201827973Y-85222251D01*
X201864500Y-85038616D01*
X201864500Y-84351384D01*
X201864499Y-84351381D01*
X202123500Y-84351381D01*
X202123500Y-85038618D01*
X202160026Y-85222249D01*
X202231677Y-85395229D01*
X202231681Y-85395238D01*
X202303559Y-85502809D01*
X202335698Y-85550908D01*
X202468092Y-85683302D01*
X202525237Y-85721485D01*
X202623761Y-85787318D01*
X202623767Y-85787320D01*
X202623769Y-85787322D01*
X202796749Y-85858973D01*
X202980384Y-85895500D01*
X202980385Y-85895500D01*
X203167615Y-85895500D01*
X203167616Y-85895500D01*
X203351251Y-85858973D01*
X203524231Y-85787322D01*
X203524234Y-85787319D01*
X203524238Y-85787318D01*
X203569187Y-85757282D01*
X203679908Y-85683302D01*
X203812302Y-85550908D01*
X203892088Y-85431500D01*
X203916318Y-85395238D01*
X203916319Y-85395234D01*
X203916322Y-85395231D01*
X203987973Y-85222251D01*
X204024500Y-85038616D01*
X204024500Y-84351384D01*
X204024499Y-84351381D01*
X204283500Y-84351381D01*
X204283500Y-85038618D01*
X204320026Y-85222249D01*
X204391677Y-85395229D01*
X204391681Y-85395238D01*
X204463559Y-85502809D01*
X204495698Y-85550908D01*
X204628092Y-85683302D01*
X204685237Y-85721485D01*
X204783761Y-85787318D01*
X204783767Y-85787320D01*
X204783769Y-85787322D01*
X204956749Y-85858973D01*
X205140384Y-85895500D01*
X205140385Y-85895500D01*
X205327615Y-85895500D01*
X205327616Y-85895500D01*
X205511251Y-85858973D01*
X205684231Y-85787322D01*
X205684234Y-85787319D01*
X205684238Y-85787318D01*
X205729187Y-85757282D01*
X205839908Y-85683302D01*
X205972302Y-85550908D01*
X206052088Y-85431500D01*
X206076318Y-85395238D01*
X206076319Y-85395234D01*
X206076322Y-85395231D01*
X206147973Y-85222251D01*
X206184500Y-85038616D01*
X206184500Y-84351384D01*
X206184499Y-84351381D01*
X206443500Y-84351381D01*
X206443500Y-85038618D01*
X206480026Y-85222249D01*
X206551677Y-85395229D01*
X206551681Y-85395238D01*
X206623559Y-85502809D01*
X206655698Y-85550908D01*
X206788092Y-85683302D01*
X206845237Y-85721485D01*
X206943761Y-85787318D01*
X206943767Y-85787320D01*
X206943769Y-85787322D01*
X207116749Y-85858973D01*
X207300384Y-85895500D01*
X207300385Y-85895500D01*
X207487615Y-85895500D01*
X207487616Y-85895500D01*
X207671251Y-85858973D01*
X207844231Y-85787322D01*
X207844234Y-85787319D01*
X207844238Y-85787318D01*
X207889187Y-85757282D01*
X207999908Y-85683302D01*
X208132302Y-85550908D01*
X208212088Y-85431500D01*
X208236318Y-85395238D01*
X208236319Y-85395234D01*
X208236322Y-85395231D01*
X208307973Y-85222251D01*
X208344500Y-85038616D01*
X208344500Y-84351384D01*
X208307973Y-84167749D01*
X208236322Y-83994769D01*
X208236320Y-83994767D01*
X208236318Y-83994761D01*
X208176649Y-83905463D01*
X208132302Y-83839092D01*
X207999908Y-83706698D01*
X207950207Y-83673489D01*
X207844238Y-83602681D01*
X207844229Y-83602677D01*
X207671249Y-83531026D01*
X207487618Y-83494500D01*
X207487616Y-83494500D01*
X207300384Y-83494500D01*
X207300381Y-83494500D01*
X207116750Y-83531026D01*
X206943770Y-83602677D01*
X206943761Y-83602681D01*
X206788092Y-83706698D01*
X206788088Y-83706701D01*
X206655701Y-83839088D01*
X206655698Y-83839092D01*
X206551681Y-83994761D01*
X206551677Y-83994770D01*
X206480026Y-84167750D01*
X206443500Y-84351381D01*
X206184499Y-84351381D01*
X206147973Y-84167749D01*
X206076322Y-83994769D01*
X206076320Y-83994767D01*
X206076318Y-83994761D01*
X206016649Y-83905463D01*
X205972302Y-83839092D01*
X205839908Y-83706698D01*
X205790207Y-83673489D01*
X205684238Y-83602681D01*
X205684229Y-83602677D01*
X205511249Y-83531026D01*
X205327618Y-83494500D01*
X205327616Y-83494500D01*
X205140384Y-83494500D01*
X205140381Y-83494500D01*
X204956750Y-83531026D01*
X204783770Y-83602677D01*
X204783761Y-83602681D01*
X204628092Y-83706698D01*
X204628088Y-83706701D01*
X204495701Y-83839088D01*
X204495698Y-83839092D01*
X204391681Y-83994761D01*
X204391677Y-83994770D01*
X204320026Y-84167750D01*
X204283500Y-84351381D01*
X204024499Y-84351381D01*
X203987973Y-84167749D01*
X203916322Y-83994769D01*
X203916320Y-83994767D01*
X203916318Y-83994761D01*
X203856649Y-83905463D01*
X203812302Y-83839092D01*
X203679908Y-83706698D01*
X203630207Y-83673489D01*
X203524238Y-83602681D01*
X203524229Y-83602677D01*
X203351249Y-83531026D01*
X203167618Y-83494500D01*
X203167616Y-83494500D01*
X202980384Y-83494500D01*
X202980381Y-83494500D01*
X202796750Y-83531026D01*
X202623770Y-83602677D01*
X202623761Y-83602681D01*
X202468092Y-83706698D01*
X202468088Y-83706701D01*
X202335701Y-83839088D01*
X202335698Y-83839092D01*
X202231681Y-83994761D01*
X202231677Y-83994770D01*
X202160026Y-84167750D01*
X202123500Y-84351381D01*
X201864499Y-84351381D01*
X201827973Y-84167749D01*
X201756322Y-83994769D01*
X201756320Y-83994767D01*
X201756318Y-83994761D01*
X201696649Y-83905463D01*
X201652302Y-83839092D01*
X201519908Y-83706698D01*
X201470207Y-83673489D01*
X201364238Y-83602681D01*
X201364229Y-83602677D01*
X201191249Y-83531026D01*
X201007618Y-83494500D01*
X201007616Y-83494500D01*
X200820384Y-83494500D01*
X200820381Y-83494500D01*
X200636750Y-83531026D01*
X200463770Y-83602677D01*
X200463761Y-83602681D01*
X200308092Y-83706698D01*
X200308088Y-83706701D01*
X200175701Y-83839088D01*
X200175698Y-83839092D01*
X200071681Y-83994761D01*
X200071677Y-83994770D01*
X200000026Y-84167750D01*
X199963500Y-84351381D01*
X199704499Y-84351381D01*
X199667973Y-84167749D01*
X199596322Y-83994769D01*
X199596320Y-83994767D01*
X199596318Y-83994761D01*
X199536649Y-83905463D01*
X199492302Y-83839092D01*
X199359908Y-83706698D01*
X199310207Y-83673489D01*
X199204238Y-83602681D01*
X199204229Y-83602677D01*
X199031249Y-83531026D01*
X198847618Y-83494500D01*
X198847616Y-83494500D01*
X198660384Y-83494500D01*
X198660381Y-83494500D01*
X198476750Y-83531026D01*
X198303770Y-83602677D01*
X198303761Y-83602681D01*
X198148092Y-83706698D01*
X198148088Y-83706701D01*
X198015701Y-83839088D01*
X198015698Y-83839092D01*
X197911681Y-83994761D01*
X197911677Y-83994770D01*
X197840026Y-84167750D01*
X197803500Y-84351381D01*
X197544499Y-84351381D01*
X197507973Y-84167749D01*
X197436322Y-83994769D01*
X197436320Y-83994767D01*
X197436318Y-83994761D01*
X197376649Y-83905463D01*
X197332302Y-83839092D01*
X197199908Y-83706698D01*
X197150207Y-83673489D01*
X197044238Y-83602681D01*
X197044229Y-83602677D01*
X196871249Y-83531026D01*
X196687618Y-83494500D01*
X196687616Y-83494500D01*
X196500384Y-83494500D01*
X196500381Y-83494500D01*
X196316750Y-83531026D01*
X196143770Y-83602677D01*
X196143761Y-83602681D01*
X195988092Y-83706698D01*
X195988088Y-83706701D01*
X195855701Y-83839088D01*
X195855698Y-83839092D01*
X195751681Y-83994761D01*
X195751677Y-83994770D01*
X195680026Y-84167750D01*
X195643500Y-84351381D01*
X195384499Y-84351381D01*
X195347973Y-84167749D01*
X195276322Y-83994769D01*
X195276320Y-83994767D01*
X195276318Y-83994761D01*
X195216649Y-83905463D01*
X195172302Y-83839092D01*
X195039908Y-83706698D01*
X194990207Y-83673489D01*
X194884238Y-83602681D01*
X194884229Y-83602677D01*
X194711249Y-83531026D01*
X194527618Y-83494500D01*
X194527616Y-83494500D01*
X194340384Y-83494500D01*
X194340381Y-83494500D01*
X194156750Y-83531026D01*
X193983770Y-83602677D01*
X193983761Y-83602681D01*
X193828092Y-83706698D01*
X193828088Y-83706701D01*
X193695701Y-83839088D01*
X193695698Y-83839092D01*
X193591681Y-83994761D01*
X193591677Y-83994770D01*
X193520026Y-84167750D01*
X193483500Y-84351381D01*
X186883665Y-84351381D01*
X186883635Y-84351303D01*
X186899471Y-84292202D01*
X186912490Y-84276123D01*
X188194120Y-82994493D01*
X188248635Y-82966718D01*
X188309067Y-82976289D01*
X188352332Y-83019554D01*
X188359748Y-83038875D01*
X188382607Y-83124185D01*
X188382609Y-83124189D01*
X188448496Y-83238309D01*
X188448498Y-83238311D01*
X188448500Y-83238314D01*
X188541686Y-83331500D01*
X188541688Y-83331501D01*
X188541690Y-83331503D01*
X188655810Y-83397390D01*
X188655808Y-83397390D01*
X188655812Y-83397391D01*
X188655814Y-83397392D01*
X188783108Y-83431500D01*
X188783110Y-83431500D01*
X188914890Y-83431500D01*
X188914892Y-83431500D01*
X189042186Y-83397392D01*
X189042188Y-83397390D01*
X189042190Y-83397390D01*
X189156309Y-83331503D01*
X189156309Y-83331502D01*
X189156314Y-83331500D01*
X189249500Y-83238314D01*
X189315392Y-83124186D01*
X189349500Y-82996892D01*
X189349500Y-82865108D01*
X189315392Y-82737814D01*
X189315390Y-82737811D01*
X189315390Y-82737809D01*
X189249503Y-82623690D01*
X189249501Y-82623688D01*
X189249500Y-82623686D01*
X189156314Y-82530500D01*
X189156311Y-82530498D01*
X189156309Y-82530496D01*
X189042189Y-82464609D01*
X189042185Y-82464607D01*
X188956875Y-82441748D01*
X188905561Y-82408424D01*
X188883635Y-82351303D01*
X188899471Y-82292202D01*
X188912490Y-82276123D01*
X190194120Y-80994493D01*
X190248635Y-80966718D01*
X190309067Y-80976289D01*
X190352332Y-81019554D01*
X190359748Y-81038875D01*
X190382607Y-81124185D01*
X190382609Y-81124189D01*
X190448496Y-81238309D01*
X190448498Y-81238311D01*
X190448500Y-81238314D01*
X190541686Y-81331500D01*
X190541688Y-81331501D01*
X190541690Y-81331503D01*
X190655810Y-81397390D01*
X190655808Y-81397390D01*
X190655812Y-81397391D01*
X190655814Y-81397392D01*
X190783108Y-81431500D01*
X190783110Y-81431500D01*
X190914890Y-81431500D01*
X190914892Y-81431500D01*
X191042186Y-81397392D01*
X191042188Y-81397390D01*
X191042190Y-81397390D01*
X191156309Y-81331503D01*
X191156309Y-81331502D01*
X191156314Y-81331500D01*
X191249500Y-81238314D01*
X191263187Y-81214608D01*
X191315390Y-81124190D01*
X191315390Y-81124188D01*
X191315392Y-81124186D01*
X191349500Y-80996892D01*
X191349500Y-80865108D01*
X191315392Y-80737814D01*
X191315390Y-80737811D01*
X191315390Y-80737809D01*
X191249503Y-80623690D01*
X191249501Y-80623688D01*
X191249500Y-80623686D01*
X191156314Y-80530500D01*
X191156311Y-80530498D01*
X191156309Y-80530496D01*
X191042189Y-80464609D01*
X191042191Y-80464609D01*
X191008793Y-80455660D01*
X190956874Y-80441749D01*
X190905562Y-80408426D01*
X190883635Y-80351305D01*
X190899470Y-80292204D01*
X190912495Y-80276119D01*
X191308453Y-79880162D01*
X191838119Y-79350496D01*
X191892636Y-79322719D01*
X191908123Y-79321500D01*
X193684282Y-79321500D01*
X193742473Y-79340407D01*
G37*
%TD.AperFunction*%
%TA.AperFunction,Conductor*%
G36*
X186278068Y-75319407D02*
G01*
X186314032Y-75368907D01*
X186314032Y-75430093D01*
X186289880Y-75469504D01*
X186192879Y-75566504D01*
X186138363Y-75594281D01*
X186122876Y-75595500D01*
X186118892Y-75595500D01*
X185987108Y-75595500D01*
X185909200Y-75616375D01*
X185859809Y-75629609D01*
X185745690Y-75695496D01*
X185652496Y-75788690D01*
X185586609Y-75902809D01*
X185579442Y-75929557D01*
X185552500Y-76030108D01*
X185552500Y-76161892D01*
X185552996Y-76163743D01*
X185586609Y-76289190D01*
X185652496Y-76403309D01*
X185652498Y-76403311D01*
X185652500Y-76403314D01*
X185745686Y-76496500D01*
X185745688Y-76496501D01*
X185745690Y-76496503D01*
X185859810Y-76562390D01*
X185859808Y-76562390D01*
X185859812Y-76562391D01*
X185859814Y-76562392D01*
X185987108Y-76596500D01*
X185987110Y-76596500D01*
X186118890Y-76596500D01*
X186118892Y-76596500D01*
X186246186Y-76562392D01*
X186304000Y-76529012D01*
X186363847Y-76516291D01*
X186419743Y-76541177D01*
X186450336Y-76594165D01*
X186451525Y-76605474D01*
X186451653Y-76605458D01*
X186452499Y-76611889D01*
X186486609Y-76739190D01*
X186552496Y-76853309D01*
X186552498Y-76853311D01*
X186552500Y-76853314D01*
X186645686Y-76946500D01*
X186645688Y-76946501D01*
X186645690Y-76946503D01*
X186759810Y-77012390D01*
X186759808Y-77012390D01*
X186759812Y-77012391D01*
X186759814Y-77012392D01*
X186887108Y-77046500D01*
X186887110Y-77046500D01*
X187018890Y-77046500D01*
X187018892Y-77046500D01*
X187146186Y-77012392D01*
X187146188Y-77012390D01*
X187146190Y-77012390D01*
X187260309Y-76946503D01*
X187260309Y-76946502D01*
X187260314Y-76946500D01*
X187353500Y-76853314D01*
X187356680Y-76847806D01*
X187419390Y-76739190D01*
X187419390Y-76739188D01*
X187419392Y-76739186D01*
X187453500Y-76611892D01*
X187453500Y-76480108D01*
X187419392Y-76352814D01*
X187419390Y-76352811D01*
X187419390Y-76352809D01*
X187353503Y-76238690D01*
X187353501Y-76238688D01*
X187353500Y-76238686D01*
X187260314Y-76145500D01*
X187260311Y-76145498D01*
X187255725Y-76140912D01*
X187257871Y-76138765D01*
X187230281Y-76098642D01*
X187231867Y-76037477D01*
X187269102Y-75988926D01*
X187325197Y-75971500D01*
X188807799Y-75971500D01*
X188807800Y-75971500D01*
X188909058Y-75929557D01*
X188986557Y-75852058D01*
X188986556Y-75852058D01*
X189038120Y-75800494D01*
X189092635Y-75772719D01*
X189108122Y-75771500D01*
X191398679Y-75771500D01*
X191456870Y-75790407D01*
X191492834Y-75839907D01*
X191492834Y-75901093D01*
X191468684Y-75940501D01*
X191420500Y-75988686D01*
X191402497Y-76006689D01*
X191402496Y-76006690D01*
X191336609Y-76120809D01*
X191336608Y-76120814D01*
X191302500Y-76248108D01*
X191302500Y-76379892D01*
X191308775Y-76403309D01*
X191336609Y-76507191D01*
X191339092Y-76513184D01*
X191336241Y-76514364D01*
X191346335Y-76561847D01*
X191321449Y-76617743D01*
X191268461Y-76648336D01*
X191247877Y-76650500D01*
X190443560Y-76650500D01*
X190361802Y-76650500D01*
X190282832Y-76671660D01*
X190224897Y-76705109D01*
X190212026Y-76712540D01*
X190104537Y-76820029D01*
X190050021Y-76847806D01*
X189989589Y-76838234D01*
X189946324Y-76794970D01*
X189938909Y-76775653D01*
X189919392Y-76702814D01*
X189919390Y-76702811D01*
X189919390Y-76702809D01*
X189853503Y-76588690D01*
X189853501Y-76588688D01*
X189853500Y-76588686D01*
X189760314Y-76495500D01*
X189760311Y-76495498D01*
X189760309Y-76495496D01*
X189646189Y-76429609D01*
X189646191Y-76429609D01*
X189596799Y-76416375D01*
X189518892Y-76395500D01*
X189387108Y-76395500D01*
X189309200Y-76416375D01*
X189259809Y-76429609D01*
X189145690Y-76495496D01*
X189052496Y-76588690D01*
X188986609Y-76702809D01*
X188986608Y-76702814D01*
X188952500Y-76830108D01*
X188952500Y-76961892D01*
X188982579Y-77074151D01*
X188986609Y-77089190D01*
X189052496Y-77203309D01*
X189052498Y-77203311D01*
X189052500Y-77203314D01*
X189145686Y-77296500D01*
X189145688Y-77296501D01*
X189145690Y-77296503D01*
X189259810Y-77362390D01*
X189259808Y-77362390D01*
X189259812Y-77362391D01*
X189259814Y-77362392D01*
X189321531Y-77378929D01*
X189372844Y-77412252D01*
X189394771Y-77469373D01*
X189378936Y-77528474D01*
X189331386Y-77566979D01*
X189295907Y-77573555D01*
X189267108Y-77573555D01*
X189200483Y-77591407D01*
X189139809Y-77607664D01*
X189025690Y-77673551D01*
X188932496Y-77766745D01*
X188866609Y-77880864D01*
X188853548Y-77929609D01*
X188832500Y-78008163D01*
X188832500Y-78139947D01*
X188847653Y-78196500D01*
X188866609Y-78267245D01*
X188932496Y-78381364D01*
X188932498Y-78381366D01*
X188932500Y-78381369D01*
X189025686Y-78474555D01*
X189025688Y-78474556D01*
X189025690Y-78474558D01*
X189139810Y-78540445D01*
X189139808Y-78540445D01*
X189139812Y-78540446D01*
X189139814Y-78540447D01*
X189267108Y-78574555D01*
X189267110Y-78574555D01*
X189398890Y-78574555D01*
X189398892Y-78574555D01*
X189526186Y-78540447D01*
X189526188Y-78540445D01*
X189526190Y-78540445D01*
X189640309Y-78474558D01*
X189640309Y-78474557D01*
X189640314Y-78474555D01*
X189640317Y-78474551D01*
X189645460Y-78470606D01*
X189646818Y-78472376D01*
X189692513Y-78449095D01*
X189752945Y-78458666D01*
X189755336Y-78459926D01*
X189767893Y-78466762D01*
X189775686Y-78474555D01*
X189889814Y-78540447D01*
X189916258Y-78547532D01*
X189926599Y-78553162D01*
X189939933Y-78567245D01*
X189956200Y-78577809D01*
X189960471Y-78588936D01*
X189968666Y-78597591D01*
X189971176Y-78616823D01*
X189978127Y-78634931D01*
X189975042Y-78646442D01*
X189976585Y-78658262D01*
X189967310Y-78675298D01*
X189962291Y-78694031D01*
X189949267Y-78710116D01*
X187496194Y-81163190D01*
X187441677Y-81190967D01*
X187381245Y-81181396D01*
X187337980Y-81138131D01*
X187328409Y-81077699D01*
X187330559Y-81067580D01*
X187349500Y-80996892D01*
X187349500Y-80865108D01*
X187315392Y-80737814D01*
X187315390Y-80737811D01*
X187315390Y-80737809D01*
X187249503Y-80623690D01*
X187249501Y-80623688D01*
X187249500Y-80623686D01*
X187156314Y-80530500D01*
X187156311Y-80530498D01*
X187156309Y-80530496D01*
X187042189Y-80464609D01*
X187042191Y-80464609D01*
X186970858Y-80445496D01*
X186914892Y-80430500D01*
X186783108Y-80430500D01*
X186727142Y-80445496D01*
X186655809Y-80464609D01*
X186541690Y-80530496D01*
X186448496Y-80623690D01*
X186382609Y-80737809D01*
X186379713Y-80748618D01*
X186348500Y-80865108D01*
X186348500Y-80996892D01*
X186359833Y-81039186D01*
X186382609Y-81124190D01*
X186448496Y-81238309D01*
X186448498Y-81238311D01*
X186448500Y-81238314D01*
X186541686Y-81331500D01*
X186541688Y-81331501D01*
X186541690Y-81331503D01*
X186655810Y-81397390D01*
X186655808Y-81397390D01*
X186655812Y-81397391D01*
X186655814Y-81397392D01*
X186783108Y-81431500D01*
X186783110Y-81431500D01*
X186914890Y-81431500D01*
X186914892Y-81431500D01*
X186985565Y-81412563D01*
X187046664Y-81415765D01*
X187094214Y-81454270D01*
X187110050Y-81513371D01*
X187088124Y-81570492D01*
X187081190Y-81578194D01*
X185684647Y-82974738D01*
X185630130Y-83002515D01*
X185614643Y-83003734D01*
X184867092Y-83003734D01*
X184808901Y-82984827D01*
X184797088Y-82974738D01*
X184794272Y-82971922D01*
X184794271Y-82971920D01*
X184701085Y-82878734D01*
X184701082Y-82878732D01*
X184596504Y-82818353D01*
X184555564Y-82772883D01*
X184549169Y-82712033D01*
X184575999Y-82662615D01*
X186036557Y-81202059D01*
X186055842Y-81155500D01*
X186078500Y-81100800D01*
X186078500Y-80069321D01*
X186097407Y-80011130D01*
X186107496Y-79999317D01*
X186110311Y-79996501D01*
X186110314Y-79996500D01*
X186203500Y-79903314D01*
X186206995Y-79897261D01*
X186269390Y-79789190D01*
X186269390Y-79789188D01*
X186269392Y-79789186D01*
X186303500Y-79661892D01*
X186303500Y-79530108D01*
X186269392Y-79402814D01*
X186269390Y-79402811D01*
X186269390Y-79402809D01*
X186203503Y-79288690D01*
X186203501Y-79288688D01*
X186203500Y-79288686D01*
X186110314Y-79195500D01*
X186110311Y-79195498D01*
X186110309Y-79195496D01*
X185996189Y-79129609D01*
X185996191Y-79129609D01*
X185946799Y-79116375D01*
X185868892Y-79095500D01*
X185737108Y-79095500D01*
X185659200Y-79116375D01*
X185609809Y-79129609D01*
X185495690Y-79195496D01*
X185402496Y-79288690D01*
X185336609Y-79402809D01*
X185336608Y-79402814D01*
X185302500Y-79530108D01*
X185302500Y-79661892D01*
X185316640Y-79714662D01*
X185336609Y-79789190D01*
X185402496Y-79903309D01*
X185402498Y-79903311D01*
X185402500Y-79903314D01*
X185495686Y-79996500D01*
X185495688Y-79996501D01*
X185498504Y-79999317D01*
X185526281Y-80053834D01*
X185527500Y-80069321D01*
X185527500Y-80890876D01*
X185508593Y-80949067D01*
X185498504Y-80960880D01*
X183646942Y-82812443D01*
X183646941Y-82812442D01*
X183569446Y-82889938D01*
X183569444Y-82889940D01*
X183569443Y-82889942D01*
X183539434Y-82962390D01*
X183527500Y-82991200D01*
X183527500Y-84790876D01*
X183508593Y-84849067D01*
X183498504Y-84860880D01*
X183123504Y-85235880D01*
X183068987Y-85263657D01*
X183008555Y-85254086D01*
X182965290Y-85210821D01*
X182954500Y-85165876D01*
X182954500Y-81394194D01*
X182973407Y-81336003D01*
X183022907Y-81300039D01*
X183084093Y-81300039D01*
X183103002Y-81308459D01*
X183109814Y-81312392D01*
X183237108Y-81346500D01*
X183237110Y-81346500D01*
X183368890Y-81346500D01*
X183368892Y-81346500D01*
X183496186Y-81312392D01*
X183496188Y-81312390D01*
X183496190Y-81312390D01*
X183610309Y-81246503D01*
X183610309Y-81246502D01*
X183610314Y-81246500D01*
X183703500Y-81153314D01*
X183720315Y-81124190D01*
X183769390Y-81039190D01*
X183769390Y-81039188D01*
X183769392Y-81039186D01*
X183803500Y-80911892D01*
X183803500Y-80780108D01*
X183769392Y-80652814D01*
X183769390Y-80652811D01*
X183769390Y-80652809D01*
X183703503Y-80538690D01*
X183703501Y-80538688D01*
X183703500Y-80538686D01*
X183610314Y-80445500D01*
X183610311Y-80445498D01*
X183610309Y-80445496D01*
X183496189Y-80379609D01*
X183496191Y-80379609D01*
X183431270Y-80362214D01*
X183368892Y-80345500D01*
X183237108Y-80345500D01*
X183140537Y-80371376D01*
X183109810Y-80379609D01*
X183102999Y-80383542D01*
X183092652Y-80385741D01*
X183084093Y-80391960D01*
X183063395Y-80391960D01*
X183043151Y-80396263D01*
X183033486Y-80391960D01*
X183022907Y-80391960D01*
X183006162Y-80379794D01*
X182987255Y-80371376D01*
X182981965Y-80362214D01*
X182973407Y-80355996D01*
X182967011Y-80336311D01*
X182956663Y-80318387D01*
X182954500Y-80297805D01*
X182954500Y-80225123D01*
X182973407Y-80166932D01*
X182983496Y-80155119D01*
X184438120Y-78700496D01*
X184492637Y-78672719D01*
X184508124Y-78671500D01*
X185879679Y-78671500D01*
X185937870Y-78690407D01*
X185949683Y-78700496D01*
X185952498Y-78703311D01*
X185952500Y-78703314D01*
X186045686Y-78796500D01*
X186045688Y-78796501D01*
X186045690Y-78796503D01*
X186159810Y-78862390D01*
X186159808Y-78862390D01*
X186159812Y-78862391D01*
X186159814Y-78862392D01*
X186287108Y-78896500D01*
X186287110Y-78896500D01*
X186418890Y-78896500D01*
X186418892Y-78896500D01*
X186546186Y-78862392D01*
X186546188Y-78862390D01*
X186546190Y-78862390D01*
X186660309Y-78796503D01*
X186660309Y-78796502D01*
X186660314Y-78796500D01*
X186732998Y-78723815D01*
X186787513Y-78696040D01*
X186847945Y-78705611D01*
X186873000Y-78723814D01*
X186945686Y-78796500D01*
X186945688Y-78796501D01*
X186945690Y-78796503D01*
X187059810Y-78862390D01*
X187059808Y-78862390D01*
X187059812Y-78862391D01*
X187059814Y-78862392D01*
X187187108Y-78896500D01*
X187187110Y-78896500D01*
X187318890Y-78896500D01*
X187318892Y-78896500D01*
X187446186Y-78862392D01*
X187446188Y-78862390D01*
X187446190Y-78862390D01*
X187560309Y-78796503D01*
X187560309Y-78796502D01*
X187560314Y-78796500D01*
X187653500Y-78703314D01*
X187692981Y-78634931D01*
X187719390Y-78589190D01*
X187719390Y-78589188D01*
X187719392Y-78589186D01*
X187753500Y-78461892D01*
X187753500Y-78330108D01*
X187719392Y-78202814D01*
X187719390Y-78202811D01*
X187719390Y-78202809D01*
X187653503Y-78088690D01*
X187653501Y-78088688D01*
X187653500Y-78088686D01*
X187560314Y-77995500D01*
X187560311Y-77995498D01*
X187560309Y-77995496D01*
X187446189Y-77929609D01*
X187446191Y-77929609D01*
X187396799Y-77916375D01*
X187318892Y-77895500D01*
X187187108Y-77895500D01*
X187183123Y-77895500D01*
X187124932Y-77876593D01*
X187113120Y-77866504D01*
X186859057Y-77612442D01*
X186847520Y-77607664D01*
X186847518Y-77607662D01*
X186847518Y-77607663D01*
X186757800Y-77570500D01*
X183848200Y-77570500D01*
X183758482Y-77607663D01*
X183758481Y-77607663D01*
X183746944Y-77612441D01*
X181396942Y-79962443D01*
X181396941Y-79962442D01*
X181319446Y-80039938D01*
X181319444Y-80039940D01*
X181319443Y-80039942D01*
X181288418Y-80114843D01*
X181277500Y-80141200D01*
X181277500Y-83322377D01*
X181258593Y-83380568D01*
X181209093Y-83416532D01*
X181152878Y-83418003D01*
X181068892Y-83395500D01*
X180937108Y-83395500D01*
X180859200Y-83416375D01*
X180809809Y-83429609D01*
X180695690Y-83495496D01*
X180602496Y-83588690D01*
X180536609Y-83702809D01*
X180519133Y-83768031D01*
X180506488Y-83815227D01*
X180502500Y-83830109D01*
X180502500Y-83930315D01*
X180489236Y-83979816D01*
X180485236Y-83986744D01*
X180439766Y-84027685D01*
X180378916Y-84034079D01*
X180325928Y-84003486D01*
X180301042Y-83947590D01*
X180300500Y-83937243D01*
X180300500Y-76004861D01*
X180300977Y-75995157D01*
X180307438Y-75929556D01*
X180312985Y-75873233D01*
X180316771Y-75854203D01*
X180318851Y-75847348D01*
X180350915Y-75741643D01*
X180358342Y-75723714D01*
X180413791Y-75619977D01*
X180424573Y-75603841D01*
X180499196Y-75512912D01*
X180512912Y-75499196D01*
X180603842Y-75424571D01*
X180619977Y-75413791D01*
X180723716Y-75358340D01*
X180741643Y-75350915D01*
X180854207Y-75316770D01*
X180873233Y-75312985D01*
X180995157Y-75300976D01*
X181004861Y-75300500D01*
X181047595Y-75300500D01*
X186219877Y-75300500D01*
X186278068Y-75319407D01*
G37*
%TD.AperFunction*%
%TA.AperFunction,Conductor*%
G36*
X204651027Y-75790407D02*
G01*
X204686991Y-75839907D01*
X204686991Y-75896198D01*
X204688288Y-75896546D01*
X204686608Y-75902812D01*
X204686608Y-75902814D01*
X204652500Y-76030108D01*
X204652500Y-76161892D01*
X204652996Y-76163743D01*
X204686609Y-76289190D01*
X204752496Y-76403309D01*
X204752498Y-76403311D01*
X204752500Y-76403314D01*
X204845686Y-76496500D01*
X204845688Y-76496501D01*
X204845690Y-76496503D01*
X204959810Y-76562390D01*
X204959808Y-76562390D01*
X204959812Y-76562391D01*
X204959814Y-76562392D01*
X205087108Y-76596500D01*
X205087110Y-76596500D01*
X205218890Y-76596500D01*
X205218892Y-76596500D01*
X205346186Y-76562392D01*
X205346188Y-76562390D01*
X205346190Y-76562390D01*
X205460309Y-76496503D01*
X205460309Y-76496502D01*
X205460314Y-76496500D01*
X205553500Y-76403314D01*
X205553503Y-76403309D01*
X205619390Y-76289190D01*
X205619390Y-76289188D01*
X205619392Y-76289186D01*
X205653500Y-76161892D01*
X205653500Y-76030108D01*
X205619392Y-75902814D01*
X205619391Y-75902812D01*
X205617712Y-75896546D01*
X205620697Y-75895746D01*
X205616909Y-75847348D01*
X205648901Y-75795192D01*
X205705439Y-75771802D01*
X205713164Y-75771500D01*
X214760149Y-75771500D01*
X214818340Y-75790407D01*
X214830153Y-75800496D01*
X218080993Y-79051337D01*
X218108770Y-79105854D01*
X218099199Y-79166286D01*
X218055934Y-79209551D01*
X218030304Y-79218439D01*
X217916749Y-79241027D01*
X217743766Y-79312678D01*
X217659974Y-79368666D01*
X217601086Y-79385274D01*
X217543683Y-79364096D01*
X217534970Y-79356354D01*
X217154043Y-78975427D01*
X215991058Y-77812443D01*
X215991056Y-77812442D01*
X215991055Y-77812441D01*
X215976557Y-77806436D01*
X215976556Y-77806436D01*
X215889800Y-77770500D01*
X215889799Y-77770500D01*
X201421495Y-77770500D01*
X201363304Y-77751593D01*
X201327340Y-77702093D01*
X201327340Y-77640907D01*
X201363304Y-77591407D01*
X201395869Y-77575874D01*
X201446186Y-77562392D01*
X201446188Y-77562390D01*
X201446190Y-77562390D01*
X201560309Y-77496503D01*
X201560309Y-77496502D01*
X201560314Y-77496500D01*
X201653500Y-77403314D01*
X201657434Y-77396500D01*
X201719390Y-77289190D01*
X201719390Y-77289188D01*
X201719392Y-77289186D01*
X201753500Y-77161892D01*
X201753500Y-77030108D01*
X201719392Y-76902814D01*
X201719390Y-76902811D01*
X201719390Y-76902809D01*
X201653503Y-76788690D01*
X201653501Y-76788688D01*
X201653500Y-76788686D01*
X201560314Y-76695500D01*
X201560311Y-76695498D01*
X201560309Y-76695496D01*
X201446189Y-76629609D01*
X201446191Y-76629609D01*
X201380068Y-76611892D01*
X201318892Y-76595500D01*
X201187108Y-76595500D01*
X201125932Y-76611892D01*
X201059809Y-76629609D01*
X200945690Y-76695496D01*
X200852496Y-76788690D01*
X200786609Y-76902809D01*
X200767539Y-76973978D01*
X200752500Y-77030108D01*
X200752500Y-77161892D01*
X200763598Y-77203309D01*
X200786609Y-77289190D01*
X200852496Y-77403309D01*
X200852498Y-77403311D01*
X200852500Y-77403314D01*
X200945686Y-77496500D01*
X200945688Y-77496501D01*
X200945690Y-77496503D01*
X201059810Y-77562390D01*
X201059808Y-77562390D01*
X201059812Y-77562391D01*
X201059814Y-77562392D01*
X201110129Y-77575873D01*
X201161442Y-77609197D01*
X201183369Y-77666319D01*
X201167533Y-77725419D01*
X201119984Y-77763924D01*
X201084505Y-77770500D01*
X199883322Y-77770500D01*
X199825131Y-77751593D01*
X199789167Y-77702093D01*
X199787695Y-77645878D01*
X199791920Y-77630108D01*
X199803500Y-77586892D01*
X199803500Y-77455108D01*
X199769392Y-77327814D01*
X199769390Y-77327811D01*
X199769390Y-77327809D01*
X199703503Y-77213690D01*
X199699551Y-77208540D01*
X199701321Y-77207181D01*
X199678040Y-77161487D01*
X199687611Y-77101055D01*
X199700092Y-77083875D01*
X199699551Y-77083460D01*
X199703496Y-77078317D01*
X199703500Y-77078314D01*
X199741560Y-77012392D01*
X199769390Y-76964190D01*
X199769390Y-76964188D01*
X199769392Y-76964186D01*
X199803500Y-76836892D01*
X199803500Y-76705108D01*
X199769392Y-76577814D01*
X199769390Y-76577811D01*
X199769390Y-76577809D01*
X199703503Y-76463690D01*
X199703501Y-76463688D01*
X199703500Y-76463686D01*
X199610314Y-76370500D01*
X199610311Y-76370498D01*
X199610309Y-76370496D01*
X199496189Y-76304609D01*
X199496191Y-76304609D01*
X199469825Y-76297544D01*
X199423003Y-76284998D01*
X199371691Y-76251676D01*
X199349764Y-76194555D01*
X199353002Y-76163749D01*
X199353500Y-76161892D01*
X199353500Y-76030108D01*
X199319392Y-75902814D01*
X199319391Y-75902812D01*
X199317712Y-75896546D01*
X199320697Y-75895746D01*
X199316909Y-75847348D01*
X199348901Y-75795192D01*
X199405439Y-75771802D01*
X199413164Y-75771500D01*
X204592836Y-75771500D01*
X204651027Y-75790407D01*
G37*
%TD.AperFunction*%
%TD*%
M02*
