%TF.GenerationSoftware,KiCad,Pcbnew,9.0.3*%
%TF.CreationDate,2025-08-28T21:01:50-07:00*%
%TF.ProjectId,xyp-gpib,7879702d-6770-4696-922e-6b696361645f,rev?*%
%TF.SameCoordinates,Original*%
%TF.FileFunction,Copper,L1,Top*%
%TF.FilePolarity,Positive*%
%FSLAX46Y46*%
G04 Gerber Fmt 4.6, Leading zero omitted, Abs format (unit mm)*
G04 Created by KiCad (PCBNEW 9.0.3) date 2025-08-28 21:01:50*
%MOMM*%
%LPD*%
G01*
G04 APERTURE LIST*
G04 Aperture macros list*
%AMRoundRect*
0 Rectangle with rounded corners*
0 $1 Rounding radius*
0 $2 $3 $4 $5 $6 $7 $8 $9 X,Y pos of 4 corners*
0 Add a 4 corners polygon primitive as box body*
4,1,4,$2,$3,$4,$5,$6,$7,$8,$9,$2,$3,0*
0 Add four circle primitives for the rounded corners*
1,1,$1+$1,$2,$3*
1,1,$1+$1,$4,$5*
1,1,$1+$1,$6,$7*
1,1,$1+$1,$8,$9*
0 Add four rect primitives between the rounded corners*
20,1,$1+$1,$2,$3,$4,$5,0*
20,1,$1+$1,$4,$5,$6,$7,0*
20,1,$1+$1,$6,$7,$8,$9,0*
20,1,$1+$1,$8,$9,$2,$3,0*%
%AMFreePoly0*
4,1,19,0.376977,1.035496,0.413304,0.985496,0.418199,0.954594,0.418198,0.500000,0.500000,0.500000,0.500000,-0.500000,0.418198,-0.499999,0.418198,-1.081873,0.399100,-1.140652,0.349100,-1.176979,0.287296,-1.176979,0.247487,-1.152584,-1.788980,0.883883,-1.817038,0.938952,-1.807370,0.999993,-1.763668,1.043695,-1.718269,1.054594,0.318198,1.054595,0.376977,1.035496,0.376977,1.035496,
$1*%
%AMFreePoly1*
4,1,23,0.376977,1.162775,0.413304,1.112775,0.418198,1.081873,0.418198,0.499999,0.500000,0.500000,0.500000,-0.500000,0.418198,-0.500000,0.418199,-0.954594,0.399100,-1.013373,0.349100,-1.049700,0.318198,-1.054595,-2.100106,-1.054594,-2.158886,-1.035496,-2.170818,-1.025305,-3.189052,-0.007071,-3.217110,0.047997,-3.207442,0.109039,-3.189052,0.134351,-2.170818,1.152584,-2.115750,1.180642,
-2.100106,1.181873,0.318198,1.181872,0.376977,1.162775,0.376977,1.162775,$1*%
%AMFreePoly2*
4,1,19,0.363597,1.170974,0.407299,1.127272,0.418198,1.081873,0.418198,0.499999,0.500000,0.500000,0.500000,-0.500000,0.418198,-0.500000,0.418199,-0.954594,0.399100,-1.013373,0.349100,-1.049700,0.318198,-1.054595,-1.718269,-1.054594,-1.777048,-1.035496,-1.813375,-0.985496,-1.813375,-0.923692,-1.788980,-0.883883,0.247487,1.152584,0.302555,1.180642,0.363597,1.170974,0.363597,1.170974,
$1*%
G04 Aperture macros list end*
%TA.AperFunction,SMDPad,CuDef*%
%ADD10RoundRect,0.250000X0.475000X-0.250000X0.475000X0.250000X-0.475000X0.250000X-0.475000X-0.250000X0*%
%TD*%
%TA.AperFunction,SMDPad,CuDef*%
%ADD11RoundRect,0.225000X0.250000X-0.225000X0.250000X0.225000X-0.250000X0.225000X-0.250000X-0.225000X0*%
%TD*%
%TA.AperFunction,SMDPad,CuDef*%
%ADD12RoundRect,0.225000X0.225000X0.250000X-0.225000X0.250000X-0.225000X-0.250000X0.225000X-0.250000X0*%
%TD*%
%TA.AperFunction,SMDPad,CuDef*%
%ADD13RoundRect,0.243750X0.243750X0.456250X-0.243750X0.456250X-0.243750X-0.456250X0.243750X-0.456250X0*%
%TD*%
%TA.AperFunction,SMDPad,CuDef*%
%ADD14RoundRect,0.200000X-0.275000X0.200000X-0.275000X-0.200000X0.275000X-0.200000X0.275000X0.200000X0*%
%TD*%
%TA.AperFunction,SMDPad,CuDef*%
%ADD15RoundRect,0.200000X-0.200000X-0.275000X0.200000X-0.275000X0.200000X0.275000X-0.200000X0.275000X0*%
%TD*%
%TA.AperFunction,SMDPad,CuDef*%
%ADD16RoundRect,0.200000X0.275000X-0.200000X0.275000X0.200000X-0.275000X0.200000X-0.275000X-0.200000X0*%
%TD*%
%TA.AperFunction,SMDPad,CuDef*%
%ADD17RoundRect,0.062500X-0.062500X0.475000X-0.062500X-0.475000X0.062500X-0.475000X0.062500X0.475000X0*%
%TD*%
%TA.AperFunction,SMDPad,CuDef*%
%ADD18RoundRect,0.062500X-0.475000X0.062500X-0.475000X-0.062500X0.475000X-0.062500X0.475000X0.062500X0*%
%TD*%
%TA.AperFunction,SMDPad,CuDef*%
%ADD19R,5.200000X5.200000*%
%TD*%
%TA.AperFunction,SMDPad,CuDef*%
%ADD20FreePoly0,45.000000*%
%TD*%
%TA.AperFunction,SMDPad,CuDef*%
%ADD21FreePoly1,45.000000*%
%TD*%
%TA.AperFunction,SMDPad,CuDef*%
%ADD22FreePoly2,45.000000*%
%TD*%
%TA.AperFunction,SMDPad,CuDef*%
%ADD23RoundRect,0.225000X-0.225000X-0.250000X0.225000X-0.250000X0.225000X0.250000X-0.225000X0.250000X0*%
%TD*%
%TA.AperFunction,SMDPad,CuDef*%
%ADD24R,0.800000X0.900000*%
%TD*%
%TA.AperFunction,SMDPad,CuDef*%
%ADD25C,0.500000*%
%TD*%
%TA.AperFunction,SMDPad,CuDef*%
%ADD26R,1.150000X0.300000*%
%TD*%
%TA.AperFunction,ComponentPad*%
%ADD27O,2.100000X1.000000*%
%TD*%
%TA.AperFunction,ComponentPad*%
%ADD28O,1.600000X1.000000*%
%TD*%
%TA.AperFunction,SMDPad,CuDef*%
%ADD29R,1.000000X1.250000*%
%TD*%
%TA.AperFunction,ComponentPad*%
%ADD30R,1.500000X2.000000*%
%TD*%
%TA.AperFunction,ComponentPad*%
%ADD31O,1.500000X2.000000*%
%TD*%
%TA.AperFunction,ViaPad*%
%ADD32C,0.600000*%
%TD*%
%TA.AperFunction,Conductor*%
%ADD33C,0.150000*%
%TD*%
%TA.AperFunction,Conductor*%
%ADD34C,0.250000*%
%TD*%
%TA.AperFunction,Conductor*%
%ADD35C,0.127000*%
%TD*%
%TA.AperFunction,Conductor*%
%ADD36C,0.200000*%
%TD*%
%TA.AperFunction,Conductor*%
%ADD37C,0.220000*%
%TD*%
G04 APERTURE END LIST*
D10*
%TO.P,C1,1*%
%TO.N,+5V*%
X194564000Y-78293000D03*
%TO.P,C1,2*%
%TO.N,GND*%
X194564000Y-76393000D03*
%TD*%
D11*
%TO.P,C2,1*%
%TO.N,+5V*%
X191008000Y-77864000D03*
%TO.P,C2,2*%
%TO.N,GND*%
X191008000Y-76314000D03*
%TD*%
D12*
%TO.P,C7,1*%
%TO.N,Net-(U1-UCAP)*%
X188481000Y-77343000D03*
%TO.P,C7,2*%
%TO.N,GND*%
X186931000Y-77343000D03*
%TD*%
D13*
%TO.P,D1,1,K*%
%TO.N,Net-(D1-K)*%
X200987900Y-82600800D03*
%TO.P,D1,2,A*%
%TO.N,Net-(D1-A)*%
X199112900Y-82600800D03*
%TD*%
D14*
%TO.P,R1,1*%
%TO.N,+5V*%
X185039000Y-76264000D03*
%TO.P,R1,2*%
%TO.N,Net-(ISP1-~{RST})*%
X185039000Y-77914000D03*
%TD*%
D15*
%TO.P,R2,1*%
%TO.N,/Db+*%
X200470000Y-77978000D03*
%TO.P,R2,2*%
%TO.N,/Da-*%
X202120000Y-77978000D03*
%TD*%
%TO.P,R3,1*%
%TO.N,/Db-*%
X200470000Y-76327000D03*
%TO.P,R3,2*%
%TO.N,/Da+*%
X202120000Y-76327000D03*
%TD*%
%TO.P,R4,1*%
%TO.N,Net-(D1-K)*%
X203289400Y-82600800D03*
%TO.P,R4,2*%
%TO.N,GND*%
X204939400Y-82600800D03*
%TD*%
D16*
%TO.P,R5,1*%
%TO.N,/ATN*%
X197866000Y-77914000D03*
%TO.P,R5,2*%
%TO.N,GND*%
X197866000Y-76264000D03*
%TD*%
D17*
%TO.P,U1,1,PE6*%
%TO.N,unconnected-(U1-PE6-Pad1)*%
X191349000Y-79593500D03*
%TO.P,U1,2,UVCC*%
%TO.N,+5V*%
X190849000Y-79593500D03*
%TO.P,U1,3,D-*%
%TO.N,/Db+*%
X190349000Y-79593500D03*
%TO.P,U1,4,D+*%
%TO.N,/Db-*%
X189849000Y-79593500D03*
%TO.P,U1,5,UGND*%
%TO.N,GND*%
X189349000Y-79593500D03*
%TO.P,U1,6,UCAP*%
%TO.N,Net-(U1-UCAP)*%
X188849000Y-79593500D03*
%TO.P,U1,7,VBUS*%
%TO.N,+5V*%
X188349000Y-79593500D03*
%TO.P,U1,8,PB0*%
%TO.N,unconnected-(U1-PB0-Pad8)*%
X187849000Y-79593500D03*
%TO.P,U1,9,PB1*%
%TO.N,/SCK*%
X187349000Y-79593500D03*
%TO.P,U1,10,PB2*%
%TO.N,/MOSI*%
X186849000Y-79593500D03*
%TO.P,U1,11,PB3*%
%TO.N,/MISO*%
X186349000Y-79593500D03*
D18*
%TO.P,U1,12,PB7*%
%TO.N,unconnected-(U1-PB7-Pad12)*%
X185511500Y-80431000D03*
%TO.P,U1,13,~{RESET}*%
%TO.N,Net-(ISP1-~{RST})*%
X185511500Y-80931000D03*
%TO.P,U1,14,VCC*%
%TO.N,+5V*%
X185511500Y-81431000D03*
%TO.P,U1,15,GND*%
%TO.N,GND*%
X185511500Y-81931000D03*
%TO.P,U1,16,XTAL2*%
%TO.N,Net-(U1-XTAL2)*%
X185511500Y-82431000D03*
%TO.P,U1,17,XTAL1*%
%TO.N,Net-(U1-XTAL1)*%
X185511500Y-82931000D03*
%TO.P,U1,18,PD0*%
%TO.N,/DIO1*%
X185511500Y-83431000D03*
%TO.P,U1,19,PD1*%
%TO.N,/DIO2*%
X185511500Y-83931000D03*
%TO.P,U1,20,PD2*%
%TO.N,/DIO3*%
X185511500Y-84431000D03*
%TO.P,U1,21,PD3*%
%TO.N,/DIO4*%
X185511500Y-84931000D03*
%TO.P,U1,22,PD5*%
%TO.N,/DIO6*%
X185511500Y-85431000D03*
D17*
%TO.P,U1,23,GND*%
%TO.N,GND*%
X186349000Y-86268500D03*
%TO.P,U1,24,AVCC*%
%TO.N,+5V*%
X186849000Y-86268500D03*
%TO.P,U1,25,PD4*%
%TO.N,/DIO5*%
X187349000Y-86268500D03*
%TO.P,U1,26,PD6*%
%TO.N,/DIO7*%
X187849000Y-86268500D03*
%TO.P,U1,27,PD7*%
%TO.N,/DIO8*%
X188349000Y-86268500D03*
%TO.P,U1,28,PB4*%
%TO.N,/EOI*%
X188849000Y-86268500D03*
%TO.P,U1,29,PB5*%
%TO.N,/REN*%
X189349000Y-86268500D03*
%TO.P,U1,30,PB6*%
%TO.N,/DAV*%
X189849000Y-86268500D03*
%TO.P,U1,31,PC6*%
%TO.N,/NRFD*%
X190349000Y-86268500D03*
%TO.P,U1,32,PC7*%
%TO.N,/NDAC*%
X190849000Y-86268500D03*
%TO.P,U1,33,~{HWB}/PE2*%
%TO.N,/IFC*%
X191349000Y-86268500D03*
D18*
%TO.P,U1,34,VCC*%
%TO.N,+5V*%
X192186500Y-85431000D03*
%TO.P,U1,35,GND*%
%TO.N,GND*%
X192186500Y-84931000D03*
%TO.P,U1,36,PF7*%
%TO.N,/SRQ*%
X192186500Y-84431000D03*
%TO.P,U1,37,PF6*%
%TO.N,/ATN*%
X192186500Y-83931000D03*
%TO.P,U1,38,PF5*%
%TO.N,Net-(D1-A)*%
X192186500Y-83431000D03*
%TO.P,U1,39,PF4*%
%TO.N,Net-(D2-A)*%
X192186500Y-82931000D03*
%TO.P,U1,40,PF1*%
%TO.N,unconnected-(U1-PF1-Pad40)*%
X192186500Y-82431000D03*
%TO.P,U1,41,PF0*%
%TO.N,GND*%
X192186500Y-81931000D03*
%TO.P,U1,42,AREF*%
%TO.N,unconnected-(U1-AREF-Pad42)*%
X192186500Y-81431000D03*
%TO.P,U1,43,GND*%
%TO.N,GND*%
X192186500Y-80931000D03*
%TO.P,U1,44,AVCC*%
%TO.N,+5V*%
X192186500Y-80431000D03*
D19*
%TO.P,U1,45,GND*%
%TO.N,GND*%
X188849000Y-82931000D03*
%TD*%
D20*
%TO.P,ISP1,1,MISO*%
%TO.N,/MISO*%
X184121200Y-89210800D03*
D21*
%TO.P,ISP1,3,SCK*%
%TO.N,/SCK*%
X182501200Y-87590800D03*
D22*
%TO.P,ISP1,5,~{RST}*%
%TO.N,Net-(ISP1-~{RST})*%
X180791200Y-85880800D03*
%TD*%
D23*
%TO.P,C5,1*%
%TO.N,Net-(U1-XTAL2)*%
X182232000Y-79883000D03*
%TO.P,C5,2*%
%TO.N,GND*%
X183782000Y-79883000D03*
%TD*%
D12*
%TO.P,C6,1*%
%TO.N,Net-(U1-XTAL1)*%
X183274000Y-84709000D03*
%TO.P,C6,2*%
%TO.N,GND*%
X181724000Y-84709000D03*
%TD*%
D24*
%TO.P,Y1,1,1*%
%TO.N,Net-(U1-XTAL2)*%
X182203000Y-81596000D03*
%TO.P,Y1,2,2*%
%TO.N,GND*%
X182203000Y-82996000D03*
%TO.P,Y1,3,3*%
%TO.N,Net-(U1-XTAL1)*%
X183303000Y-82996000D03*
%TO.P,Y1,4,4*%
%TO.N,GND*%
X183303000Y-81596000D03*
%TD*%
D11*
%TO.P,C3,1*%
%TO.N,+5V*%
X192659000Y-77864000D03*
%TO.P,C3,2*%
%TO.N,GND*%
X192659000Y-76314000D03*
%TD*%
D12*
%TO.P,C4,1*%
%TO.N,+5V*%
X187084000Y-88011000D03*
%TO.P,C4,2*%
%TO.N,GND*%
X185534000Y-88011000D03*
%TD*%
D25*
%TO.P,FID1,*%
%TO.N,*%
X224891600Y-89154000D03*
%TD*%
%TO.P,FID2,*%
%TO.N,*%
X181610000Y-76403200D03*
%TD*%
D26*
%TO.P,J1,A1,GND*%
%TO.N,GND*%
X226771200Y-85946800D03*
%TO.P,J1,A4,VBUS*%
%TO.N,+5V*%
X226771200Y-85146800D03*
%TO.P,J1,A5,CC1*%
%TO.N,Net-(J1-CC1)*%
X226771200Y-83846800D03*
%TO.P,J1,A6,D+*%
%TO.N,/Da+*%
X226771200Y-82846800D03*
%TO.P,J1,A7,D-*%
%TO.N,/Da-*%
X226771200Y-82346800D03*
%TO.P,J1,A8,SBU1*%
%TO.N,unconnected-(J1-SBU1-PadA8)*%
X226771200Y-81346800D03*
%TO.P,J1,A9,VBUS*%
%TO.N,+5V*%
X226771200Y-80046800D03*
%TO.P,J1,A12,GND*%
%TO.N,GND*%
X226771200Y-79246800D03*
%TO.P,J1,B1,GND*%
X226771200Y-79546800D03*
%TO.P,J1,B4,VBUS*%
%TO.N,+5V*%
X226771200Y-80346800D03*
%TO.P,J1,B5,CC2*%
%TO.N,Net-(J1-CC2)*%
X226771200Y-80846800D03*
%TO.P,J1,B6,D+*%
%TO.N,/Da+*%
X226771200Y-81846800D03*
%TO.P,J1,B7,D-*%
%TO.N,/Da-*%
X226771200Y-83346800D03*
%TO.P,J1,B8,SBU2*%
%TO.N,unconnected-(J1-SBU2-PadB8)*%
X226771200Y-84346800D03*
%TO.P,J1,B9,VBUS*%
%TO.N,+5V*%
X226771200Y-84846800D03*
%TO.P,J1,B12,GND*%
%TO.N,GND*%
X226771200Y-85646800D03*
D27*
%TO.P,J1,S1,SHIELD*%
X227336200Y-86916800D03*
D28*
X231516200Y-86916800D03*
D27*
X227336200Y-78276800D03*
D28*
X231516200Y-78276800D03*
%TD*%
D15*
%TO.P,R6,1*%
%TO.N,Net-(D2-K)*%
X211519000Y-82550000D03*
%TO.P,R6,2*%
%TO.N,GND*%
X213169000Y-82550000D03*
%TD*%
D13*
%TO.P,D2,1,K*%
%TO.N,Net-(D2-K)*%
X209522300Y-82550000D03*
%TO.P,D2,2,A*%
%TO.N,Net-(D2-A)*%
X207647300Y-82550000D03*
%TD*%
D29*
%TO.P,SW1,1,1*%
%TO.N,GND*%
X221869000Y-78675000D03*
%TO.P,SW1,2,2*%
%TO.N,/MOSI*%
X221869000Y-86425000D03*
%TD*%
D14*
%TO.P,R7,1*%
%TO.N,Net-(J1-CC1)*%
X224840800Y-83858600D03*
%TO.P,R7,2*%
%TO.N,GND*%
X224840800Y-85508600D03*
%TD*%
%TO.P,R8,1*%
%TO.N,GND*%
X224840800Y-78778600D03*
%TO.P,R8,2*%
%TO.N,Net-(J1-CC2)*%
X224840800Y-80428600D03*
%TD*%
D30*
%TO.P,GPIB1,1,1*%
%TO.N,/DIO5*%
X218194000Y-84695000D03*
D31*
%TO.P,GPIB1,2,2*%
%TO.N,/DIO1*%
X218194000Y-80405000D03*
%TO.P,GPIB1,3,3*%
%TO.N,/DIO6*%
X216034000Y-84695000D03*
%TO.P,GPIB1,4,4*%
%TO.N,/DIO2*%
X216034000Y-80405000D03*
%TO.P,GPIB1,5,5*%
%TO.N,/DIO7*%
X213874000Y-84695000D03*
%TO.P,GPIB1,6,6*%
%TO.N,/DIO3*%
X213874000Y-80405000D03*
%TO.P,GPIB1,7,7*%
%TO.N,/DIO8*%
X211714000Y-84695000D03*
%TO.P,GPIB1,8,8*%
%TO.N,/DIO4*%
X211714000Y-80405000D03*
%TO.P,GPIB1,9,9*%
%TO.N,/REN*%
X209554000Y-84695000D03*
%TO.P,GPIB1,10,10*%
%TO.N,/EOI*%
X209554000Y-80405000D03*
%TO.P,GPIB1,11,11*%
%TO.N,GND*%
X207394000Y-84695000D03*
%TO.P,GPIB1,12,12*%
%TO.N,/DAV*%
X207394000Y-80405000D03*
%TO.P,GPIB1,13,13*%
%TO.N,GND*%
X205234000Y-84695000D03*
%TO.P,GPIB1,14,14*%
%TO.N,/NRFD*%
X205234000Y-80405000D03*
%TO.P,GPIB1,15,15*%
%TO.N,GND*%
X203074000Y-84695000D03*
%TO.P,GPIB1,16,16*%
%TO.N,/NDAC*%
X203074000Y-80405000D03*
%TO.P,GPIB1,17,17*%
%TO.N,GND*%
X200914000Y-84695000D03*
%TO.P,GPIB1,18,18*%
%TO.N,/IFC*%
X200914000Y-80405000D03*
%TO.P,GPIB1,19,19*%
%TO.N,GND*%
X198754000Y-84695000D03*
%TO.P,GPIB1,20,20*%
%TO.N,/SRQ*%
X198754000Y-80405000D03*
%TO.P,GPIB1,21,21*%
%TO.N,GND*%
X196594000Y-84695000D03*
%TO.P,GPIB1,22,22*%
%TO.N,/ATN*%
X196594000Y-80405000D03*
%TO.P,GPIB1,23,23*%
%TO.N,GND*%
X194434000Y-84695000D03*
%TO.P,GPIB1,24,24*%
X194434000Y-80405000D03*
%TD*%
D32*
%TO.N,GND*%
X183303000Y-80846000D03*
X186849000Y-80931000D03*
X186953000Y-76546000D03*
X188849000Y-82931000D03*
X190849000Y-84931000D03*
X181003000Y-83896000D03*
X198853000Y-76096000D03*
X191803000Y-76314000D03*
X188849000Y-82931000D03*
X196803000Y-76296000D03*
X201253000Y-77096000D03*
X225853000Y-78896000D03*
X185706024Y-87186005D03*
X225753000Y-85696000D03*
X186849000Y-84931000D03*
X188849000Y-82931000D03*
X193453000Y-76314000D03*
X188849000Y-82931000D03*
X188849000Y-82931000D03*
X205153000Y-76096000D03*
X190849000Y-80931000D03*
X220349000Y-81681000D03*
X221853000Y-77696000D03*
X189453000Y-76896000D03*
X214103000Y-82546000D03*
X182153000Y-83796000D03*
X188849000Y-82931000D03*
%TO.N,+5V*%
X184003000Y-76246000D03*
X216349000Y-89181000D03*
X192703000Y-79746000D03*
X225653000Y-79696000D03*
X213253000Y-76096000D03*
X197099000Y-83181000D03*
X225653000Y-84596000D03*
X204253000Y-76096000D03*
X213599000Y-87431000D03*
X193153000Y-85946000D03*
X188053000Y-78346000D03*
X186847259Y-87246536D03*
X184553000Y-81496000D03*
%TO.N,/EOI*%
X209610200Y-86833200D03*
%TO.N,/DIO4*%
X184553000Y-86546000D03*
%TO.N,/DIO3*%
X183728000Y-86046000D03*
%TO.N,/DIO6*%
X185511500Y-86187500D03*
%TO.N,/DIO2*%
X184403000Y-84046000D03*
%TO.N,/DIO1*%
X184393771Y-83279234D03*
%TO.N,/MOSI*%
X186053000Y-76096000D03*
X219653000Y-80896000D03*
X186353000Y-78396000D03*
%TO.N,Net-(D1-A)*%
X197903000Y-82496000D03*
X195053000Y-82496000D03*
%TO.N,/SCK*%
X182153000Y-85796000D03*
X187253000Y-78396000D03*
%TO.N,/MISO*%
X183903000Y-87696000D03*
X185803000Y-79596000D03*
%TO.N,/Db+*%
X199303000Y-77521000D03*
X190083000Y-78074055D03*
%TO.N,/Db-*%
X189333000Y-78074055D03*
X199303000Y-76771000D03*
%TO.N,Net-(D2-A)*%
X206603000Y-82546000D03*
X193253000Y-81946000D03*
%TD*%
D33*
%TO.N,Net-(U1-XTAL2)*%
X184018000Y-82296000D02*
X184153000Y-82431000D01*
X182753000Y-82296000D02*
X184018000Y-82296000D01*
X184153000Y-82431000D02*
X185511500Y-82431000D01*
X182203000Y-81596000D02*
X182203000Y-81746000D01*
D34*
X182203000Y-79912000D02*
X182232000Y-79883000D01*
D33*
X182203000Y-81746000D02*
X182753000Y-82296000D01*
D34*
X182203000Y-81596000D02*
X182203000Y-79912000D01*
%TO.N,GND*%
X183303000Y-80846000D02*
X183303000Y-81596000D01*
X192186500Y-84931000D02*
X190849000Y-84931000D01*
X182203000Y-82996000D02*
X182203000Y-83746000D01*
X226203800Y-79246800D02*
X225853000Y-78896000D01*
X192659000Y-76314000D02*
X193453000Y-76314000D01*
X194198000Y-84931000D02*
X194434000Y-84695000D01*
X225565600Y-85508600D02*
X225753000Y-85696000D01*
X192186500Y-80931000D02*
X193908000Y-80931000D01*
X225735600Y-78778600D02*
X225853000Y-78896000D01*
X183303000Y-80362000D02*
X183782000Y-79883000D01*
X186349000Y-86735412D02*
X186349000Y-86268500D01*
X182153000Y-84280000D02*
X181724000Y-84709000D01*
X226771200Y-85646800D02*
X225802200Y-85646800D01*
X224840800Y-78778600D02*
X224840800Y-78796000D01*
X226771200Y-79246800D02*
X226203800Y-79246800D01*
X193453000Y-76314000D02*
X194485000Y-76314000D01*
X213899000Y-82550000D02*
X213169000Y-82550000D01*
X186931000Y-77343000D02*
X186931000Y-76568000D01*
X204939400Y-82600800D02*
X204939400Y-84400400D01*
X221869000Y-78675000D02*
X221869000Y-77712000D01*
X194485000Y-76314000D02*
X194564000Y-76393000D01*
X226771200Y-86756800D02*
X226771200Y-86351800D01*
X214103000Y-82546000D02*
X213903000Y-82546000D01*
X226771200Y-78841800D02*
X226771200Y-79246800D01*
X193908000Y-80931000D02*
X194434000Y-80405000D01*
X185706024Y-87838976D02*
X185534000Y-88011000D01*
X186077000Y-87007412D02*
X186349000Y-86735412D01*
X185706024Y-87186005D02*
X185706024Y-87838976D01*
X185511500Y-81931000D02*
X187849000Y-81931000D01*
X226771200Y-86351800D02*
X226771200Y-85946800D01*
X213903000Y-82546000D02*
X213899000Y-82550000D01*
X182203000Y-83746000D02*
X182153000Y-83796000D01*
X224840800Y-85508600D02*
X225565600Y-85508600D01*
X197866000Y-76264000D02*
X196835000Y-76264000D01*
X182153000Y-83796000D02*
X182153000Y-84280000D01*
X192186500Y-81931000D02*
X189849000Y-81931000D01*
X183303000Y-80846000D02*
X183303000Y-80362000D01*
X226771200Y-78436800D02*
X226771200Y-78841800D01*
X189849000Y-81931000D02*
X188849000Y-82931000D01*
X189349000Y-82431000D02*
X188849000Y-82931000D01*
X224840800Y-78778600D02*
X225735600Y-78778600D01*
X186349000Y-85431000D02*
X188849000Y-82931000D01*
X186931000Y-76568000D02*
X186953000Y-76546000D01*
X187849000Y-81931000D02*
X188849000Y-82931000D01*
X191008000Y-76314000D02*
X191803000Y-76314000D01*
X204939400Y-84400400D02*
X205234000Y-84695000D01*
X185884617Y-87007412D02*
X186077000Y-87007412D01*
X186349000Y-86268500D02*
X186349000Y-85431000D01*
X183253000Y-80796000D02*
X183303000Y-80846000D01*
X185706024Y-87186005D02*
X185884617Y-87007412D01*
X221869000Y-77712000D02*
X221853000Y-77696000D01*
X225802200Y-85646800D02*
X225753000Y-85696000D01*
X192186500Y-84931000D02*
X194198000Y-84931000D01*
X189349000Y-79593500D02*
X189349000Y-82431000D01*
X191803000Y-76314000D02*
X192659000Y-76314000D01*
X196835000Y-76264000D02*
X196803000Y-76296000D01*
%TO.N,+5V*%
X188053000Y-78693972D02*
X188053000Y-78346000D01*
X186847259Y-87051741D02*
X186847259Y-87246536D01*
X187068000Y-88011000D02*
X186903000Y-87846000D01*
X192186500Y-79912500D02*
X192353000Y-79746000D01*
X192353000Y-79746000D02*
X192703000Y-79746000D01*
X186848464Y-87246536D02*
X186849000Y-87246000D01*
X184618000Y-81431000D02*
X184553000Y-81496000D01*
X192186500Y-80431000D02*
X192186500Y-79912500D01*
X192186500Y-85431000D02*
X192638000Y-85431000D01*
X188349000Y-78989972D02*
X188053000Y-78693972D01*
X186849000Y-86268500D02*
X186849000Y-87050000D01*
X185511500Y-81431000D02*
X184618000Y-81431000D01*
X225903800Y-84846800D02*
X225653000Y-84596000D01*
X226771200Y-84846800D02*
X225903800Y-84846800D01*
X190849000Y-78023000D02*
X191008000Y-77864000D01*
X192638000Y-85431000D02*
X193153000Y-85946000D01*
X188349000Y-79593500D02*
X188349000Y-78989972D01*
X226003800Y-80046800D02*
X226471200Y-80046800D01*
X186849000Y-87050000D02*
X186849000Y-87246000D01*
X226771200Y-85146800D02*
X226203800Y-85146800D01*
X187084000Y-87677000D02*
X187084000Y-88011000D01*
X186849000Y-87776000D02*
X187084000Y-88011000D01*
X190849000Y-79593500D02*
X190849000Y-78023000D01*
X226471200Y-80046800D02*
X226771200Y-80346800D01*
X226203800Y-85146800D02*
X225653000Y-84596000D01*
X186849000Y-87050000D02*
X186847259Y-87051741D01*
X186847259Y-87246536D02*
X186848464Y-87246536D01*
X187084000Y-88011000D02*
X187068000Y-88011000D01*
X186849000Y-87246000D02*
X186849000Y-87776000D01*
X225653000Y-79696000D02*
X226003800Y-80046800D01*
D33*
%TO.N,Net-(U1-XTAL1)*%
X183567000Y-82732000D02*
X184589000Y-82732000D01*
X183303000Y-82996000D02*
X183567000Y-82732000D01*
D34*
X183274000Y-83025000D02*
X183303000Y-82996000D01*
D33*
X184788000Y-82931000D02*
X185511500Y-82931000D01*
D34*
X183274000Y-84709000D02*
X183274000Y-83025000D01*
D33*
X184589000Y-82732000D02*
X184788000Y-82931000D01*
D34*
%TO.N,Net-(U1-UCAP)*%
X188849000Y-78742000D02*
X188653000Y-78546000D01*
X188849000Y-79593500D02*
X188849000Y-78742000D01*
X188653000Y-77515000D02*
X188481000Y-77343000D01*
X188653000Y-78546000D02*
X188653000Y-77515000D01*
D33*
%TO.N,Net-(D1-K)*%
X200987900Y-82600800D02*
X203289400Y-82600800D01*
%TO.N,/ATN*%
X193118000Y-83931000D02*
X193903000Y-83146000D01*
X197866000Y-77914000D02*
X197086000Y-77914000D01*
X193903000Y-83146000D02*
X195503000Y-83146000D01*
X196594000Y-78406000D02*
X196594000Y-80405000D01*
X195503000Y-83146000D02*
X196594000Y-82055000D01*
X192186500Y-83931000D02*
X193118000Y-83931000D01*
X196594000Y-82055000D02*
X196594000Y-80405000D01*
X197086000Y-77914000D02*
X196594000Y-78406000D01*
%TO.N,/SRQ*%
X193068000Y-84431000D02*
X194053000Y-83446000D01*
X195713000Y-83446000D02*
X198754000Y-80405000D01*
X192186500Y-84431000D02*
X193068000Y-84431000D01*
X194053000Y-83446000D02*
X195713000Y-83446000D01*
%TO.N,/IFC*%
X191780500Y-86268500D02*
X191349000Y-86268500D01*
X198463272Y-86616000D02*
X192128000Y-86616000D01*
X200914000Y-80405000D02*
X199903000Y-81416000D01*
X199903000Y-81416000D02*
X199903000Y-85176272D01*
X199903000Y-85176272D02*
X198463272Y-86616000D01*
X192128000Y-86616000D02*
X191780500Y-86268500D01*
%TO.N,/NDAC*%
X204153000Y-85596000D02*
X202773000Y-86976000D01*
X190849000Y-86892000D02*
X190849000Y-86268500D01*
X203074000Y-80405000D02*
X203074000Y-81117000D01*
X192113000Y-86976000D02*
X192057000Y-87032000D01*
X202773000Y-86976000D02*
X192113000Y-86976000D01*
X204153000Y-82196000D02*
X204153000Y-85596000D01*
X190989000Y-87032000D02*
X190849000Y-86892000D01*
X203074000Y-81117000D02*
X204153000Y-82196000D01*
X192057000Y-87032000D02*
X190989000Y-87032000D01*
%TO.N,/NRFD*%
X205216000Y-87333000D02*
X190753000Y-87333000D01*
X190753000Y-87333000D02*
X190349000Y-86929000D01*
D35*
X190349000Y-86268500D02*
X190349000Y-86663796D01*
D33*
X205234000Y-81327000D02*
X205753000Y-81846000D01*
X206253000Y-86296000D02*
X205216000Y-87333000D01*
X190349000Y-86929000D02*
X190349000Y-86268500D01*
X205753000Y-81846000D02*
X205753000Y-83396000D01*
X205234000Y-80405000D02*
X205234000Y-81327000D01*
X205753000Y-83396000D02*
X206253000Y-83896000D01*
X206253000Y-83896000D02*
X206253000Y-86296000D01*
%TO.N,/DAV*%
X206653000Y-87696000D02*
X190403000Y-87696000D01*
X190403000Y-87696000D02*
X189849000Y-87142000D01*
X207394000Y-80405000D02*
X208453000Y-81464000D01*
X208453000Y-81464000D02*
X208453000Y-85896000D01*
X189849000Y-87142000D02*
X189849000Y-86268500D01*
D35*
X189849000Y-86268500D02*
X189849000Y-86663796D01*
D33*
X208453000Y-85896000D02*
X206653000Y-87696000D01*
%TO.N,/REN*%
X209554000Y-85975000D02*
X207473000Y-88056000D01*
X190163000Y-88056000D02*
X189349000Y-87242000D01*
D35*
X189349000Y-86268500D02*
X189349000Y-86687000D01*
D33*
X209554000Y-84695000D02*
X209554000Y-85975000D01*
X207473000Y-88056000D02*
X190163000Y-88056000D01*
X189349000Y-87242000D02*
X189349000Y-86268500D01*
D35*
%TO.N,/EOI*%
X188849000Y-86268500D02*
X188849000Y-86663796D01*
D33*
X208027400Y-88416000D02*
X209610200Y-86833200D01*
X190097322Y-88416000D02*
X208027400Y-88416000D01*
X188849000Y-87167678D02*
X190097322Y-88416000D01*
X188849000Y-86268500D02*
X188849000Y-87167678D01*
%TO.N,/DIO8*%
X190031644Y-88776000D02*
X188349000Y-87093356D01*
X211714000Y-86035000D02*
X208973000Y-88776000D01*
X208973000Y-88776000D02*
X190031644Y-88776000D01*
X188349000Y-87093356D02*
X188349000Y-86268500D01*
X211714000Y-84695000D02*
X211714000Y-86035000D01*
D35*
X188349000Y-86268500D02*
X188349000Y-86663796D01*
D36*
%TO.N,/DIO4*%
X184553000Y-85121000D02*
X184743000Y-84931000D01*
X184743000Y-84931000D02*
X185511500Y-84931000D01*
X184553000Y-86546000D02*
X184553000Y-85121000D01*
D33*
%TO.N,/DIO7*%
X213874000Y-84695000D02*
X213874000Y-85947600D01*
X189893000Y-89136000D02*
X187849000Y-87092000D01*
X210685600Y-89136000D02*
X189893000Y-89136000D01*
X213874000Y-85947600D02*
X210685600Y-89136000D01*
X187849000Y-87092000D02*
X187849000Y-86268500D01*
D36*
%TO.N,/DIO3*%
X183728000Y-86046000D02*
X184128000Y-85646000D01*
X184631232Y-84597000D02*
X184797232Y-84431000D01*
X184797232Y-84431000D02*
X185511500Y-84431000D01*
X184128000Y-85646000D02*
X184128000Y-84871000D01*
X184128000Y-84871000D02*
X184402000Y-84597000D01*
X184402000Y-84597000D02*
X184631232Y-84597000D01*
%TO.N,/DIO6*%
X185511500Y-85431000D02*
X185511500Y-86187500D01*
%TO.N,/DIO2*%
X185511500Y-83931000D02*
X184518000Y-83931000D01*
X184518000Y-83931000D02*
X184403000Y-84046000D01*
D33*
%TO.N,/DIO5*%
X187349000Y-87092000D02*
X187349000Y-86268500D01*
X218194000Y-85209000D02*
X213907000Y-89496000D01*
X213907000Y-89496000D02*
X189753000Y-89496000D01*
X218194000Y-84695000D02*
X218194000Y-85209000D01*
X189753000Y-89496000D02*
X187349000Y-87092000D01*
D36*
%TO.N,/DIO1*%
X184393771Y-83279234D02*
X184545537Y-83431000D01*
X184545537Y-83431000D02*
X185511500Y-83431000D01*
D33*
%TO.N,/MOSI*%
X186053000Y-76096000D02*
X186053000Y-78096000D01*
X186353000Y-78396000D02*
X186849000Y-78892000D01*
X219653000Y-84209000D02*
X219653000Y-80896000D01*
X221869000Y-86425000D02*
X219653000Y-84209000D01*
X186849000Y-78892000D02*
X186849000Y-79593500D01*
X186053000Y-78096000D02*
X186353000Y-78396000D01*
%TO.N,Net-(D1-A)*%
X193803000Y-82496000D02*
X195053000Y-82496000D01*
X192868000Y-83431000D02*
X193803000Y-82496000D01*
X192186500Y-83431000D02*
X192868000Y-83431000D01*
X197903000Y-82496000D02*
X199008100Y-82496000D01*
X199008100Y-82496000D02*
X199112900Y-82600800D01*
%TO.N,/SCK*%
X187253000Y-78396000D02*
X187253000Y-78796000D01*
X183053000Y-86696000D02*
X183053000Y-87039000D01*
X182153000Y-85796000D02*
X183053000Y-86696000D01*
X183053000Y-87039000D02*
X182501200Y-87590800D01*
X187349000Y-78892000D02*
X187349000Y-79593500D01*
X187253000Y-78796000D02*
X187349000Y-78892000D01*
%TO.N,/MISO*%
X183903000Y-87696000D02*
X184603000Y-88396000D01*
X184603000Y-88396000D02*
X184603000Y-88729000D01*
X186346500Y-79596000D02*
X186349000Y-79593500D01*
X185803000Y-79596000D02*
X186346500Y-79596000D01*
X184603000Y-88729000D02*
X184121200Y-89210800D01*
%TO.N,Net-(ISP1-~{RST})*%
X185039000Y-77914000D02*
X182135000Y-77914000D01*
X184922846Y-80931000D02*
X184648000Y-80656154D01*
X185039000Y-79296000D02*
X185039000Y-77914000D01*
X180791200Y-82857800D02*
X180453000Y-83196000D01*
X180791200Y-79257800D02*
X180791200Y-82857800D01*
X180453000Y-83196000D02*
X180453000Y-85542600D01*
X184648000Y-80656154D02*
X184648000Y-79801000D01*
X185511500Y-80931000D02*
X184922846Y-80931000D01*
X184648000Y-79801000D02*
X185039000Y-79410000D01*
X180453000Y-85542600D02*
X180791200Y-85880800D01*
X182135000Y-77914000D02*
X180791200Y-79257800D01*
X185039000Y-79410000D02*
X185039000Y-79296000D01*
D37*
%TO.N,/Da-*%
X225653000Y-82602499D02*
X225908699Y-82346800D01*
X226771200Y-83346800D02*
X225903800Y-83346800D01*
X225843699Y-82281800D02*
X222520170Y-82281800D01*
X217575870Y-77337500D02*
X203473001Y-77337500D01*
X203473001Y-77337500D02*
X202832501Y-77978000D01*
X222520170Y-82281800D02*
X217575870Y-77337500D01*
X225908699Y-82346800D02*
X225843699Y-82281800D01*
X225903800Y-83346800D02*
X225653000Y-83096000D01*
X226771200Y-82346800D02*
X225908699Y-82346800D01*
X225653000Y-83096000D02*
X225653000Y-82602499D01*
X202832501Y-77978000D02*
X202120000Y-77978000D01*
%TO.N,/Da+*%
X227853000Y-82596000D02*
X227853000Y-82096000D01*
X227853000Y-82096000D02*
X227603800Y-81846800D01*
X227603800Y-81846800D02*
X226771200Y-81846800D01*
X203473001Y-76967500D02*
X202832501Y-76327000D01*
X217729130Y-76967500D02*
X203473001Y-76967500D01*
X225843699Y-81911800D02*
X222673430Y-81911800D01*
X222673430Y-81911800D02*
X217729130Y-76967500D01*
X226771200Y-82846800D02*
X227602200Y-82846800D01*
X227602200Y-82846800D02*
X227853000Y-82596000D01*
X202832501Y-76327000D02*
X202120000Y-76327000D01*
X225908699Y-81846800D02*
X225843699Y-81911800D01*
X226771200Y-81846800D02*
X225908699Y-81846800D01*
%TO.N,/Db+*%
X189894000Y-78357462D02*
X189894000Y-78263055D01*
X199303000Y-77521000D02*
X199493000Y-77331000D01*
X190285000Y-78748462D02*
X189894000Y-78357462D01*
X199493000Y-77331000D02*
X199831503Y-77331000D01*
X199831503Y-77331000D02*
X199739229Y-77331000D01*
X189894000Y-78263055D02*
X190083000Y-78074055D01*
X190349000Y-79181000D02*
X190285000Y-79117000D01*
X199831503Y-77331000D02*
X199831503Y-77339503D01*
X199831503Y-77339503D02*
X200470000Y-77978000D01*
X190349000Y-79593500D02*
X190349000Y-79181000D01*
X190285000Y-79117000D02*
X190285000Y-78748462D01*
%TO.N,/Db-*%
X189914000Y-79116000D02*
X189914000Y-78902136D01*
X199493000Y-76961000D02*
X199836000Y-76961000D01*
X189849000Y-79181000D02*
X189914000Y-79116000D01*
X189849000Y-79593500D02*
X189849000Y-79181000D01*
X189523000Y-78511136D02*
X189523000Y-78264055D01*
X189914000Y-78902136D02*
X189523000Y-78511136D01*
X199836000Y-76961000D02*
X200470000Y-76327000D01*
X189523000Y-78264055D02*
X189333000Y-78074055D01*
X199303000Y-76771000D02*
X199493000Y-76961000D01*
D33*
%TO.N,Net-(D2-K)*%
X211519000Y-82550000D02*
X209522300Y-82550000D01*
%TO.N,Net-(D2-A)*%
X193253000Y-82546000D02*
X193253000Y-81946000D01*
X192868000Y-82931000D02*
X193253000Y-82546000D01*
X192186500Y-82931000D02*
X192868000Y-82931000D01*
X206603000Y-82546000D02*
X207643300Y-82546000D01*
X207643300Y-82546000D02*
X207647300Y-82550000D01*
D34*
%TO.N,Net-(J1-CC1)*%
X226759400Y-83858600D02*
X226771200Y-83846800D01*
X224840800Y-83858600D02*
X226759400Y-83858600D01*
%TO.N,Net-(J1-CC2)*%
X226771200Y-80846800D02*
X225903800Y-80846800D01*
X225903800Y-80846800D02*
X225485600Y-80428600D01*
X225485600Y-80428600D02*
X224840800Y-80428600D01*
%TD*%
%TA.AperFunction,Conductor*%
%TO.N,+5V*%
G36*
X186933191Y-86287407D02*
G01*
X186969155Y-86336907D01*
X186974000Y-86367500D01*
X186974000Y-87052592D01*
X186979689Y-87057582D01*
X187021742Y-87065378D01*
X187063857Y-87109761D01*
X187070139Y-87137525D01*
X187071597Y-87137235D01*
X187073499Y-87146797D01*
X187073500Y-87146799D01*
X187073500Y-87146800D01*
X187107490Y-87228858D01*
X187115443Y-87248058D01*
X187305005Y-87437620D01*
X187332781Y-87492135D01*
X187334000Y-87507622D01*
X187334000Y-88735998D01*
X187334001Y-88735999D01*
X187354431Y-88735999D01*
X187354436Y-88735998D01*
X187411004Y-88729918D01*
X187411006Y-88729917D01*
X187538983Y-88682185D01*
X187648327Y-88600331D01*
X187648331Y-88600327D01*
X187730185Y-88490983D01*
X187777916Y-88363009D01*
X187777918Y-88363001D01*
X187783999Y-88306434D01*
X187783999Y-88155623D01*
X187802906Y-88097432D01*
X187852406Y-88061468D01*
X187913591Y-88061467D01*
X187953002Y-88085617D01*
X188698888Y-88831504D01*
X189397880Y-89530496D01*
X189425657Y-89585013D01*
X189416086Y-89645445D01*
X189372821Y-89688710D01*
X189327876Y-89699500D01*
X185488444Y-89699500D01*
X185430253Y-89680593D01*
X185400235Y-89645446D01*
X185387469Y-89620392D01*
X185368548Y-89583258D01*
X185330756Y-89531244D01*
X185195670Y-89396158D01*
X185056907Y-89257394D01*
X185029130Y-89202878D01*
X185028533Y-89198475D01*
X185022275Y-89142928D01*
X184987829Y-89088108D01*
X184973619Y-89065492D01*
X184973615Y-89065488D01*
X184870628Y-88962500D01*
X184842851Y-88907984D01*
X184849171Y-88854604D01*
X184852454Y-88846680D01*
X184878500Y-88783799D01*
X184878500Y-88671255D01*
X184897407Y-88613064D01*
X184946907Y-88577100D01*
X185008093Y-88577100D01*
X185047501Y-88601249D01*
X185055780Y-88609528D01*
X185055782Y-88609529D01*
X185175867Y-88670716D01*
X185175869Y-88670716D01*
X185175874Y-88670719D01*
X185248268Y-88682185D01*
X185275510Y-88686500D01*
X185275512Y-88686500D01*
X185792490Y-88686500D01*
X185813885Y-88683111D01*
X185892126Y-88670719D01*
X186012220Y-88609528D01*
X186107528Y-88514220D01*
X186168719Y-88394126D01*
X186182608Y-88306434D01*
X186184500Y-88294489D01*
X186184500Y-88261001D01*
X186384001Y-88261001D01*
X186384001Y-88306436D01*
X186390081Y-88363004D01*
X186390082Y-88363006D01*
X186437814Y-88490983D01*
X186519668Y-88600327D01*
X186519672Y-88600331D01*
X186629016Y-88682185D01*
X186756990Y-88729916D01*
X186756998Y-88729918D01*
X186813566Y-88735999D01*
X186834000Y-88735998D01*
X186834000Y-88261001D01*
X186833999Y-88261000D01*
X186384002Y-88261000D01*
X186384001Y-88261001D01*
X186184500Y-88261001D01*
X186184500Y-87727509D01*
X186182608Y-87715565D01*
X186384000Y-87715565D01*
X186384000Y-87760999D01*
X186384001Y-87761000D01*
X186833999Y-87761000D01*
X186834000Y-87760999D01*
X186834000Y-87285999D01*
X186813571Y-87286000D01*
X186813562Y-87286001D01*
X186756994Y-87292081D01*
X186756993Y-87292082D01*
X186629016Y-87339814D01*
X186519672Y-87421668D01*
X186519668Y-87421672D01*
X186437814Y-87531016D01*
X186390083Y-87658990D01*
X186390081Y-87658998D01*
X186384000Y-87715565D01*
X186182608Y-87715565D01*
X186179416Y-87695416D01*
X186168719Y-87627874D01*
X186127545Y-87547066D01*
X186125210Y-87532326D01*
X186118228Y-87519135D01*
X186120812Y-87504556D01*
X186117974Y-87486637D01*
X186126854Y-87458561D01*
X186128326Y-87455556D01*
X186172416Y-87379191D01*
X186180464Y-87349154D01*
X186184698Y-87340514D01*
X186199620Y-87325118D01*
X186211296Y-87307139D01*
X186224090Y-87298345D01*
X186276862Y-87267877D01*
X186512385Y-87032353D01*
X186566898Y-87004578D01*
X186624225Y-87012635D01*
X186704370Y-87050008D01*
X186704377Y-87050010D01*
X186723998Y-87052593D01*
X186724000Y-87052592D01*
X186724000Y-86367500D01*
X186728845Y-86352588D01*
X186728845Y-86336907D01*
X186738061Y-86324221D01*
X186742907Y-86309309D01*
X186755592Y-86300092D01*
X186764809Y-86287407D01*
X186779721Y-86282561D01*
X186792407Y-86273345D01*
X186823000Y-86268500D01*
X186875000Y-86268500D01*
X186933191Y-86287407D01*
G37*
%TD.AperFunction*%
%TA.AperFunction,Conductor*%
G36*
X233004842Y-75300976D02*
G01*
X233126764Y-75312985D01*
X233145794Y-75316770D01*
X233151133Y-75318390D01*
X233258354Y-75350915D01*
X233276285Y-75358342D01*
X233380022Y-75413791D01*
X233396158Y-75424573D01*
X233487083Y-75499193D01*
X233500806Y-75512916D01*
X233575426Y-75603841D01*
X233586208Y-75619977D01*
X233641657Y-75723714D01*
X233649084Y-75741645D01*
X233683228Y-75854203D01*
X233687014Y-75873237D01*
X233699023Y-75995157D01*
X233699500Y-76004861D01*
X233699500Y-88995138D01*
X233699023Y-89004842D01*
X233687014Y-89126762D01*
X233683228Y-89145796D01*
X233649084Y-89258354D01*
X233641657Y-89276285D01*
X233586208Y-89380022D01*
X233575426Y-89396158D01*
X233500806Y-89487083D01*
X233487083Y-89500806D01*
X233396158Y-89575426D01*
X233380022Y-89586208D01*
X233276285Y-89641657D01*
X233258354Y-89649084D01*
X233145796Y-89683228D01*
X233126763Y-89687014D01*
X233020719Y-89697459D01*
X233004841Y-89699023D01*
X232995139Y-89699500D01*
X225292921Y-89699500D01*
X225234730Y-89680593D01*
X225198766Y-89631093D01*
X225198766Y-89569907D01*
X225222915Y-89530498D01*
X225292100Y-89461314D01*
X225329718Y-89396158D01*
X225357990Y-89347190D01*
X225357990Y-89347188D01*
X225357992Y-89347186D01*
X225392100Y-89219892D01*
X225392100Y-89088108D01*
X225357992Y-88960814D01*
X225357990Y-88960811D01*
X225357990Y-88960809D01*
X225292103Y-88846690D01*
X225292101Y-88846688D01*
X225292100Y-88846686D01*
X225198914Y-88753500D01*
X225198911Y-88753498D01*
X225198909Y-88753496D01*
X225084789Y-88687609D01*
X225084791Y-88687609D01*
X225023755Y-88671255D01*
X224957492Y-88653500D01*
X224825708Y-88653500D01*
X224759445Y-88671255D01*
X224698409Y-88687609D01*
X224584290Y-88753496D01*
X224491096Y-88846690D01*
X224425209Y-88960809D01*
X224425208Y-88960814D01*
X224391100Y-89088108D01*
X224391100Y-89219892D01*
X224413780Y-89304534D01*
X224425209Y-89347190D01*
X224491096Y-89461309D01*
X224491098Y-89461311D01*
X224491100Y-89461314D01*
X224560284Y-89530498D01*
X224588060Y-89585013D01*
X224578489Y-89645445D01*
X224535224Y-89688710D01*
X224490279Y-89699500D01*
X214332122Y-89699500D01*
X214273931Y-89680593D01*
X214237967Y-89631093D01*
X214237967Y-89569907D01*
X214262118Y-89530496D01*
X215101119Y-88691496D01*
X217868120Y-85924496D01*
X217922637Y-85896719D01*
X217938124Y-85895500D01*
X218963747Y-85895500D01*
X218963748Y-85895500D01*
X219022231Y-85883867D01*
X219088552Y-85839552D01*
X219132867Y-85773231D01*
X219144500Y-85714748D01*
X219144500Y-83675252D01*
X219132867Y-83616769D01*
X219088552Y-83550448D01*
X219062883Y-83533296D01*
X219022233Y-83506134D01*
X219022231Y-83506133D01*
X219022228Y-83506132D01*
X219022227Y-83506132D01*
X218963758Y-83494501D01*
X218963748Y-83494500D01*
X217424252Y-83494500D01*
X217424251Y-83494500D01*
X217424241Y-83494501D01*
X217365772Y-83506132D01*
X217365766Y-83506134D01*
X217299451Y-83550445D01*
X217299445Y-83550451D01*
X217255134Y-83616766D01*
X217255132Y-83616772D01*
X217243501Y-83675241D01*
X217243500Y-83675253D01*
X217243500Y-85714750D01*
X217243854Y-85718347D01*
X217230737Y-85778110D01*
X217215334Y-85798048D01*
X213821881Y-89191504D01*
X213767364Y-89219281D01*
X213751877Y-89220500D01*
X211229723Y-89220500D01*
X211171532Y-89201593D01*
X211135568Y-89152093D01*
X211135568Y-89090907D01*
X211159719Y-89051496D01*
X212500777Y-87710438D01*
X214107558Y-86103658D01*
X214133272Y-86041579D01*
X214149500Y-86002401D01*
X214149500Y-85925848D01*
X214168407Y-85867657D01*
X214210614Y-85834384D01*
X214243121Y-85820919D01*
X214324231Y-85787322D01*
X214324234Y-85787319D01*
X214324238Y-85787318D01*
X214373665Y-85754291D01*
X214479908Y-85683302D01*
X214612302Y-85550908D01*
X214699501Y-85420406D01*
X214716318Y-85395238D01*
X214716319Y-85395234D01*
X214716322Y-85395231D01*
X214787973Y-85222251D01*
X214824500Y-85038616D01*
X214824500Y-84351384D01*
X214824499Y-84351381D01*
X215083500Y-84351381D01*
X215083500Y-85038618D01*
X215120026Y-85222249D01*
X215191677Y-85395229D01*
X215191681Y-85395238D01*
X215259010Y-85496000D01*
X215295698Y-85550908D01*
X215428092Y-85683302D01*
X215494463Y-85727649D01*
X215583761Y-85787318D01*
X215583767Y-85787320D01*
X215583769Y-85787322D01*
X215756749Y-85858973D01*
X215940384Y-85895500D01*
X215940385Y-85895500D01*
X216127615Y-85895500D01*
X216127616Y-85895500D01*
X216311251Y-85858973D01*
X216484231Y-85787322D01*
X216484234Y-85787319D01*
X216484238Y-85787318D01*
X216533665Y-85754291D01*
X216639908Y-85683302D01*
X216772302Y-85550908D01*
X216859501Y-85420406D01*
X216876318Y-85395238D01*
X216876319Y-85395234D01*
X216876322Y-85395231D01*
X216947973Y-85222251D01*
X216984500Y-85038616D01*
X216984500Y-84351384D01*
X216947973Y-84167749D01*
X216876322Y-83994769D01*
X216876320Y-83994767D01*
X216876318Y-83994761D01*
X216796630Y-83875502D01*
X216772302Y-83839092D01*
X216639908Y-83706698D01*
X216577925Y-83665282D01*
X216484238Y-83602681D01*
X216484229Y-83602677D01*
X216311249Y-83531026D01*
X216127618Y-83494500D01*
X216127616Y-83494500D01*
X215940384Y-83494500D01*
X215940381Y-83494500D01*
X215756750Y-83531026D01*
X215583770Y-83602677D01*
X215583761Y-83602681D01*
X215428092Y-83706698D01*
X215428088Y-83706701D01*
X215295701Y-83839088D01*
X215295698Y-83839092D01*
X215191681Y-83994761D01*
X215191677Y-83994770D01*
X215120026Y-84167750D01*
X215083500Y-84351381D01*
X214824499Y-84351381D01*
X214787973Y-84167749D01*
X214716322Y-83994769D01*
X214716320Y-83994767D01*
X214716318Y-83994761D01*
X214636630Y-83875502D01*
X214612302Y-83839092D01*
X214479908Y-83706698D01*
X214417925Y-83665282D01*
X214324238Y-83602681D01*
X214324229Y-83602677D01*
X214151249Y-83531026D01*
X213967618Y-83494500D01*
X213967616Y-83494500D01*
X213780384Y-83494500D01*
X213780381Y-83494500D01*
X213596750Y-83531026D01*
X213423770Y-83602677D01*
X213423761Y-83602681D01*
X213268092Y-83706698D01*
X213268088Y-83706701D01*
X213135701Y-83839088D01*
X213135698Y-83839092D01*
X213031681Y-83994761D01*
X213031677Y-83994770D01*
X212960026Y-84167750D01*
X212923500Y-84351381D01*
X212923500Y-85038618D01*
X212960026Y-85222249D01*
X213031677Y-85395229D01*
X213031681Y-85395238D01*
X213099010Y-85496000D01*
X213135698Y-85550908D01*
X213268092Y-85683302D01*
X213334463Y-85727649D01*
X213423761Y-85787318D01*
X213423769Y-85787322D01*
X213443074Y-85795318D01*
X213489601Y-85835054D01*
X213503886Y-85894548D01*
X213480473Y-85951076D01*
X213475195Y-85956787D01*
X210600481Y-88831504D01*
X210545964Y-88859281D01*
X210530477Y-88860500D01*
X209517123Y-88860500D01*
X209458932Y-88841593D01*
X209422968Y-88792093D01*
X209422968Y-88730907D01*
X209447119Y-88691496D01*
X210607599Y-87531016D01*
X211947557Y-86191059D01*
X211959432Y-86162390D01*
X211966428Y-86145501D01*
X211966428Y-86145500D01*
X211972410Y-86131059D01*
X211989500Y-86089800D01*
X211989500Y-85925848D01*
X212008407Y-85867657D01*
X212050614Y-85834384D01*
X212083121Y-85820919D01*
X212164231Y-85787322D01*
X212164234Y-85787319D01*
X212164238Y-85787318D01*
X212213665Y-85754291D01*
X212319908Y-85683302D01*
X212452302Y-85550908D01*
X212539501Y-85420406D01*
X212556318Y-85395238D01*
X212556319Y-85395234D01*
X212556322Y-85395231D01*
X212627973Y-85222251D01*
X212664500Y-85038616D01*
X212664500Y-84351384D01*
X212627973Y-84167749D01*
X212556322Y-83994769D01*
X212556320Y-83994767D01*
X212556318Y-83994761D01*
X212476630Y-83875502D01*
X212452302Y-83839092D01*
X212319908Y-83706698D01*
X212257925Y-83665282D01*
X212164238Y-83602681D01*
X212164229Y-83602677D01*
X211991249Y-83531026D01*
X211807618Y-83494500D01*
X211807616Y-83494500D01*
X211620384Y-83494500D01*
X211620381Y-83494500D01*
X211436750Y-83531026D01*
X211263770Y-83602677D01*
X211263761Y-83602681D01*
X211108092Y-83706698D01*
X211108088Y-83706701D01*
X210975701Y-83839088D01*
X210975698Y-83839092D01*
X210871681Y-83994761D01*
X210871677Y-83994770D01*
X210800026Y-84167750D01*
X210763500Y-84351381D01*
X210763500Y-85038618D01*
X210800026Y-85222249D01*
X210871677Y-85395229D01*
X210871681Y-85395238D01*
X210939010Y-85496000D01*
X210975698Y-85550908D01*
X211108092Y-85683302D01*
X211174463Y-85727649D01*
X211263761Y-85787318D01*
X211263767Y-85787320D01*
X211263769Y-85787322D01*
X211283073Y-85795318D01*
X211344878Y-85820919D01*
X211391404Y-85860656D01*
X211405687Y-85920151D01*
X211382272Y-85976679D01*
X211376996Y-85982387D01*
X210243998Y-87115386D01*
X210189481Y-87143163D01*
X210129049Y-87133592D01*
X210085784Y-87090327D01*
X210076213Y-87029895D01*
X210078364Y-87019771D01*
X210110700Y-86899092D01*
X210110700Y-86767308D01*
X210076592Y-86640014D01*
X210076590Y-86640011D01*
X210076590Y-86640009D01*
X210010703Y-86525890D01*
X210010701Y-86525888D01*
X210010700Y-86525886D01*
X209917514Y-86432700D01*
X209917511Y-86432698D01*
X209917509Y-86432696D01*
X209803389Y-86366809D01*
X209803390Y-86366809D01*
X209797973Y-86365357D01*
X209770601Y-86358023D01*
X209719287Y-86324700D01*
X209697361Y-86267578D01*
X209713197Y-86208478D01*
X209716321Y-86203948D01*
X209720824Y-86197791D01*
X209787557Y-86131059D01*
X209806402Y-86085562D01*
X209829500Y-86029800D01*
X209829500Y-85925848D01*
X209848407Y-85867657D01*
X209890614Y-85834384D01*
X209923121Y-85820919D01*
X210004231Y-85787322D01*
X210004234Y-85787319D01*
X210004238Y-85787318D01*
X210053665Y-85754291D01*
X210159908Y-85683302D01*
X210292302Y-85550908D01*
X210379501Y-85420406D01*
X210396318Y-85395238D01*
X210396319Y-85395234D01*
X210396322Y-85395231D01*
X210467973Y-85222251D01*
X210504500Y-85038616D01*
X210504500Y-84351384D01*
X210467973Y-84167749D01*
X210396322Y-83994769D01*
X210396320Y-83994767D01*
X210396318Y-83994761D01*
X210316630Y-83875502D01*
X210292302Y-83839092D01*
X210159908Y-83706698D01*
X210097925Y-83665282D01*
X210004238Y-83602681D01*
X210004229Y-83602677D01*
X209970184Y-83588575D01*
X209923658Y-83548838D01*
X209909375Y-83489343D01*
X209932790Y-83432815D01*
X209969736Y-83407526D01*
X209969417Y-83406923D01*
X209974689Y-83404136D01*
X209975377Y-83403665D01*
X209975979Y-83403455D01*
X210083730Y-83323930D01*
X210163255Y-83216179D01*
X210207486Y-83089774D01*
X210210299Y-83059772D01*
X210210300Y-83059770D01*
X210210300Y-82924500D01*
X210229207Y-82866309D01*
X210278707Y-82830345D01*
X210309300Y-82825500D01*
X210829033Y-82825500D01*
X210887224Y-82844407D01*
X210923188Y-82893907D01*
X210926814Y-82909014D01*
X210933352Y-82950300D01*
X210933354Y-82950304D01*
X210990950Y-83063342D01*
X211080658Y-83153050D01*
X211193696Y-83210646D01*
X211287481Y-83225500D01*
X211750518Y-83225499D01*
X211750520Y-83225499D01*
X211750521Y-83225498D01*
X211809367Y-83216179D01*
X211844299Y-83210647D01*
X211844299Y-83210646D01*
X211844304Y-83210646D01*
X211957342Y-83153050D01*
X212047050Y-83063342D01*
X212104646Y-82950304D01*
X212119500Y-82856519D01*
X212119499Y-82243482D01*
X212119498Y-82243477D01*
X212568500Y-82243477D01*
X212568500Y-82856520D01*
X212568501Y-82856523D01*
X212583352Y-82950299D01*
X212583354Y-82950304D01*
X212640950Y-83063342D01*
X212730658Y-83153050D01*
X212843696Y-83210646D01*
X212937481Y-83225500D01*
X213400518Y-83225499D01*
X213400520Y-83225499D01*
X213400521Y-83225498D01*
X213459367Y-83216179D01*
X213494299Y-83210647D01*
X213494299Y-83210646D01*
X213494304Y-83210646D01*
X213607342Y-83153050D01*
X213697050Y-83063342D01*
X213718111Y-83022006D01*
X213761373Y-82978745D01*
X213821805Y-82969173D01*
X213855817Y-82981217D01*
X213909814Y-83012392D01*
X214037108Y-83046500D01*
X214037110Y-83046500D01*
X214168890Y-83046500D01*
X214168892Y-83046500D01*
X214296186Y-83012392D01*
X214296188Y-83012390D01*
X214296190Y-83012390D01*
X214410309Y-82946503D01*
X214410309Y-82946502D01*
X214410314Y-82946500D01*
X214503500Y-82853314D01*
X214504884Y-82850917D01*
X214569390Y-82739190D01*
X214569390Y-82739188D01*
X214569392Y-82739186D01*
X214603500Y-82611892D01*
X214603500Y-82480108D01*
X214569392Y-82352814D01*
X214569390Y-82352811D01*
X214569390Y-82352809D01*
X214503503Y-82238690D01*
X214503501Y-82238688D01*
X214503500Y-82238686D01*
X214410314Y-82145500D01*
X214410311Y-82145498D01*
X214410309Y-82145496D01*
X214296189Y-82079609D01*
X214296191Y-82079609D01*
X214246799Y-82066375D01*
X214168892Y-82045500D01*
X214037108Y-82045500D01*
X213924848Y-82075579D01*
X213909810Y-82079609D01*
X213852668Y-82112600D01*
X213792820Y-82125321D01*
X213736924Y-82100434D01*
X213714961Y-82071811D01*
X213697050Y-82036658D01*
X213607342Y-81946950D01*
X213494304Y-81889354D01*
X213494305Y-81889354D01*
X213400522Y-81874500D01*
X212937479Y-81874500D01*
X212937476Y-81874501D01*
X212843700Y-81889352D01*
X212843695Y-81889354D01*
X212730659Y-81946949D01*
X212640949Y-82036659D01*
X212583354Y-82149695D01*
X212568500Y-82243477D01*
X212119498Y-82243477D01*
X212119498Y-82243475D01*
X212104647Y-82149700D01*
X212104646Y-82149698D01*
X212104646Y-82149696D01*
X212047050Y-82036658D01*
X211957342Y-81946950D01*
X211844304Y-81889354D01*
X211844305Y-81889354D01*
X211750522Y-81874500D01*
X211287479Y-81874500D01*
X211287476Y-81874501D01*
X211193700Y-81889352D01*
X211193695Y-81889354D01*
X211080659Y-81946949D01*
X210990949Y-82036659D01*
X210933354Y-82149695D01*
X210926814Y-82190987D01*
X210899036Y-82245504D01*
X210844520Y-82273281D01*
X210829033Y-82274500D01*
X210309300Y-82274500D01*
X210251109Y-82255593D01*
X210215145Y-82206093D01*
X210210300Y-82175500D01*
X210210300Y-82040230D01*
X210210299Y-82040226D01*
X210210014Y-82037186D01*
X210207486Y-82010226D01*
X210163255Y-81883821D01*
X210083730Y-81776070D01*
X209975979Y-81696545D01*
X209975366Y-81696330D01*
X209974898Y-81695974D01*
X209969417Y-81693077D01*
X209969898Y-81692166D01*
X209926689Y-81659262D01*
X209909095Y-81600661D01*
X209929307Y-81542910D01*
X209970183Y-81511425D01*
X210004231Y-81497322D01*
X210004235Y-81497319D01*
X210004238Y-81497318D01*
X210049187Y-81467282D01*
X210159908Y-81393302D01*
X210292302Y-81260908D01*
X210371600Y-81142230D01*
X210396318Y-81105238D01*
X210396319Y-81105234D01*
X210396322Y-81105231D01*
X210467973Y-80932251D01*
X210504500Y-80748616D01*
X210504500Y-80061384D01*
X210504499Y-80061381D01*
X210763500Y-80061381D01*
X210763500Y-80748618D01*
X210800026Y-80932249D01*
X210871677Y-81105229D01*
X210871681Y-81105238D01*
X210937215Y-81203314D01*
X210975698Y-81260908D01*
X211108092Y-81393302D01*
X211167953Y-81433300D01*
X211263761Y-81497318D01*
X211263767Y-81497320D01*
X211263769Y-81497322D01*
X211436749Y-81568973D01*
X211620384Y-81605500D01*
X211620385Y-81605500D01*
X211807615Y-81605500D01*
X211807616Y-81605500D01*
X211991251Y-81568973D01*
X212164231Y-81497322D01*
X212164234Y-81497319D01*
X212164238Y-81497318D01*
X212209187Y-81467282D01*
X212319908Y-81393302D01*
X212452302Y-81260908D01*
X212531600Y-81142230D01*
X212556318Y-81105238D01*
X212556319Y-81105234D01*
X212556322Y-81105231D01*
X212627973Y-80932251D01*
X212664500Y-80748616D01*
X212664500Y-80061384D01*
X212664499Y-80061381D01*
X212923500Y-80061381D01*
X212923500Y-80748618D01*
X212960026Y-80932249D01*
X213031677Y-81105229D01*
X213031681Y-81105238D01*
X213097215Y-81203314D01*
X213135698Y-81260908D01*
X213268092Y-81393302D01*
X213327953Y-81433300D01*
X213423761Y-81497318D01*
X213423767Y-81497320D01*
X213423769Y-81497322D01*
X213596749Y-81568973D01*
X213780384Y-81605500D01*
X213780385Y-81605500D01*
X213967615Y-81605500D01*
X213967616Y-81605500D01*
X214151251Y-81568973D01*
X214324231Y-81497322D01*
X214324234Y-81497319D01*
X214324238Y-81497318D01*
X214369187Y-81467282D01*
X214479908Y-81393302D01*
X214612302Y-81260908D01*
X214691600Y-81142230D01*
X214716318Y-81105238D01*
X214716319Y-81105234D01*
X214716322Y-81105231D01*
X214787973Y-80932251D01*
X214824500Y-80748616D01*
X214824500Y-80061384D01*
X214824499Y-80061381D01*
X215083500Y-80061381D01*
X215083500Y-80748618D01*
X215120026Y-80932249D01*
X215191677Y-81105229D01*
X215191681Y-81105238D01*
X215257215Y-81203314D01*
X215295698Y-81260908D01*
X215428092Y-81393302D01*
X215487953Y-81433300D01*
X215583761Y-81497318D01*
X215583767Y-81497320D01*
X215583769Y-81497322D01*
X215756749Y-81568973D01*
X215940384Y-81605500D01*
X215940385Y-81605500D01*
X216127615Y-81605500D01*
X216127616Y-81605500D01*
X216311251Y-81568973D01*
X216484231Y-81497322D01*
X216484234Y-81497319D01*
X216484238Y-81497318D01*
X216529187Y-81467282D01*
X216639908Y-81393302D01*
X216772302Y-81260908D01*
X216851600Y-81142230D01*
X216876318Y-81105238D01*
X216876319Y-81105234D01*
X216876322Y-81105231D01*
X216947973Y-80932251D01*
X216984500Y-80748616D01*
X216984500Y-80061384D01*
X216984499Y-80061381D01*
X217243500Y-80061381D01*
X217243500Y-80748618D01*
X217280026Y-80932249D01*
X217351677Y-81105229D01*
X217351681Y-81105238D01*
X217417215Y-81203314D01*
X217455698Y-81260908D01*
X217588092Y-81393302D01*
X217647953Y-81433300D01*
X217743761Y-81497318D01*
X217743767Y-81497320D01*
X217743769Y-81497322D01*
X217916749Y-81568973D01*
X218100384Y-81605500D01*
X218100385Y-81605500D01*
X218287615Y-81605500D01*
X218287616Y-81605500D01*
X218471251Y-81568973D01*
X218644231Y-81497322D01*
X218644234Y-81497319D01*
X218644238Y-81497318D01*
X218689187Y-81467282D01*
X218799908Y-81393302D01*
X218932302Y-81260908D01*
X219033465Y-81109507D01*
X219081515Y-81071628D01*
X219142653Y-81069226D01*
X219193527Y-81103219D01*
X219201516Y-81115009D01*
X219252496Y-81203309D01*
X219252498Y-81203311D01*
X219252500Y-81203314D01*
X219345686Y-81296500D01*
X219345688Y-81296501D01*
X219348504Y-81299317D01*
X219376281Y-81353834D01*
X219377500Y-81369321D01*
X219377500Y-84263800D01*
X219391228Y-84296942D01*
X219415915Y-84356540D01*
X219415916Y-84356543D01*
X219419441Y-84365055D01*
X219419442Y-84365056D01*
X219419443Y-84365058D01*
X221139505Y-86085120D01*
X221167281Y-86139635D01*
X221168500Y-86155122D01*
X221168500Y-87069746D01*
X221168501Y-87069758D01*
X221180132Y-87128227D01*
X221180134Y-87128233D01*
X221220109Y-87188059D01*
X221224448Y-87194552D01*
X221290769Y-87238867D01*
X221335231Y-87247711D01*
X221349241Y-87250498D01*
X221349246Y-87250498D01*
X221349252Y-87250500D01*
X221349253Y-87250500D01*
X222388747Y-87250500D01*
X222388748Y-87250500D01*
X222447231Y-87238867D01*
X222513552Y-87194552D01*
X222557867Y-87128231D01*
X222569500Y-87069748D01*
X222569500Y-85780252D01*
X222568103Y-85773231D01*
X222561704Y-85741060D01*
X222557867Y-85721769D01*
X222513552Y-85655448D01*
X222506596Y-85650800D01*
X222447233Y-85611134D01*
X222447231Y-85611133D01*
X222447228Y-85611132D01*
X222447227Y-85611132D01*
X222388758Y-85599501D01*
X222388748Y-85599500D01*
X222388747Y-85599500D01*
X221474124Y-85599500D01*
X221415933Y-85580593D01*
X221404120Y-85570504D01*
X221110693Y-85277077D01*
X224165300Y-85277077D01*
X224165300Y-85740120D01*
X224165301Y-85740123D01*
X224180152Y-85833899D01*
X224180154Y-85833904D01*
X224237750Y-85946942D01*
X224327458Y-86036650D01*
X224440496Y-86094246D01*
X224534281Y-86109100D01*
X225147318Y-86109099D01*
X225147320Y-86109099D01*
X225147321Y-86109098D01*
X225194211Y-86101672D01*
X225241099Y-86094247D01*
X225241104Y-86094246D01*
X225258147Y-86085562D01*
X225311049Y-86058606D01*
X225371480Y-86049035D01*
X225425996Y-86076811D01*
X225445684Y-86096498D01*
X225445690Y-86096503D01*
X225559810Y-86162390D01*
X225559808Y-86162390D01*
X225559812Y-86162391D01*
X225559814Y-86162392D01*
X225687108Y-86196500D01*
X225687110Y-86196500D01*
X225818890Y-86196500D01*
X225818892Y-86196500D01*
X225922363Y-86168775D01*
X225983461Y-86171977D01*
X226030298Y-86209400D01*
X226050202Y-86239189D01*
X226051648Y-86241352D01*
X226117969Y-86285667D01*
X226162431Y-86294511D01*
X226176441Y-86297298D01*
X226176442Y-86297298D01*
X226176452Y-86297300D01*
X226176461Y-86297300D01*
X226181288Y-86297776D01*
X226181170Y-86298968D01*
X226234227Y-86316207D01*
X226270191Y-86365707D01*
X226270191Y-86426893D01*
X226246040Y-86466304D01*
X226242089Y-86470254D01*
X226242085Y-86470258D01*
X226165428Y-86584982D01*
X226165422Y-86584993D01*
X226112620Y-86712470D01*
X226112620Y-86712472D01*
X226085700Y-86847804D01*
X226085700Y-86985795D01*
X226112620Y-87121127D01*
X226112620Y-87121129D01*
X226165422Y-87248606D01*
X226165428Y-87248617D01*
X226242085Y-87363341D01*
X226339658Y-87460914D01*
X226454382Y-87537571D01*
X226454393Y-87537577D01*
X226501483Y-87557082D01*
X226581872Y-87590380D01*
X226717207Y-87617300D01*
X226717208Y-87617300D01*
X227955192Y-87617300D01*
X227955193Y-87617300D01*
X228090528Y-87590380D01*
X228218011Y-87537575D01*
X228332742Y-87460914D01*
X228430314Y-87363342D01*
X228506975Y-87248611D01*
X228559780Y-87121128D01*
X228586700Y-86985793D01*
X228586700Y-86847807D01*
X228586699Y-86847804D01*
X230515700Y-86847804D01*
X230515700Y-86985795D01*
X230542620Y-87121127D01*
X230542620Y-87121129D01*
X230595422Y-87248606D01*
X230595428Y-87248617D01*
X230672085Y-87363341D01*
X230769658Y-87460914D01*
X230884382Y-87537571D01*
X230884393Y-87537577D01*
X230931483Y-87557082D01*
X231011872Y-87590380D01*
X231147207Y-87617300D01*
X231147208Y-87617300D01*
X231885192Y-87617300D01*
X231885193Y-87617300D01*
X232020528Y-87590380D01*
X232148011Y-87537575D01*
X232262742Y-87460914D01*
X232360314Y-87363342D01*
X232436975Y-87248611D01*
X232489780Y-87121128D01*
X232516700Y-86985793D01*
X232516700Y-86847807D01*
X232489780Y-86712472D01*
X232469485Y-86663476D01*
X232436977Y-86584993D01*
X232436971Y-86584982D01*
X232360314Y-86470258D01*
X232262741Y-86372685D01*
X232148017Y-86296028D01*
X232148006Y-86296022D01*
X232020528Y-86243220D01*
X231885195Y-86216300D01*
X231885193Y-86216300D01*
X231147207Y-86216300D01*
X231147204Y-86216300D01*
X231011872Y-86243220D01*
X231011870Y-86243220D01*
X230884393Y-86296022D01*
X230884382Y-86296028D01*
X230769658Y-86372685D01*
X230672085Y-86470258D01*
X230595428Y-86584982D01*
X230595422Y-86584993D01*
X230542620Y-86712470D01*
X230542620Y-86712472D01*
X230515700Y-86847804D01*
X228586699Y-86847804D01*
X228559780Y-86712472D01*
X228539485Y-86663476D01*
X228506977Y-86584993D01*
X228506971Y-86584982D01*
X228430314Y-86470258D01*
X228332741Y-86372685D01*
X228218017Y-86296028D01*
X228218006Y-86296022D01*
X228090529Y-86243220D01*
X228016950Y-86228584D01*
X227963566Y-86198687D01*
X227937951Y-86143121D01*
X227949888Y-86083112D01*
X227994819Y-86041579D01*
X228010633Y-86035862D01*
X228058335Y-86023081D01*
X228189565Y-85947315D01*
X228296715Y-85840165D01*
X228316441Y-85805999D01*
X228372479Y-85708939D01*
X228372479Y-85708937D01*
X228372481Y-85708935D01*
X228411700Y-85562566D01*
X228411700Y-85411034D01*
X228372481Y-85264665D01*
X228372479Y-85264662D01*
X228372479Y-85264660D01*
X228296718Y-85133439D01*
X228296716Y-85133437D01*
X228296715Y-85133435D01*
X228189565Y-85026285D01*
X228189562Y-85026283D01*
X228189560Y-85026281D01*
X228058338Y-84950520D01*
X228058340Y-84950520D01*
X227977979Y-84928988D01*
X227911966Y-84911300D01*
X227760434Y-84911300D01*
X227614065Y-84950519D01*
X227556876Y-84983537D01*
X227536215Y-84987928D01*
X227507377Y-84996800D01*
X226771201Y-84996800D01*
X226771200Y-84996801D01*
X226771200Y-85197300D01*
X226752293Y-85255491D01*
X226702793Y-85291455D01*
X226672200Y-85296300D01*
X226176452Y-85296300D01*
X226176448Y-85296300D01*
X226176212Y-85296324D01*
X226166511Y-85296800D01*
X226089093Y-85296800D01*
X226039593Y-85283536D01*
X225946189Y-85229609D01*
X225946191Y-85229609D01*
X225881292Y-85212220D01*
X225818892Y-85195500D01*
X225687108Y-85195500D01*
X225687099Y-85195500D01*
X225684910Y-85195788D01*
X225659908Y-85195893D01*
X225653049Y-85195049D01*
X225608453Y-85183100D01*
X225555944Y-85183100D01*
X225549922Y-85182359D01*
X225527430Y-85171863D01*
X225503822Y-85164193D01*
X225499071Y-85158630D01*
X225494476Y-85156486D01*
X225489373Y-85147275D01*
X225473804Y-85129045D01*
X225443851Y-85070260D01*
X225443850Y-85070258D01*
X225354142Y-84980550D01*
X225241104Y-84922954D01*
X225241105Y-84922954D01*
X225147322Y-84908100D01*
X224534279Y-84908100D01*
X224534276Y-84908101D01*
X224440500Y-84922952D01*
X224440495Y-84922954D01*
X224327459Y-84980549D01*
X224237749Y-85070259D01*
X224180154Y-85183295D01*
X224165300Y-85277077D01*
X221110693Y-85277077D01*
X219957496Y-84123880D01*
X219929719Y-84069363D01*
X219928500Y-84053876D01*
X219928500Y-82187625D01*
X219947407Y-82129434D01*
X219996907Y-82093470D01*
X220058093Y-82093470D01*
X220077000Y-82101889D01*
X220155810Y-82147390D01*
X220155808Y-82147390D01*
X220155812Y-82147391D01*
X220155814Y-82147392D01*
X220283108Y-82181500D01*
X220283110Y-82181500D01*
X220414890Y-82181500D01*
X220414892Y-82181500D01*
X220542186Y-82147392D01*
X220542188Y-82147390D01*
X220542190Y-82147390D01*
X220656309Y-82081503D01*
X220656309Y-82081502D01*
X220656314Y-82081500D01*
X220749500Y-81988314D01*
X220777305Y-81940154D01*
X220815390Y-81874190D01*
X220815390Y-81874188D01*
X220815392Y-81874186D01*
X220849500Y-81746892D01*
X220849500Y-81615108D01*
X220815392Y-81487814D01*
X220815390Y-81487811D01*
X220815390Y-81487809D01*
X220749503Y-81373690D01*
X220749501Y-81373688D01*
X220749500Y-81373686D01*
X220656314Y-81280500D01*
X220656311Y-81280498D01*
X220656309Y-81280496D01*
X220542189Y-81214609D01*
X220542191Y-81214609D01*
X220492799Y-81201375D01*
X220414892Y-81180500D01*
X220283108Y-81180500D01*
X220283105Y-81180500D01*
X220245996Y-81190443D01*
X220184894Y-81187240D01*
X220137345Y-81148733D01*
X220121511Y-81089632D01*
X220124746Y-81069202D01*
X220153500Y-80961892D01*
X220153500Y-80830108D01*
X220119392Y-80702814D01*
X220119390Y-80702811D01*
X220119390Y-80702809D01*
X220053503Y-80588690D01*
X220053501Y-80588688D01*
X220053500Y-80588686D01*
X219960314Y-80495500D01*
X219960311Y-80495498D01*
X219960309Y-80495496D01*
X219846189Y-80429609D01*
X219846191Y-80429609D01*
X219796799Y-80416375D01*
X219718892Y-80395500D01*
X219587108Y-80395500D01*
X219509200Y-80416375D01*
X219459809Y-80429609D01*
X219345690Y-80495496D01*
X219345689Y-80495497D01*
X219345686Y-80495499D01*
X219345686Y-80495500D01*
X219313501Y-80527684D01*
X219258987Y-80555460D01*
X219198555Y-80545889D01*
X219155290Y-80502624D01*
X219144500Y-80457679D01*
X219144500Y-80061385D01*
X219144499Y-80061381D01*
X219144257Y-80060165D01*
X219107973Y-79877749D01*
X219036322Y-79704769D01*
X219036320Y-79704767D01*
X219036318Y-79704761D01*
X218958737Y-79588655D01*
X218932302Y-79549092D01*
X218799908Y-79416698D01*
X218740313Y-79376878D01*
X218644238Y-79312681D01*
X218644229Y-79312677D01*
X218471249Y-79241026D01*
X218287618Y-79204500D01*
X218287616Y-79204500D01*
X218100384Y-79204500D01*
X218100381Y-79204500D01*
X217916750Y-79241026D01*
X217743770Y-79312677D01*
X217743761Y-79312681D01*
X217588092Y-79416698D01*
X217588088Y-79416701D01*
X217455701Y-79549088D01*
X217455698Y-79549092D01*
X217351681Y-79704761D01*
X217351677Y-79704770D01*
X217280026Y-79877750D01*
X217243500Y-80061381D01*
X216984499Y-80061381D01*
X216947973Y-79877749D01*
X216876322Y-79704769D01*
X216876320Y-79704767D01*
X216876318Y-79704761D01*
X216798737Y-79588655D01*
X216772302Y-79549092D01*
X216639908Y-79416698D01*
X216580313Y-79376878D01*
X216484238Y-79312681D01*
X216484229Y-79312677D01*
X216311249Y-79241026D01*
X216127618Y-79204500D01*
X216127616Y-79204500D01*
X215940384Y-79204500D01*
X215940381Y-79204500D01*
X215756750Y-79241026D01*
X215583770Y-79312677D01*
X215583761Y-79312681D01*
X215428092Y-79416698D01*
X215428088Y-79416701D01*
X215295701Y-79549088D01*
X215295698Y-79549092D01*
X215191681Y-79704761D01*
X215191677Y-79704770D01*
X215120026Y-79877750D01*
X215083500Y-80061381D01*
X214824499Y-80061381D01*
X214787973Y-79877749D01*
X214716322Y-79704769D01*
X214716320Y-79704767D01*
X214716318Y-79704761D01*
X214638737Y-79588655D01*
X214612302Y-79549092D01*
X214479908Y-79416698D01*
X214420313Y-79376878D01*
X214324238Y-79312681D01*
X214324229Y-79312677D01*
X214151249Y-79241026D01*
X213967618Y-79204500D01*
X213967616Y-79204500D01*
X213780384Y-79204500D01*
X213780381Y-79204500D01*
X213596750Y-79241026D01*
X213423770Y-79312677D01*
X213423761Y-79312681D01*
X213268092Y-79416698D01*
X213268088Y-79416701D01*
X213135701Y-79549088D01*
X213135698Y-79549092D01*
X213031681Y-79704761D01*
X213031677Y-79704770D01*
X212960026Y-79877750D01*
X212923500Y-80061381D01*
X212664499Y-80061381D01*
X212627973Y-79877749D01*
X212556322Y-79704769D01*
X212556320Y-79704767D01*
X212556318Y-79704761D01*
X212478737Y-79588655D01*
X212452302Y-79549092D01*
X212319908Y-79416698D01*
X212260313Y-79376878D01*
X212164238Y-79312681D01*
X212164229Y-79312677D01*
X211991249Y-79241026D01*
X211807618Y-79204500D01*
X211807616Y-79204500D01*
X211620384Y-79204500D01*
X211620381Y-79204500D01*
X211436750Y-79241026D01*
X211263770Y-79312677D01*
X211263761Y-79312681D01*
X211108092Y-79416698D01*
X211108088Y-79416701D01*
X210975701Y-79549088D01*
X210975698Y-79549092D01*
X210871681Y-79704761D01*
X210871677Y-79704770D01*
X210800026Y-79877750D01*
X210763500Y-80061381D01*
X210504499Y-80061381D01*
X210467973Y-79877749D01*
X210396322Y-79704769D01*
X210396320Y-79704767D01*
X210396318Y-79704761D01*
X210318737Y-79588655D01*
X210292302Y-79549092D01*
X210159908Y-79416698D01*
X210100313Y-79376878D01*
X210004238Y-79312681D01*
X210004229Y-79312677D01*
X209831249Y-79241026D01*
X209647618Y-79204500D01*
X209647616Y-79204500D01*
X209460384Y-79204500D01*
X209460381Y-79204500D01*
X209276750Y-79241026D01*
X209103770Y-79312677D01*
X209103761Y-79312681D01*
X208948092Y-79416698D01*
X208948088Y-79416701D01*
X208815701Y-79549088D01*
X208815698Y-79549092D01*
X208711681Y-79704761D01*
X208711677Y-79704770D01*
X208640026Y-79877750D01*
X208603500Y-80061381D01*
X208603500Y-80748618D01*
X208640026Y-80932249D01*
X208682314Y-81034340D01*
X208687115Y-81095337D01*
X208655145Y-81147506D01*
X208598617Y-81170921D01*
X208539123Y-81156637D01*
X208520846Y-81142230D01*
X208345870Y-80967254D01*
X208318093Y-80912737D01*
X208318775Y-80877940D01*
X208344500Y-80748616D01*
X208344500Y-80061384D01*
X208307973Y-79877749D01*
X208236322Y-79704769D01*
X208236320Y-79704767D01*
X208236318Y-79704761D01*
X208158737Y-79588655D01*
X208132302Y-79549092D01*
X207999908Y-79416698D01*
X207940313Y-79376878D01*
X207844238Y-79312681D01*
X207844229Y-79312677D01*
X207671249Y-79241026D01*
X207487618Y-79204500D01*
X207487616Y-79204500D01*
X207300384Y-79204500D01*
X207300381Y-79204500D01*
X207116750Y-79241026D01*
X206943770Y-79312677D01*
X206943761Y-79312681D01*
X206788092Y-79416698D01*
X206788088Y-79416701D01*
X206655701Y-79549088D01*
X206655698Y-79549092D01*
X206551681Y-79704761D01*
X206551677Y-79704770D01*
X206480026Y-79877750D01*
X206443500Y-80061381D01*
X206443500Y-80748618D01*
X206480026Y-80932249D01*
X206551677Y-81105229D01*
X206551681Y-81105238D01*
X206617215Y-81203314D01*
X206655698Y-81260908D01*
X206788092Y-81393302D01*
X206847953Y-81433300D01*
X206943761Y-81497318D01*
X206943773Y-81497324D01*
X206981450Y-81512930D01*
X207114806Y-81568168D01*
X207161331Y-81607903D01*
X207175615Y-81667398D01*
X207152200Y-81723926D01*
X207135710Y-81739285D01*
X207085872Y-81776068D01*
X207085871Y-81776069D01*
X207085870Y-81776070D01*
X207009086Y-81880108D01*
X207006343Y-81883824D01*
X206962115Y-82010222D01*
X206962113Y-82010229D01*
X206961828Y-82013272D01*
X206961061Y-82015046D01*
X206960829Y-82016111D01*
X206960621Y-82016065D01*
X206937563Y-82069441D01*
X206884918Y-82100620D01*
X206824001Y-82094901D01*
X206813761Y-82089755D01*
X206796187Y-82079608D01*
X206753754Y-82068238D01*
X206668892Y-82045500D01*
X206537108Y-82045500D01*
X206459200Y-82066375D01*
X206409809Y-82079609D01*
X206295690Y-82145496D01*
X206295689Y-82145497D01*
X206295686Y-82145499D01*
X206295686Y-82145500D01*
X206202500Y-82238686D01*
X206202498Y-82238688D01*
X206197912Y-82243275D01*
X206195776Y-82241139D01*
X206155556Y-82268743D01*
X206094392Y-82267102D01*
X206045875Y-82229823D01*
X206028500Y-82173802D01*
X206028500Y-81791200D01*
X206014042Y-81756296D01*
X205986557Y-81689942D01*
X205948929Y-81652314D01*
X205909058Y-81612442D01*
X205909058Y-81612443D01*
X205834763Y-81538148D01*
X205806986Y-81483631D01*
X205816557Y-81423199D01*
X205837229Y-81397501D01*
X205836469Y-81396741D01*
X205972294Y-81260916D01*
X205972302Y-81260908D01*
X206051600Y-81142230D01*
X206076318Y-81105238D01*
X206076319Y-81105234D01*
X206076322Y-81105231D01*
X206147973Y-80932251D01*
X206184500Y-80748616D01*
X206184500Y-80061384D01*
X206147973Y-79877749D01*
X206076322Y-79704769D01*
X206076320Y-79704767D01*
X206076318Y-79704761D01*
X205998737Y-79588655D01*
X205972302Y-79549092D01*
X205839908Y-79416698D01*
X205780313Y-79376878D01*
X205684238Y-79312681D01*
X205684229Y-79312677D01*
X205511249Y-79241026D01*
X205327618Y-79204500D01*
X205327616Y-79204500D01*
X205140384Y-79204500D01*
X205140381Y-79204500D01*
X204956750Y-79241026D01*
X204783770Y-79312677D01*
X204783761Y-79312681D01*
X204628092Y-79416698D01*
X204628088Y-79416701D01*
X204495701Y-79549088D01*
X204495698Y-79549092D01*
X204391681Y-79704761D01*
X204391677Y-79704770D01*
X204320026Y-79877750D01*
X204283500Y-80061381D01*
X204283500Y-80748618D01*
X204320026Y-80932249D01*
X204391677Y-81105229D01*
X204391681Y-81105238D01*
X204457215Y-81203314D01*
X204495698Y-81260908D01*
X204628092Y-81393302D01*
X204687953Y-81433300D01*
X204783761Y-81497318D01*
X204783767Y-81497320D01*
X204783769Y-81497322D01*
X204956749Y-81568973D01*
X205071120Y-81591722D01*
X205089083Y-81595295D01*
X205139774Y-81622389D01*
X205278379Y-81760994D01*
X205306156Y-81815511D01*
X205296585Y-81875943D01*
X205253320Y-81919208D01*
X205192888Y-81928779D01*
X205170922Y-81925300D01*
X204707879Y-81925300D01*
X204707876Y-81925301D01*
X204614100Y-81940152D01*
X204614095Y-81940154D01*
X204501059Y-81997749D01*
X204501058Y-81997749D01*
X204501058Y-81997750D01*
X204492713Y-82006094D01*
X204438199Y-82033870D01*
X204377767Y-82024299D01*
X204352711Y-82006095D01*
X203779914Y-81433299D01*
X203752138Y-81378783D01*
X203761709Y-81318351D01*
X203779909Y-81293299D01*
X203812302Y-81260908D01*
X203891600Y-81142230D01*
X203916318Y-81105238D01*
X203916319Y-81105234D01*
X203916322Y-81105231D01*
X203987973Y-80932251D01*
X204024500Y-80748616D01*
X204024500Y-80061384D01*
X203987973Y-79877749D01*
X203916322Y-79704769D01*
X203916320Y-79704767D01*
X203916318Y-79704761D01*
X203838737Y-79588655D01*
X203812302Y-79549092D01*
X203679908Y-79416698D01*
X203620313Y-79376878D01*
X203524238Y-79312681D01*
X203524229Y-79312677D01*
X203351249Y-79241026D01*
X203167618Y-79204500D01*
X203167616Y-79204500D01*
X202980384Y-79204500D01*
X202980381Y-79204500D01*
X202796750Y-79241026D01*
X202623770Y-79312677D01*
X202623761Y-79312681D01*
X202468092Y-79416698D01*
X202468088Y-79416701D01*
X202335701Y-79549088D01*
X202335698Y-79549092D01*
X202231681Y-79704761D01*
X202231677Y-79704770D01*
X202160026Y-79877750D01*
X202123500Y-80061381D01*
X202123500Y-80748618D01*
X202160026Y-80932249D01*
X202231677Y-81105229D01*
X202231681Y-81105238D01*
X202297215Y-81203314D01*
X202335698Y-81260908D01*
X202468092Y-81393302D01*
X202527953Y-81433300D01*
X202623761Y-81497318D01*
X202623767Y-81497320D01*
X202623769Y-81497322D01*
X202796749Y-81568973D01*
X202980384Y-81605500D01*
X202980385Y-81605500D01*
X203131878Y-81605500D01*
X203139475Y-81607968D01*
X203147365Y-81606719D01*
X203168020Y-81617243D01*
X203190069Y-81624407D01*
X203201874Y-81634489D01*
X203323683Y-81756299D01*
X203351459Y-81810813D01*
X203341888Y-81871245D01*
X203298623Y-81914510D01*
X203253678Y-81925300D01*
X203057879Y-81925300D01*
X203057876Y-81925301D01*
X202964100Y-81940152D01*
X202964095Y-81940154D01*
X202851059Y-81997749D01*
X202761349Y-82087459D01*
X202703754Y-82200495D01*
X202697214Y-82241787D01*
X202669436Y-82296304D01*
X202614920Y-82324081D01*
X202599433Y-82325300D01*
X201774900Y-82325300D01*
X201716709Y-82306393D01*
X201680745Y-82256893D01*
X201675900Y-82226300D01*
X201675900Y-82091030D01*
X201675899Y-82091026D01*
X201675780Y-82089755D01*
X201673086Y-82061026D01*
X201628855Y-81934621D01*
X201549330Y-81826870D01*
X201441579Y-81747345D01*
X201441576Y-81747344D01*
X201441575Y-81747343D01*
X201441576Y-81747343D01*
X201317248Y-81703839D01*
X201268568Y-81666774D01*
X201250971Y-81608173D01*
X201271179Y-81550421D01*
X201312058Y-81518932D01*
X201364231Y-81497322D01*
X201364235Y-81497319D01*
X201364238Y-81497318D01*
X201409187Y-81467282D01*
X201519908Y-81393302D01*
X201652302Y-81260908D01*
X201731600Y-81142230D01*
X201756318Y-81105238D01*
X201756319Y-81105234D01*
X201756322Y-81105231D01*
X201827973Y-80932251D01*
X201864500Y-80748616D01*
X201864500Y-80061384D01*
X201827973Y-79877749D01*
X201756322Y-79704769D01*
X201756320Y-79704767D01*
X201756318Y-79704761D01*
X201678737Y-79588655D01*
X201652302Y-79549092D01*
X201519908Y-79416698D01*
X201460313Y-79376878D01*
X201364238Y-79312681D01*
X201364229Y-79312677D01*
X201191249Y-79241026D01*
X201007618Y-79204500D01*
X201007616Y-79204500D01*
X200820384Y-79204500D01*
X200820381Y-79204500D01*
X200636750Y-79241026D01*
X200463770Y-79312677D01*
X200463761Y-79312681D01*
X200308092Y-79416698D01*
X200308088Y-79416701D01*
X200175701Y-79549088D01*
X200175698Y-79549092D01*
X200071681Y-79704761D01*
X200071677Y-79704770D01*
X200000026Y-79877750D01*
X199963500Y-80061381D01*
X199963500Y-80748619D01*
X199989223Y-80877937D01*
X199982031Y-80938699D01*
X199962129Y-80967254D01*
X199787152Y-81142232D01*
X199732635Y-81170010D01*
X199672203Y-81160439D01*
X199628938Y-81117174D01*
X199619367Y-81056742D01*
X199625682Y-81034349D01*
X199667973Y-80932251D01*
X199704500Y-80748616D01*
X199704500Y-80061384D01*
X199667973Y-79877749D01*
X199596322Y-79704769D01*
X199596320Y-79704767D01*
X199596318Y-79704761D01*
X199518737Y-79588655D01*
X199492302Y-79549092D01*
X199359908Y-79416698D01*
X199300313Y-79376878D01*
X199204238Y-79312681D01*
X199204229Y-79312677D01*
X199031249Y-79241026D01*
X198847618Y-79204500D01*
X198847616Y-79204500D01*
X198660384Y-79204500D01*
X198660381Y-79204500D01*
X198476750Y-79241026D01*
X198303770Y-79312677D01*
X198303761Y-79312681D01*
X198148092Y-79416698D01*
X198148088Y-79416701D01*
X198015701Y-79549088D01*
X198015698Y-79549092D01*
X197911681Y-79704761D01*
X197911677Y-79704770D01*
X197840026Y-79877750D01*
X197803500Y-80061381D01*
X197803500Y-80748620D01*
X197829222Y-80877937D01*
X197822030Y-80938698D01*
X197802128Y-80967254D01*
X197627154Y-81142228D01*
X197572637Y-81170005D01*
X197512205Y-81160434D01*
X197468940Y-81117169D01*
X197459369Y-81056737D01*
X197465685Y-81034343D01*
X197507973Y-80932251D01*
X197544500Y-80748616D01*
X197544500Y-80061384D01*
X197507973Y-79877749D01*
X197436322Y-79704769D01*
X197436320Y-79704767D01*
X197436318Y-79704761D01*
X197358737Y-79588655D01*
X197332302Y-79549092D01*
X197199908Y-79416698D01*
X197140313Y-79376878D01*
X197044238Y-79312681D01*
X197044229Y-79312677D01*
X196930614Y-79265615D01*
X196884088Y-79225878D01*
X196869500Y-79174151D01*
X196869500Y-78561123D01*
X196888407Y-78502932D01*
X196898496Y-78491120D01*
X197090423Y-78299192D01*
X197144940Y-78271414D01*
X197205372Y-78280985D01*
X197248635Y-78324248D01*
X197262950Y-78352342D01*
X197352658Y-78442050D01*
X197465696Y-78499646D01*
X197559481Y-78514500D01*
X198172518Y-78514499D01*
X198172520Y-78514499D01*
X198172521Y-78514498D01*
X198244198Y-78503147D01*
X198266299Y-78499647D01*
X198266299Y-78499646D01*
X198266304Y-78499646D01*
X198379342Y-78442050D01*
X198469050Y-78352342D01*
X198526646Y-78239304D01*
X198541500Y-78145519D01*
X198541499Y-77682482D01*
X198539032Y-77666907D01*
X198526647Y-77588700D01*
X198526646Y-77588698D01*
X198526646Y-77588696D01*
X198469050Y-77475658D01*
X198379342Y-77385950D01*
X198266304Y-77328354D01*
X198266305Y-77328354D01*
X198172522Y-77313500D01*
X197559479Y-77313500D01*
X197559476Y-77313501D01*
X197465700Y-77328352D01*
X197465695Y-77328354D01*
X197352659Y-77385949D01*
X197262949Y-77475659D01*
X197207519Y-77584446D01*
X197164254Y-77627710D01*
X197137451Y-77636824D01*
X197128460Y-77638500D01*
X197031200Y-77638500D01*
X196961189Y-77667500D01*
X196951623Y-77671462D01*
X196951619Y-77671463D01*
X196929943Y-77680441D01*
X196929942Y-77680442D01*
X196929941Y-77680442D01*
X196929941Y-77680443D01*
X196437942Y-78172443D01*
X196437941Y-78172442D01*
X196360446Y-78249938D01*
X196360444Y-78249940D01*
X196360443Y-78249942D01*
X196331845Y-78318983D01*
X196318500Y-78351200D01*
X196318500Y-79174151D01*
X196299593Y-79232342D01*
X196257386Y-79265615D01*
X196143770Y-79312677D01*
X196143761Y-79312681D01*
X195988092Y-79416698D01*
X195988088Y-79416701D01*
X195855701Y-79549088D01*
X195855698Y-79549092D01*
X195751681Y-79704761D01*
X195751677Y-79704770D01*
X195680026Y-79877750D01*
X195643500Y-80061381D01*
X195643500Y-80748618D01*
X195680026Y-80932249D01*
X195751677Y-81105229D01*
X195751681Y-81105238D01*
X195817215Y-81203314D01*
X195855698Y-81260908D01*
X195988092Y-81393302D01*
X196047953Y-81433300D01*
X196143761Y-81497318D01*
X196143767Y-81497320D01*
X196143769Y-81497322D01*
X196201452Y-81521215D01*
X196257386Y-81544384D01*
X196303911Y-81584121D01*
X196318500Y-81635848D01*
X196318500Y-81899877D01*
X196299593Y-81958068D01*
X196289504Y-81969881D01*
X195722504Y-82536881D01*
X195667987Y-82564658D01*
X195607555Y-82555087D01*
X195564290Y-82511822D01*
X195553500Y-82466877D01*
X195553500Y-82430109D01*
X195553500Y-82430108D01*
X195519392Y-82302814D01*
X195519390Y-82302811D01*
X195519390Y-82302809D01*
X195453503Y-82188690D01*
X195453501Y-82188688D01*
X195453500Y-82188686D01*
X195360314Y-82095500D01*
X195360311Y-82095498D01*
X195360309Y-82095496D01*
X195246189Y-82029609D01*
X195246191Y-82029609D01*
X195191839Y-82015046D01*
X195118892Y-81995500D01*
X194987108Y-81995500D01*
X194914161Y-82015046D01*
X194859809Y-82029609D01*
X194745690Y-82095496D01*
X194745689Y-82095497D01*
X194745686Y-82095499D01*
X194745686Y-82095500D01*
X194652500Y-82188686D01*
X194652498Y-82188688D01*
X194649683Y-82191504D01*
X194595166Y-82219281D01*
X194579679Y-82220500D01*
X193826623Y-82220500D01*
X193768432Y-82201593D01*
X193732468Y-82152093D01*
X193730996Y-82095878D01*
X193753500Y-82011892D01*
X193753500Y-81880108D01*
X193719392Y-81752814D01*
X193719390Y-81752811D01*
X193719390Y-81752809D01*
X193653503Y-81638690D01*
X193653501Y-81638688D01*
X193653500Y-81638686D01*
X193560314Y-81545500D01*
X193560311Y-81545498D01*
X193560309Y-81545496D01*
X193446189Y-81479609D01*
X193446191Y-81479609D01*
X193396596Y-81466320D01*
X193339889Y-81451126D01*
X193288577Y-81417803D01*
X193266650Y-81360681D01*
X193282486Y-81301581D01*
X193330035Y-81263076D01*
X193365514Y-81256500D01*
X193650282Y-81256500D01*
X193708473Y-81275407D01*
X193720286Y-81285496D01*
X193828092Y-81393302D01*
X193887953Y-81433300D01*
X193983761Y-81497318D01*
X193983767Y-81497320D01*
X193983769Y-81497322D01*
X194156749Y-81568973D01*
X194340384Y-81605500D01*
X194340385Y-81605500D01*
X194527615Y-81605500D01*
X194527616Y-81605500D01*
X194711251Y-81568973D01*
X194884231Y-81497322D01*
X194884234Y-81497319D01*
X194884238Y-81497318D01*
X194929187Y-81467282D01*
X195039908Y-81393302D01*
X195172302Y-81260908D01*
X195251600Y-81142230D01*
X195276318Y-81105238D01*
X195276319Y-81105234D01*
X195276322Y-81105231D01*
X195347973Y-80932251D01*
X195384500Y-80748616D01*
X195384500Y-80061384D01*
X195347973Y-79877749D01*
X195276322Y-79704769D01*
X195276320Y-79704767D01*
X195276318Y-79704761D01*
X195198737Y-79588655D01*
X195172302Y-79549092D01*
X195039908Y-79416698D01*
X194980313Y-79376878D01*
X194884238Y-79312681D01*
X194884229Y-79312677D01*
X194711249Y-79241026D01*
X194704287Y-79239641D01*
X194701551Y-79239097D01*
X194648168Y-79209202D01*
X194622552Y-79153637D01*
X194634489Y-79093627D01*
X194679418Y-79052094D01*
X194720866Y-79043000D01*
X195086824Y-79043000D01*
X195146370Y-79036598D01*
X195146381Y-79036596D01*
X195281088Y-78986353D01*
X195281090Y-78986352D01*
X195396184Y-78900192D01*
X195396192Y-78900184D01*
X195482352Y-78785090D01*
X195482353Y-78785088D01*
X195532596Y-78650381D01*
X195532598Y-78650370D01*
X195539000Y-78590824D01*
X195539000Y-78543001D01*
X195538999Y-78543000D01*
X193589001Y-78543000D01*
X193589000Y-78543001D01*
X193589000Y-78590824D01*
X193588999Y-78590824D01*
X193595401Y-78650370D01*
X193595403Y-78650381D01*
X193645646Y-78785088D01*
X193645647Y-78785090D01*
X193731807Y-78900184D01*
X193731815Y-78900192D01*
X193846909Y-78986352D01*
X193846911Y-78986353D01*
X193981618Y-79036596D01*
X193981629Y-79036598D01*
X194041176Y-79043000D01*
X194147134Y-79043000D01*
X194205325Y-79061907D01*
X194241289Y-79111407D01*
X194241289Y-79172593D01*
X194205325Y-79222093D01*
X194166448Y-79239097D01*
X194164236Y-79239537D01*
X194156750Y-79241026D01*
X193983770Y-79312677D01*
X193983761Y-79312681D01*
X193828092Y-79416698D01*
X193828088Y-79416701D01*
X193695701Y-79549088D01*
X193695698Y-79549092D01*
X193591681Y-79704761D01*
X193591677Y-79704770D01*
X193520026Y-79877750D01*
X193483500Y-80061381D01*
X193483500Y-80506500D01*
X193464593Y-80564691D01*
X193415093Y-80600655D01*
X193384500Y-80605500D01*
X193058860Y-80605500D01*
X193000669Y-80586593D01*
X192984428Y-80571776D01*
X192970593Y-80556000D01*
X192285500Y-80556000D01*
X192270588Y-80551155D01*
X192254907Y-80551155D01*
X192242221Y-80541938D01*
X192227309Y-80537093D01*
X192218092Y-80524407D01*
X192205407Y-80515191D01*
X192200561Y-80500278D01*
X192191345Y-80487593D01*
X192186500Y-80457000D01*
X192186500Y-80431000D01*
X192160500Y-80431000D01*
X192102309Y-80412093D01*
X192066345Y-80362593D01*
X192061500Y-80332000D01*
X192061500Y-80056001D01*
X192311500Y-80056001D01*
X192311500Y-80306000D01*
X192970593Y-80306000D01*
X192970593Y-80305998D01*
X192968010Y-80286377D01*
X192968007Y-80286367D01*
X192921435Y-80186494D01*
X192843505Y-80108564D01*
X192743630Y-80061991D01*
X192698121Y-80056000D01*
X192311501Y-80056000D01*
X192311500Y-80056001D01*
X192061500Y-80056001D01*
X192061499Y-80056000D01*
X191773499Y-80056000D01*
X191715308Y-80037093D01*
X191679344Y-79987593D01*
X191674499Y-79957005D01*
X191674499Y-79092600D01*
X191659240Y-79015883D01*
X191655391Y-79010123D01*
X191615472Y-78950379D01*
X191601112Y-78928888D01*
X191514117Y-78870760D01*
X191514113Y-78870759D01*
X191437410Y-78855501D01*
X191437402Y-78855500D01*
X191437401Y-78855500D01*
X191437400Y-78855500D01*
X191260602Y-78855500D01*
X191260595Y-78855501D01*
X191174320Y-78872662D01*
X191173810Y-78870098D01*
X191127212Y-78873761D01*
X191101400Y-78862132D01*
X191101357Y-78862226D01*
X191094193Y-78858885D01*
X191093553Y-78858597D01*
X191093509Y-78858566D01*
X190993630Y-78811991D01*
X190974000Y-78809406D01*
X190974000Y-79494500D01*
X190969155Y-79509411D01*
X190969155Y-79525093D01*
X190959938Y-79537778D01*
X190955093Y-79552691D01*
X190942407Y-79561907D01*
X190933191Y-79574593D01*
X190918278Y-79579438D01*
X190905593Y-79588655D01*
X190875000Y-79593500D01*
X190823000Y-79593500D01*
X190764809Y-79574593D01*
X190728845Y-79525093D01*
X190724000Y-79494500D01*
X190724000Y-78809407D01*
X190723998Y-78809405D01*
X190707420Y-78811588D01*
X190647259Y-78800437D01*
X190605143Y-78756053D01*
X190596934Y-78730224D01*
X190595500Y-78721890D01*
X190595500Y-78707584D01*
X190588619Y-78681903D01*
X190587851Y-78677440D01*
X190591616Y-78651423D01*
X190592993Y-78625171D01*
X190595944Y-78621526D01*
X190596616Y-78616886D01*
X190614955Y-78598050D01*
X190631499Y-78577622D01*
X190636027Y-78576408D01*
X190639300Y-78573048D01*
X190665212Y-78568589D01*
X190690600Y-78561787D01*
X190696004Y-78562219D01*
X190712562Y-78563999D01*
X190758000Y-78563998D01*
X190758000Y-78114001D01*
X191258000Y-78114001D01*
X191258000Y-78563998D01*
X191258001Y-78563999D01*
X191303431Y-78563999D01*
X191303436Y-78563998D01*
X191360004Y-78557918D01*
X191360006Y-78557917D01*
X191487983Y-78510185D01*
X191597327Y-78428331D01*
X191597331Y-78428327D01*
X191679185Y-78318983D01*
X191726916Y-78191009D01*
X191726918Y-78191001D01*
X191733000Y-78134434D01*
X191733000Y-78114001D01*
X191934001Y-78114001D01*
X191934001Y-78134436D01*
X191940081Y-78191004D01*
X191940082Y-78191006D01*
X191987814Y-78318983D01*
X192069668Y-78428327D01*
X192069672Y-78428331D01*
X192179016Y-78510185D01*
X192306990Y-78557916D01*
X192306998Y-78557918D01*
X192363566Y-78563999D01*
X192409000Y-78563998D01*
X192409000Y-78114001D01*
X192909000Y-78114001D01*
X192909000Y-78563998D01*
X192909001Y-78563999D01*
X192954431Y-78563999D01*
X192954436Y-78563998D01*
X193011004Y-78557918D01*
X193011006Y-78557917D01*
X193138983Y-78510185D01*
X193248327Y-78428331D01*
X193248331Y-78428327D01*
X193330185Y-78318983D01*
X193377916Y-78191009D01*
X193377918Y-78191001D01*
X193384000Y-78134434D01*
X193384000Y-78114001D01*
X193383999Y-78114000D01*
X192909001Y-78114000D01*
X192909000Y-78114001D01*
X192409000Y-78114001D01*
X192408999Y-78114000D01*
X191934002Y-78114000D01*
X191934001Y-78114001D01*
X191733000Y-78114001D01*
X191732999Y-78114000D01*
X191258001Y-78114000D01*
X191258000Y-78114001D01*
X190758000Y-78114001D01*
X190758000Y-77995175D01*
X193589000Y-77995175D01*
X193589000Y-78042999D01*
X193589001Y-78043000D01*
X194313999Y-78043000D01*
X194314000Y-78042999D01*
X194314000Y-77543001D01*
X194814000Y-77543001D01*
X194814000Y-78042999D01*
X194814001Y-78043000D01*
X195538999Y-78043000D01*
X195539000Y-78042999D01*
X195539000Y-77995175D01*
X195532598Y-77935629D01*
X195532596Y-77935618D01*
X195482353Y-77800911D01*
X195482352Y-77800909D01*
X195396192Y-77685815D01*
X195396184Y-77685807D01*
X195281090Y-77599647D01*
X195281088Y-77599646D01*
X195146381Y-77549403D01*
X195146370Y-77549401D01*
X195086824Y-77543000D01*
X194814001Y-77543000D01*
X194814000Y-77543001D01*
X194314000Y-77543001D01*
X194313999Y-77543000D01*
X194041176Y-77543000D01*
X193981629Y-77549401D01*
X193981618Y-77549403D01*
X193846911Y-77599646D01*
X193846909Y-77599647D01*
X193731815Y-77685807D01*
X193731807Y-77685815D01*
X193645647Y-77800909D01*
X193645646Y-77800911D01*
X193595403Y-77935618D01*
X193595401Y-77935629D01*
X193589000Y-77995175D01*
X190758000Y-77995175D01*
X190758000Y-77164001D01*
X191258000Y-77164001D01*
X191258000Y-77613999D01*
X191258001Y-77614000D01*
X191732998Y-77614000D01*
X191732999Y-77613999D01*
X191732999Y-77593569D01*
X191732998Y-77593565D01*
X191934000Y-77593565D01*
X191934000Y-77613999D01*
X191934001Y-77614000D01*
X192408999Y-77614000D01*
X192409000Y-77613999D01*
X192409000Y-77164001D01*
X192909000Y-77164001D01*
X192909000Y-77613999D01*
X192909001Y-77614000D01*
X193383998Y-77614000D01*
X193383999Y-77613999D01*
X193383999Y-77593569D01*
X193383998Y-77593563D01*
X193377918Y-77536995D01*
X193377917Y-77536993D01*
X193330185Y-77409016D01*
X193248331Y-77299672D01*
X193248327Y-77299668D01*
X193138983Y-77217814D01*
X193011009Y-77170083D01*
X193011001Y-77170081D01*
X192954434Y-77164000D01*
X192909001Y-77164000D01*
X192909000Y-77164001D01*
X192409000Y-77164001D01*
X192409000Y-77163999D01*
X192363569Y-77164000D01*
X192363563Y-77164001D01*
X192306994Y-77170081D01*
X192306993Y-77170082D01*
X192179016Y-77217814D01*
X192069672Y-77299668D01*
X192069668Y-77299672D01*
X191987814Y-77409016D01*
X191940083Y-77536990D01*
X191940081Y-77536998D01*
X191934000Y-77593565D01*
X191732998Y-77593565D01*
X191732998Y-77593562D01*
X191726918Y-77536995D01*
X191726917Y-77536993D01*
X191679185Y-77409016D01*
X191597331Y-77299672D01*
X191597327Y-77299668D01*
X191487983Y-77217814D01*
X191360009Y-77170083D01*
X191360001Y-77170081D01*
X191303434Y-77164000D01*
X191258001Y-77164000D01*
X191258000Y-77164001D01*
X190758000Y-77164001D01*
X190758000Y-77163999D01*
X190712569Y-77164000D01*
X190712563Y-77164001D01*
X190655994Y-77170081D01*
X190655993Y-77170082D01*
X190528016Y-77217814D01*
X190418672Y-77299668D01*
X190418668Y-77299672D01*
X190336814Y-77409016D01*
X190295397Y-77520061D01*
X190257346Y-77567975D01*
X190198399Y-77584373D01*
X190177017Y-77581091D01*
X190170486Y-77579341D01*
X190148892Y-77573555D01*
X190017108Y-77573555D01*
X189942429Y-77593565D01*
X189889809Y-77607664D01*
X189775690Y-77673551D01*
X189770540Y-77677504D01*
X189769183Y-77675735D01*
X189723465Y-77699018D01*
X189663036Y-77689433D01*
X189645874Y-77676964D01*
X189645460Y-77677504D01*
X189640309Y-77673551D01*
X189526189Y-77607664D01*
X189526191Y-77607664D01*
X189497139Y-77599880D01*
X189464468Y-77591125D01*
X189413156Y-77557803D01*
X189391229Y-77500682D01*
X189407064Y-77441581D01*
X189454614Y-77403076D01*
X189490093Y-77396500D01*
X189518890Y-77396500D01*
X189518892Y-77396500D01*
X189646186Y-77362392D01*
X189646188Y-77362390D01*
X189646190Y-77362390D01*
X189760309Y-77296503D01*
X189760309Y-77296502D01*
X189760314Y-77296500D01*
X189853500Y-77203314D01*
X189857671Y-77196090D01*
X189919390Y-77089190D01*
X189919390Y-77089188D01*
X189919392Y-77089186D01*
X189953500Y-76961892D01*
X189953500Y-76830108D01*
X189919392Y-76702814D01*
X189919390Y-76702811D01*
X189919390Y-76702809D01*
X189853503Y-76588690D01*
X189853501Y-76588688D01*
X189853500Y-76588686D01*
X189760314Y-76495500D01*
X189760311Y-76495498D01*
X189760309Y-76495496D01*
X189646189Y-76429609D01*
X189646191Y-76429609D01*
X189596799Y-76416375D01*
X189518892Y-76395500D01*
X189387108Y-76395500D01*
X189309200Y-76416375D01*
X189259809Y-76429609D01*
X189145690Y-76495496D01*
X189052498Y-76588688D01*
X189008771Y-76664425D01*
X188963301Y-76705365D01*
X188902451Y-76711760D01*
X188878090Y-76703134D01*
X188839126Y-76683281D01*
X188739490Y-76667500D01*
X188739488Y-76667500D01*
X188222512Y-76667500D01*
X188222510Y-76667500D01*
X188122874Y-76683281D01*
X188122867Y-76683283D01*
X188002782Y-76744470D01*
X187907470Y-76839782D01*
X187846283Y-76959867D01*
X187846281Y-76959874D01*
X187830500Y-77059510D01*
X187830500Y-77626489D01*
X187846281Y-77726125D01*
X187846283Y-77726132D01*
X187907470Y-77846217D01*
X187907472Y-77846220D01*
X188002780Y-77941528D01*
X188002782Y-77941529D01*
X188122867Y-78002716D01*
X188122869Y-78002716D01*
X188122874Y-78002719D01*
X188198541Y-78014703D01*
X188222510Y-78018500D01*
X188222512Y-78018500D01*
X188228500Y-78018500D01*
X188286691Y-78037407D01*
X188322655Y-78086907D01*
X188327500Y-78117500D01*
X188327500Y-78503147D01*
X188327500Y-78588853D01*
X188349682Y-78671639D01*
X188392535Y-78745862D01*
X188445005Y-78798332D01*
X188472781Y-78852847D01*
X188474000Y-78868334D01*
X188474000Y-79494500D01*
X188455093Y-79552691D01*
X188405593Y-79588655D01*
X188375000Y-79593500D01*
X188323000Y-79593500D01*
X188264809Y-79574593D01*
X188228845Y-79525093D01*
X188224000Y-79494500D01*
X188224000Y-78843818D01*
X188204816Y-78811931D01*
X188204377Y-78811989D01*
X188204367Y-78811992D01*
X188104491Y-78858565D01*
X188104441Y-78858601D01*
X188104367Y-78858623D01*
X188096642Y-78862226D01*
X188096135Y-78861139D01*
X188045927Y-78876484D01*
X188023832Y-78871888D01*
X188023679Y-78872662D01*
X187937410Y-78855501D01*
X187937402Y-78855500D01*
X187937401Y-78855500D01*
X187937400Y-78855500D01*
X187760602Y-78855500D01*
X187760592Y-78855501D01*
X187754378Y-78856738D01*
X187693617Y-78849545D01*
X187648688Y-78808012D01*
X187636752Y-78748002D01*
X187652189Y-78710050D01*
X187650256Y-78708934D01*
X187719390Y-78589190D01*
X187719390Y-78589188D01*
X187719392Y-78589186D01*
X187753500Y-78461892D01*
X187753500Y-78330108D01*
X187719392Y-78202814D01*
X187719390Y-78202811D01*
X187719390Y-78202809D01*
X187653503Y-78088690D01*
X187653501Y-78088688D01*
X187653500Y-78088686D01*
X187560314Y-77995500D01*
X187560311Y-77995498D01*
X187539795Y-77983653D01*
X187498855Y-77938183D01*
X187492460Y-77877333D01*
X187501087Y-77852971D01*
X187504525Y-77846222D01*
X187504528Y-77846220D01*
X187565719Y-77726126D01*
X187580018Y-77635844D01*
X187581500Y-77626489D01*
X187581500Y-77059510D01*
X187576843Y-77030108D01*
X187565719Y-76959874D01*
X187565716Y-76959869D01*
X187565716Y-76959867D01*
X187504529Y-76839782D01*
X187504528Y-76839780D01*
X187456539Y-76791791D01*
X187428764Y-76737277D01*
X187430917Y-76696170D01*
X187453500Y-76611892D01*
X187453500Y-76480108D01*
X187419392Y-76352814D01*
X187419390Y-76352811D01*
X187419390Y-76352809D01*
X187353503Y-76238690D01*
X187353501Y-76238688D01*
X187353500Y-76238686D01*
X187260314Y-76145500D01*
X187260311Y-76145498D01*
X187260309Y-76145496D01*
X187246213Y-76137358D01*
X187146189Y-76079609D01*
X187146191Y-76079609D01*
X187066666Y-76058301D01*
X187056250Y-76055510D01*
X190332500Y-76055510D01*
X190332500Y-76572489D01*
X190348281Y-76672125D01*
X190348283Y-76672132D01*
X190409385Y-76792050D01*
X190409472Y-76792220D01*
X190504780Y-76887528D01*
X190504782Y-76887529D01*
X190624867Y-76948716D01*
X190624869Y-76948716D01*
X190624874Y-76948719D01*
X190700541Y-76960703D01*
X190724510Y-76964500D01*
X190724512Y-76964500D01*
X191291490Y-76964500D01*
X191312885Y-76961111D01*
X191391126Y-76948719D01*
X191511220Y-76887528D01*
X191576136Y-76822611D01*
X191630651Y-76794836D01*
X191671758Y-76796989D01*
X191737108Y-76814500D01*
X191737110Y-76814500D01*
X191868890Y-76814500D01*
X191868892Y-76814500D01*
X191982350Y-76784099D01*
X192043449Y-76787302D01*
X192077972Y-76809720D01*
X192155780Y-76887528D01*
X192155782Y-76887529D01*
X192275867Y-76948716D01*
X192275869Y-76948716D01*
X192275874Y-76948719D01*
X192351541Y-76960703D01*
X192375510Y-76964500D01*
X192375512Y-76964500D01*
X192942490Y-76964500D01*
X192963885Y-76961111D01*
X193042126Y-76948719D01*
X193162220Y-76887528D01*
X193226924Y-76822823D01*
X193281438Y-76795047D01*
X193322548Y-76797200D01*
X193387108Y-76814500D01*
X193387109Y-76814500D01*
X193518890Y-76814500D01*
X193518892Y-76814500D01*
X193570036Y-76800796D01*
X193631135Y-76803999D01*
X193678685Y-76842504D01*
X193683185Y-76850164D01*
X193686208Y-76855885D01*
X193766845Y-76965144D01*
X193766847Y-76965146D01*
X193766850Y-76965150D01*
X193766853Y-76965152D01*
X193766855Y-76965154D01*
X193876116Y-77045792D01*
X193876117Y-77045792D01*
X193876118Y-77045793D01*
X194004301Y-77090646D01*
X194034725Y-77093499D01*
X194034727Y-77093500D01*
X194034734Y-77093500D01*
X195093273Y-77093500D01*
X195093273Y-77093499D01*
X195123699Y-77090646D01*
X195251882Y-77045793D01*
X195361150Y-76965150D01*
X195441793Y-76855882D01*
X195486646Y-76727699D01*
X195489499Y-76697273D01*
X195489500Y-76697273D01*
X195489500Y-76230108D01*
X196302500Y-76230108D01*
X196302500Y-76361892D01*
X196328971Y-76460683D01*
X196336609Y-76489190D01*
X196402496Y-76603309D01*
X196402498Y-76603311D01*
X196402500Y-76603314D01*
X196495686Y-76696500D01*
X196495688Y-76696501D01*
X196495690Y-76696503D01*
X196609810Y-76762390D01*
X196609808Y-76762390D01*
X196609812Y-76762391D01*
X196609814Y-76762392D01*
X196737108Y-76796500D01*
X196737110Y-76796500D01*
X196868890Y-76796500D01*
X196868892Y-76796500D01*
X196996186Y-76762392D01*
X196996188Y-76762390D01*
X196996190Y-76762390D01*
X197110309Y-76696503D01*
X197110312Y-76696501D01*
X197110311Y-76696501D01*
X197110314Y-76696500D01*
X197114295Y-76692518D01*
X197168808Y-76664739D01*
X197229241Y-76674307D01*
X197256599Y-76697673D01*
X197257441Y-76696832D01*
X197262948Y-76702339D01*
X197262950Y-76702342D01*
X197352658Y-76792050D01*
X197465696Y-76849646D01*
X197559481Y-76864500D01*
X198172518Y-76864499D01*
X198172520Y-76864499D01*
X198172521Y-76864498D01*
X198226928Y-76855882D01*
X198266299Y-76849647D01*
X198266299Y-76849646D01*
X198266304Y-76849646D01*
X198379342Y-76792050D01*
X198469050Y-76702342D01*
X198520151Y-76602050D01*
X198563413Y-76558789D01*
X198623845Y-76549218D01*
X198637613Y-76552420D01*
X198648230Y-76555704D01*
X198659814Y-76562392D01*
X198734850Y-76582497D01*
X198736626Y-76583047D01*
X198760154Y-76599637D01*
X198784308Y-76615322D01*
X198785016Y-76617167D01*
X198786631Y-76618306D01*
X198795916Y-76645562D01*
X198806235Y-76672444D01*
X198805961Y-76675049D01*
X198806361Y-76676223D01*
X198805568Y-76678783D01*
X198802999Y-76703242D01*
X198802501Y-76705100D01*
X198802500Y-76705107D01*
X198802500Y-76705108D01*
X198802500Y-76836892D01*
X198820401Y-76903700D01*
X198836609Y-76964190D01*
X198902496Y-77078309D01*
X198906449Y-77083460D01*
X198904680Y-77084816D01*
X198927963Y-77130535D01*
X198918378Y-77190964D01*
X198905909Y-77208125D01*
X198906449Y-77208540D01*
X198902496Y-77213690D01*
X198836609Y-77327809D01*
X198836608Y-77327814D01*
X198802500Y-77455108D01*
X198802500Y-77586892D01*
X198826643Y-77676996D01*
X198836609Y-77714190D01*
X198902496Y-77828309D01*
X198902498Y-77828311D01*
X198902500Y-77828314D01*
X198995686Y-77921500D01*
X198995688Y-77921501D01*
X198995690Y-77921503D01*
X199109810Y-77987390D01*
X199109808Y-77987390D01*
X199109812Y-77987391D01*
X199109814Y-77987392D01*
X199237108Y-78021500D01*
X199237110Y-78021500D01*
X199368890Y-78021500D01*
X199368892Y-78021500D01*
X199496186Y-77987392D01*
X199496188Y-77987390D01*
X199496190Y-77987390D01*
X199610309Y-77921503D01*
X199610309Y-77921502D01*
X199610314Y-77921500D01*
X199700498Y-77831315D01*
X199755012Y-77803539D01*
X199815445Y-77813110D01*
X199858709Y-77856374D01*
X199869500Y-77901320D01*
X199869500Y-78284520D01*
X199869501Y-78284523D01*
X199884352Y-78378299D01*
X199884354Y-78378304D01*
X199941950Y-78491342D01*
X200031658Y-78581050D01*
X200144696Y-78638646D01*
X200238481Y-78653500D01*
X200701518Y-78653499D01*
X200701520Y-78653499D01*
X200701521Y-78653498D01*
X200748411Y-78646072D01*
X200795299Y-78638647D01*
X200795299Y-78638646D01*
X200795304Y-78638646D01*
X200908342Y-78581050D01*
X200998050Y-78491342D01*
X201055646Y-78378304D01*
X201070500Y-78284519D01*
X201070499Y-77694034D01*
X201089406Y-77635844D01*
X201138906Y-77599880D01*
X201182430Y-77595883D01*
X201187103Y-77596498D01*
X201187108Y-77596500D01*
X201187113Y-77596500D01*
X201318890Y-77596500D01*
X201318892Y-77596500D01*
X201394880Y-77576139D01*
X201455978Y-77579341D01*
X201503528Y-77617846D01*
X201519500Y-77671766D01*
X201519500Y-78284520D01*
X201519501Y-78284523D01*
X201534352Y-78378299D01*
X201534354Y-78378304D01*
X201591950Y-78491342D01*
X201681658Y-78581050D01*
X201794696Y-78638646D01*
X201888481Y-78653500D01*
X202351518Y-78653499D01*
X202351520Y-78653499D01*
X202351521Y-78653498D01*
X202398411Y-78646072D01*
X202445299Y-78638647D01*
X202445299Y-78638646D01*
X202445304Y-78638646D01*
X202558342Y-78581050D01*
X202648050Y-78491342D01*
X202705646Y-78378304D01*
X202706642Y-78372013D01*
X202734419Y-78317497D01*
X202788935Y-78289719D01*
X202804423Y-78288500D01*
X202873378Y-78288500D01*
X202873380Y-78288500D01*
X202952350Y-78267340D01*
X203023153Y-78226462D01*
X203572618Y-77676995D01*
X203627135Y-77649219D01*
X203642622Y-77648000D01*
X217406248Y-77648000D01*
X217464439Y-77666907D01*
X217476252Y-77676996D01*
X222329518Y-82530262D01*
X222400321Y-82571140D01*
X222479291Y-82592300D01*
X222479292Y-82592300D01*
X225243500Y-82592300D01*
X225301691Y-82611207D01*
X225337655Y-82660707D01*
X225342500Y-82691300D01*
X225342500Y-83136881D01*
X225345615Y-83148506D01*
X225342412Y-83209607D01*
X225303905Y-83257157D01*
X225244805Y-83272991D01*
X225234501Y-83271908D01*
X225147322Y-83258100D01*
X224534279Y-83258100D01*
X224534276Y-83258101D01*
X224440500Y-83272952D01*
X224440495Y-83272954D01*
X224327459Y-83330549D01*
X224237749Y-83420259D01*
X224180154Y-83533295D01*
X224165300Y-83627077D01*
X224165300Y-84090120D01*
X224165301Y-84090123D01*
X224180152Y-84183899D01*
X224180154Y-84183904D01*
X224237750Y-84296942D01*
X224327458Y-84386650D01*
X224440496Y-84444246D01*
X224534281Y-84459100D01*
X225147318Y-84459099D01*
X225147320Y-84459099D01*
X225147321Y-84459098D01*
X225194211Y-84451672D01*
X225241099Y-84444247D01*
X225241099Y-84444246D01*
X225241104Y-84444246D01*
X225354142Y-84386650D01*
X225443850Y-84296942D01*
X225473804Y-84238155D01*
X225517068Y-84194890D01*
X225562013Y-84184100D01*
X225896700Y-84184100D01*
X225954891Y-84203007D01*
X225990855Y-84252507D01*
X225995700Y-84283100D01*
X225995700Y-84516849D01*
X225979017Y-84571849D01*
X225960704Y-84599256D01*
X225946200Y-84672173D01*
X225946200Y-84696799D01*
X225946201Y-84696800D01*
X226166511Y-84696800D01*
X226176212Y-84697276D01*
X226176448Y-84697299D01*
X226176452Y-84697300D01*
X226176456Y-84697300D01*
X227365944Y-84697300D01*
X227365948Y-84697300D01*
X227365951Y-84697299D01*
X227366188Y-84697276D01*
X227375889Y-84696800D01*
X227596199Y-84696800D01*
X227596200Y-84696799D01*
X227596200Y-84672177D01*
X227596199Y-84672175D01*
X227581693Y-84599253D01*
X227581693Y-84599252D01*
X227563384Y-84571850D01*
X227546700Y-84516849D01*
X227546700Y-84177053D01*
X227546698Y-84177041D01*
X227534579Y-84116115D01*
X227534579Y-84077485D01*
X227546698Y-84016558D01*
X227546700Y-84016546D01*
X227546700Y-83677053D01*
X227546698Y-83677041D01*
X227534579Y-83616115D01*
X227534579Y-83577485D01*
X227546698Y-83516558D01*
X227546700Y-83516546D01*
X227546700Y-83256300D01*
X227565607Y-83198109D01*
X227615107Y-83162145D01*
X227636720Y-83158722D01*
X227636645Y-83158147D01*
X227643076Y-83157300D01*
X227643079Y-83157300D01*
X227722049Y-83136140D01*
X227792852Y-83095262D01*
X228101462Y-82786651D01*
X228133527Y-82731113D01*
X228142338Y-82715853D01*
X228142338Y-82715851D01*
X228142340Y-82715849D01*
X228163500Y-82636878D01*
X228163500Y-82555121D01*
X228163500Y-82055122D01*
X228159512Y-82040236D01*
X228142340Y-81976151D01*
X228134235Y-81962113D01*
X228101463Y-81905350D01*
X228101462Y-81905348D01*
X227794452Y-81598338D01*
X227723649Y-81557460D01*
X227669348Y-81542910D01*
X227644676Y-81536299D01*
X227638245Y-81535453D01*
X227638443Y-81533942D01*
X227587509Y-81517393D01*
X227551545Y-81467893D01*
X227546700Y-81437300D01*
X227546700Y-81177053D01*
X227546698Y-81177041D01*
X227534579Y-81116115D01*
X227534579Y-81077485D01*
X227546698Y-81016558D01*
X227546700Y-81016546D01*
X227546700Y-80676749D01*
X227563385Y-80621747D01*
X227581694Y-80594346D01*
X227596199Y-80521424D01*
X227596200Y-80521422D01*
X227596200Y-80496801D01*
X227596199Y-80496800D01*
X227375889Y-80496800D01*
X227375365Y-80496629D01*
X227366188Y-80496324D01*
X227365951Y-80496300D01*
X227365948Y-80496300D01*
X226870200Y-80496300D01*
X226812009Y-80477393D01*
X226776045Y-80427893D01*
X226771200Y-80397300D01*
X226771200Y-80295800D01*
X226790107Y-80237609D01*
X226839607Y-80201645D01*
X226870200Y-80196800D01*
X227507377Y-80196800D01*
X227556875Y-80210062D01*
X227614065Y-80243081D01*
X227760434Y-80282300D01*
X227760436Y-80282300D01*
X227911964Y-80282300D01*
X227911966Y-80282300D01*
X228058335Y-80243081D01*
X228058337Y-80243079D01*
X228058339Y-80243079D01*
X228189560Y-80167318D01*
X228189560Y-80167317D01*
X228189565Y-80167315D01*
X228296715Y-80060165D01*
X228336640Y-79991013D01*
X228372479Y-79928939D01*
X228372479Y-79928937D01*
X228372481Y-79928935D01*
X228411700Y-79782566D01*
X228411700Y-79631034D01*
X228372481Y-79484665D01*
X228372479Y-79484662D01*
X228372479Y-79484660D01*
X228296718Y-79353439D01*
X228296716Y-79353437D01*
X228296715Y-79353435D01*
X228189565Y-79246285D01*
X228189562Y-79246283D01*
X228189560Y-79246281D01*
X228058338Y-79170520D01*
X228058339Y-79170520D01*
X228043070Y-79166428D01*
X228010641Y-79157739D01*
X227959327Y-79124415D01*
X227937401Y-79067294D01*
X227953237Y-79008193D01*
X228000787Y-78969688D01*
X228016945Y-78965016D01*
X228090528Y-78950380D01*
X228218011Y-78897575D01*
X228332742Y-78820914D01*
X228430314Y-78723342D01*
X228506975Y-78608611D01*
X228559780Y-78481128D01*
X228586700Y-78345793D01*
X228586700Y-78207807D01*
X228586699Y-78207804D01*
X230515700Y-78207804D01*
X230515700Y-78345795D01*
X230542620Y-78481127D01*
X230542620Y-78481129D01*
X230595422Y-78608606D01*
X230595428Y-78608617D01*
X230672085Y-78723341D01*
X230769658Y-78820914D01*
X230884382Y-78897571D01*
X230884393Y-78897577D01*
X230909931Y-78908155D01*
X231011872Y-78950380D01*
X231147207Y-78977300D01*
X231147208Y-78977300D01*
X231885192Y-78977300D01*
X231885193Y-78977300D01*
X232020528Y-78950380D01*
X232148011Y-78897575D01*
X232262742Y-78820914D01*
X232360314Y-78723342D01*
X232436975Y-78608611D01*
X232489780Y-78481128D01*
X232516700Y-78345793D01*
X232516700Y-78207807D01*
X232489780Y-78072472D01*
X232467424Y-78018500D01*
X232436977Y-77944993D01*
X232436971Y-77944982D01*
X232360314Y-77830258D01*
X232262741Y-77732685D01*
X232148017Y-77656028D01*
X232148006Y-77656022D01*
X232020528Y-77603220D01*
X231885195Y-77576300D01*
X231885193Y-77576300D01*
X231147207Y-77576300D01*
X231147204Y-77576300D01*
X231011872Y-77603220D01*
X231011870Y-77603220D01*
X230884393Y-77656022D01*
X230884382Y-77656028D01*
X230769658Y-77732685D01*
X230672085Y-77830258D01*
X230595428Y-77944982D01*
X230595422Y-77944993D01*
X230542620Y-78072470D01*
X230542620Y-78072472D01*
X230515700Y-78207804D01*
X228586699Y-78207804D01*
X228559780Y-78072472D01*
X228537424Y-78018500D01*
X228506977Y-77944993D01*
X228506971Y-77944982D01*
X228430314Y-77830258D01*
X228332741Y-77732685D01*
X228218017Y-77656028D01*
X228218006Y-77656022D01*
X228090528Y-77603220D01*
X227955195Y-77576300D01*
X227955193Y-77576300D01*
X226717207Y-77576300D01*
X226717204Y-77576300D01*
X226581872Y-77603220D01*
X226581870Y-77603220D01*
X226454393Y-77656022D01*
X226454382Y-77656028D01*
X226339658Y-77732685D01*
X226242085Y-77830258D01*
X226165428Y-77944982D01*
X226165422Y-77944993D01*
X226112620Y-78072470D01*
X226112620Y-78072472D01*
X226085700Y-78207804D01*
X226085700Y-78311176D01*
X226066793Y-78369367D01*
X226017293Y-78405331D01*
X225961079Y-78406803D01*
X225918894Y-78395500D01*
X225918892Y-78395500D01*
X225787108Y-78395500D01*
X225659814Y-78429608D01*
X225659813Y-78429608D01*
X225659811Y-78429609D01*
X225642099Y-78439836D01*
X225592598Y-78453100D01*
X225562013Y-78453100D01*
X225503822Y-78434193D01*
X225473804Y-78399045D01*
X225443851Y-78340260D01*
X225443850Y-78340258D01*
X225354142Y-78250550D01*
X225241104Y-78192954D01*
X225241105Y-78192954D01*
X225147322Y-78178100D01*
X224534279Y-78178100D01*
X224534276Y-78178101D01*
X224440500Y-78192952D01*
X224440495Y-78192954D01*
X224327459Y-78250549D01*
X224237749Y-78340259D01*
X224180154Y-78453295D01*
X224165300Y-78547077D01*
X224165300Y-79010120D01*
X224165301Y-79010123D01*
X224180152Y-79103899D01*
X224180154Y-79103904D01*
X224237750Y-79216942D01*
X224327458Y-79306650D01*
X224440496Y-79364246D01*
X224534281Y-79379100D01*
X225147318Y-79379099D01*
X225147320Y-79379099D01*
X225147321Y-79379098D01*
X225194211Y-79371672D01*
X225241099Y-79364247D01*
X225241099Y-79364246D01*
X225241104Y-79364246D01*
X225354142Y-79306650D01*
X225384987Y-79275804D01*
X225439502Y-79248029D01*
X225499934Y-79257600D01*
X225524989Y-79275803D01*
X225545686Y-79296500D01*
X225545688Y-79296501D01*
X225545690Y-79296503D01*
X225659810Y-79362390D01*
X225659808Y-79362390D01*
X225659812Y-79362391D01*
X225659814Y-79362392D01*
X225787108Y-79396500D01*
X225852165Y-79396500D01*
X225859762Y-79398968D01*
X225867652Y-79397719D01*
X225888307Y-79408243D01*
X225910356Y-79415407D01*
X225922169Y-79425496D01*
X225966704Y-79470031D01*
X225994481Y-79524548D01*
X225995700Y-79540035D01*
X225995700Y-79716849D01*
X225979017Y-79771849D01*
X225960704Y-79799256D01*
X225946200Y-79872173D01*
X225946200Y-79896799D01*
X225946201Y-79896800D01*
X226166511Y-79896800D01*
X226176212Y-79897276D01*
X226176448Y-79897299D01*
X226176452Y-79897300D01*
X226672200Y-79897300D01*
X226687112Y-79902145D01*
X226702793Y-79902145D01*
X226715478Y-79911361D01*
X226730391Y-79916207D01*
X226739607Y-79928892D01*
X226752293Y-79938109D01*
X226757138Y-79953021D01*
X226766355Y-79965707D01*
X226771200Y-79996300D01*
X226771200Y-80097800D01*
X226752293Y-80155991D01*
X226702793Y-80191955D01*
X226672200Y-80196800D01*
X225946201Y-80196800D01*
X225942861Y-80200139D01*
X225927293Y-80248056D01*
X225877793Y-80284020D01*
X225816607Y-80284020D01*
X225777197Y-80259869D01*
X225685462Y-80168135D01*
X225685457Y-80168131D01*
X225611242Y-80125283D01*
X225611243Y-80125283D01*
X225539635Y-80106096D01*
X225488320Y-80072771D01*
X225477051Y-80055419D01*
X225443850Y-79990258D01*
X225354142Y-79900550D01*
X225241104Y-79842954D01*
X225241105Y-79842954D01*
X225147322Y-79828100D01*
X224534279Y-79828100D01*
X224534276Y-79828101D01*
X224440500Y-79842952D01*
X224440495Y-79842954D01*
X224327459Y-79900549D01*
X224237749Y-79990259D01*
X224180154Y-80103295D01*
X224165300Y-80197077D01*
X224165300Y-80660120D01*
X224165301Y-80660123D01*
X224180152Y-80753899D01*
X224180154Y-80753904D01*
X224237750Y-80866942D01*
X224327458Y-80956650D01*
X224440496Y-81014246D01*
X224534281Y-81029100D01*
X225147318Y-81029099D01*
X225147320Y-81029099D01*
X225147321Y-81029098D01*
X225194211Y-81021672D01*
X225241099Y-81014247D01*
X225241099Y-81014246D01*
X225241104Y-81014246D01*
X225354142Y-80956650D01*
X225383731Y-80927060D01*
X225438244Y-80899285D01*
X225498676Y-80908856D01*
X225523732Y-80927059D01*
X225703938Y-81107265D01*
X225703940Y-81107266D01*
X225703942Y-81107268D01*
X225778157Y-81150116D01*
X225778155Y-81150116D01*
X225778159Y-81150117D01*
X225778161Y-81150118D01*
X225860947Y-81172300D01*
X225896700Y-81172300D01*
X225911612Y-81177145D01*
X225927293Y-81177145D01*
X225939978Y-81186361D01*
X225954891Y-81191207D01*
X225964107Y-81203892D01*
X225976793Y-81213109D01*
X225981638Y-81228021D01*
X225990855Y-81240707D01*
X225995700Y-81271300D01*
X225995700Y-81437300D01*
X225976793Y-81495491D01*
X225927293Y-81531455D01*
X225896700Y-81536300D01*
X225867821Y-81536300D01*
X225833501Y-81545496D01*
X225788845Y-81557461D01*
X225735890Y-81588036D01*
X225686390Y-81601300D01*
X222843052Y-81601300D01*
X222784861Y-81582393D01*
X222773048Y-81572304D01*
X221042096Y-79841352D01*
X219230997Y-78030253D01*
X221168500Y-78030253D01*
X221168500Y-79319746D01*
X221168501Y-79319758D01*
X221180132Y-79378227D01*
X221180134Y-79378233D01*
X221205836Y-79416698D01*
X221224448Y-79444552D01*
X221290769Y-79488867D01*
X221335231Y-79497711D01*
X221349241Y-79500498D01*
X221349246Y-79500498D01*
X221349252Y-79500500D01*
X221349253Y-79500500D01*
X222388747Y-79500500D01*
X222388748Y-79500500D01*
X222447231Y-79488867D01*
X222513552Y-79444552D01*
X222557867Y-79378231D01*
X222569500Y-79319748D01*
X222569500Y-78030252D01*
X222557867Y-77971769D01*
X222513552Y-77905448D01*
X222513548Y-77905445D01*
X222447233Y-77861134D01*
X222447228Y-77861132D01*
X222433182Y-77858338D01*
X222379799Y-77828439D01*
X222354186Y-77772873D01*
X222353500Y-77761241D01*
X222353500Y-77630109D01*
X222349184Y-77614000D01*
X222319392Y-77502814D01*
X222319390Y-77502811D01*
X222319390Y-77502809D01*
X222253503Y-77388690D01*
X222253501Y-77388688D01*
X222253500Y-77388686D01*
X222160314Y-77295500D01*
X222160311Y-77295498D01*
X222160309Y-77295496D01*
X222046189Y-77229609D01*
X222046191Y-77229609D01*
X221996799Y-77216375D01*
X221918892Y-77195500D01*
X221787108Y-77195500D01*
X221709200Y-77216375D01*
X221659809Y-77229609D01*
X221545690Y-77295496D01*
X221452496Y-77388690D01*
X221386609Y-77502809D01*
X221376733Y-77539669D01*
X221356817Y-77613999D01*
X221352500Y-77630109D01*
X221352500Y-77768381D01*
X221349585Y-77768381D01*
X221340589Y-77816676D01*
X221296169Y-77858754D01*
X221291520Y-77860822D01*
X221290768Y-77861133D01*
X221224451Y-77905445D01*
X221224445Y-77905451D01*
X221180134Y-77971766D01*
X221180132Y-77971772D01*
X221168501Y-78030241D01*
X221168500Y-78030253D01*
X219230997Y-78030253D01*
X217919782Y-76719038D01*
X217848979Y-76678160D01*
X217770009Y-76657000D01*
X217770008Y-76657000D01*
X217770007Y-76657000D01*
X205538821Y-76657000D01*
X205480630Y-76638093D01*
X205444666Y-76588593D01*
X205444666Y-76527407D01*
X205468815Y-76487998D01*
X205553500Y-76403314D01*
X205553503Y-76403309D01*
X205619390Y-76289190D01*
X205619390Y-76289188D01*
X205619392Y-76289186D01*
X205653500Y-76161892D01*
X205653500Y-76030108D01*
X205619392Y-75902814D01*
X205619390Y-75902811D01*
X205619390Y-75902809D01*
X205553503Y-75788690D01*
X205553501Y-75788688D01*
X205553500Y-75788686D01*
X205460314Y-75695500D01*
X205460311Y-75695498D01*
X205460309Y-75695496D01*
X205346189Y-75629609D01*
X205346191Y-75629609D01*
X205287939Y-75614001D01*
X205218892Y-75595500D01*
X205087108Y-75595500D01*
X205018061Y-75614001D01*
X204959809Y-75629609D01*
X204845690Y-75695496D01*
X204752496Y-75788690D01*
X204686609Y-75902809D01*
X204679292Y-75930118D01*
X204652500Y-76030108D01*
X204652500Y-76161892D01*
X204652996Y-76163743D01*
X204686609Y-76289190D01*
X204752496Y-76403309D01*
X204752498Y-76403311D01*
X204752500Y-76403314D01*
X204837184Y-76487998D01*
X204864960Y-76542513D01*
X204855389Y-76602945D01*
X204812124Y-76646210D01*
X204767179Y-76657000D01*
X203642622Y-76657000D01*
X203584431Y-76638093D01*
X203572618Y-76628004D01*
X203315110Y-76370496D01*
X203023153Y-76078538D01*
X202952350Y-76037660D01*
X202873380Y-76016500D01*
X202873379Y-76016500D01*
X202873378Y-76016500D01*
X202804424Y-76016500D01*
X202746233Y-75997593D01*
X202710269Y-75948093D01*
X202706643Y-75932987D01*
X202705647Y-75926701D01*
X202705646Y-75926699D01*
X202705646Y-75926696D01*
X202648050Y-75813658D01*
X202558342Y-75723950D01*
X202445304Y-75666354D01*
X202445305Y-75666354D01*
X202351522Y-75651500D01*
X201888479Y-75651500D01*
X201888476Y-75651501D01*
X201794700Y-75666352D01*
X201794695Y-75666354D01*
X201681659Y-75723949D01*
X201591949Y-75813659D01*
X201534354Y-75926695D01*
X201519500Y-76020478D01*
X201519500Y-76520233D01*
X201500593Y-76578424D01*
X201451093Y-76614388D01*
X201394878Y-76615860D01*
X201363001Y-76607319D01*
X201318892Y-76595500D01*
X201187108Y-76595500D01*
X201182421Y-76596117D01*
X201122260Y-76584967D01*
X201080143Y-76540585D01*
X201070499Y-76497964D01*
X201070499Y-76020478D01*
X201070498Y-76020476D01*
X201055647Y-75926700D01*
X201055646Y-75926698D01*
X201055646Y-75926696D01*
X200998050Y-75813658D01*
X200908342Y-75723950D01*
X200795304Y-75666354D01*
X200795305Y-75666354D01*
X200701522Y-75651500D01*
X200238479Y-75651500D01*
X200238476Y-75651501D01*
X200144700Y-75666352D01*
X200144695Y-75666354D01*
X200031659Y-75723949D01*
X199941949Y-75813659D01*
X199884354Y-75926695D01*
X199869500Y-76020478D01*
X199869500Y-76390679D01*
X199850593Y-76448870D01*
X199801093Y-76484834D01*
X199739907Y-76484834D01*
X199700498Y-76460684D01*
X199610314Y-76370500D01*
X199610311Y-76370498D01*
X199610309Y-76370496D01*
X199496189Y-76304609D01*
X199496191Y-76304609D01*
X199469825Y-76297544D01*
X199423003Y-76284998D01*
X199371691Y-76251676D01*
X199349764Y-76194555D01*
X199353002Y-76163749D01*
X199353500Y-76161892D01*
X199353500Y-76030108D01*
X199319392Y-75902814D01*
X199319390Y-75902811D01*
X199319390Y-75902809D01*
X199253503Y-75788690D01*
X199253501Y-75788688D01*
X199253500Y-75788686D01*
X199160314Y-75695500D01*
X199160311Y-75695498D01*
X199160309Y-75695496D01*
X199046189Y-75629609D01*
X199046191Y-75629609D01*
X198987939Y-75614001D01*
X198918892Y-75595500D01*
X198787108Y-75595500D01*
X198718061Y-75614001D01*
X198659809Y-75629609D01*
X198545690Y-75695496D01*
X198545684Y-75695501D01*
X198512046Y-75729139D01*
X198457529Y-75756916D01*
X198397097Y-75747344D01*
X198383851Y-75739227D01*
X198379339Y-75735948D01*
X198266304Y-75678354D01*
X198266305Y-75678354D01*
X198172522Y-75663500D01*
X197559479Y-75663500D01*
X197559476Y-75663501D01*
X197465700Y-75678352D01*
X197465695Y-75678354D01*
X197352659Y-75735949D01*
X197262950Y-75825658D01*
X197248119Y-75854765D01*
X197204853Y-75898029D01*
X197144421Y-75907599D01*
X197110410Y-75895555D01*
X196996187Y-75829608D01*
X196936659Y-75813658D01*
X196868892Y-75795500D01*
X196737108Y-75795500D01*
X196669341Y-75813658D01*
X196609809Y-75829609D01*
X196495690Y-75895496D01*
X196402496Y-75988690D01*
X196336609Y-76102809D01*
X196325170Y-76145500D01*
X196302500Y-76230108D01*
X195489500Y-76230108D01*
X195489500Y-76088727D01*
X195489499Y-76088725D01*
X195486646Y-76058305D01*
X195486646Y-76058301D01*
X195441793Y-75930118D01*
X195439271Y-75926701D01*
X195361154Y-75820855D01*
X195361152Y-75820853D01*
X195361150Y-75820850D01*
X195361146Y-75820847D01*
X195361144Y-75820845D01*
X195251883Y-75740207D01*
X195123703Y-75695355D01*
X195123694Y-75695353D01*
X195093274Y-75692500D01*
X195093266Y-75692500D01*
X194034734Y-75692500D01*
X194034725Y-75692500D01*
X194004305Y-75695353D01*
X194004296Y-75695355D01*
X193876116Y-75740207D01*
X193766855Y-75820845D01*
X193761605Y-75826096D01*
X193759762Y-75824253D01*
X193719669Y-75852909D01*
X193658486Y-75852434D01*
X193651923Y-75849984D01*
X193646191Y-75847609D01*
X193584237Y-75831009D01*
X193518892Y-75813500D01*
X193387108Y-75813500D01*
X193369280Y-75818277D01*
X193322548Y-75830798D01*
X193261446Y-75827595D01*
X193226924Y-75805176D01*
X193162220Y-75740472D01*
X193162217Y-75740470D01*
X193042132Y-75679283D01*
X193042127Y-75679281D01*
X193042126Y-75679281D01*
X193008913Y-75674020D01*
X192942490Y-75663500D01*
X192942488Y-75663500D01*
X192375512Y-75663500D01*
X192375510Y-75663500D01*
X192275874Y-75679281D01*
X192275867Y-75679283D01*
X192155782Y-75740470D01*
X192155778Y-75740473D01*
X192077974Y-75818277D01*
X192023457Y-75846054D01*
X191982349Y-75843900D01*
X191896341Y-75820855D01*
X191868892Y-75813500D01*
X191737108Y-75813500D01*
X191737105Y-75813500D01*
X191671758Y-75831009D01*
X191610657Y-75827806D01*
X191576135Y-75805387D01*
X191511220Y-75740472D01*
X191511217Y-75740470D01*
X191391132Y-75679283D01*
X191391127Y-75679281D01*
X191391126Y-75679281D01*
X191357913Y-75674020D01*
X191291490Y-75663500D01*
X191291488Y-75663500D01*
X190724512Y-75663500D01*
X190724510Y-75663500D01*
X190624874Y-75679281D01*
X190624867Y-75679283D01*
X190504782Y-75740470D01*
X190409470Y-75835782D01*
X190348283Y-75955867D01*
X190348281Y-75955874D01*
X190332500Y-76055510D01*
X187056250Y-76055510D01*
X187018892Y-76045500D01*
X186887108Y-76045500D01*
X186839334Y-76058301D01*
X186759812Y-76079608D01*
X186702000Y-76112987D01*
X186642152Y-76125708D01*
X186586256Y-76100821D01*
X186555663Y-76047833D01*
X186554474Y-76036525D01*
X186554347Y-76036542D01*
X186553500Y-76030110D01*
X186553500Y-76030109D01*
X186553500Y-76030108D01*
X186519392Y-75902814D01*
X186519390Y-75902811D01*
X186519390Y-75902809D01*
X186453503Y-75788690D01*
X186453501Y-75788688D01*
X186453500Y-75788686D01*
X186360314Y-75695500D01*
X186360311Y-75695498D01*
X186360309Y-75695496D01*
X186246189Y-75629609D01*
X186246191Y-75629609D01*
X186187939Y-75614001D01*
X186118892Y-75595500D01*
X185987108Y-75595500D01*
X185918061Y-75614001D01*
X185859809Y-75629609D01*
X185745688Y-75695498D01*
X185732388Y-75708798D01*
X185677870Y-75736574D01*
X185617438Y-75727000D01*
X185603597Y-75718447D01*
X185526647Y-75661654D01*
X185398601Y-75616850D01*
X185368211Y-75614000D01*
X185289001Y-75614000D01*
X185289000Y-75614001D01*
X185289000Y-76913998D01*
X185289001Y-76913999D01*
X185368203Y-76913999D01*
X185398600Y-76911149D01*
X185398602Y-76911149D01*
X185526649Y-76866344D01*
X185619711Y-76797660D01*
X185677758Y-76778317D01*
X185736089Y-76796788D01*
X185772423Y-76846017D01*
X185777500Y-76877314D01*
X185777500Y-77372101D01*
X185758593Y-77430292D01*
X185709093Y-77466256D01*
X185647907Y-77466256D01*
X185608498Y-77442106D01*
X185552342Y-77385950D01*
X185439304Y-77328354D01*
X185439305Y-77328354D01*
X185345522Y-77313500D01*
X184732479Y-77313500D01*
X184732476Y-77313501D01*
X184638700Y-77328352D01*
X184638695Y-77328354D01*
X184525659Y-77385949D01*
X184435949Y-77475659D01*
X184380519Y-77584446D01*
X184337254Y-77627710D01*
X184292310Y-77638500D01*
X182080200Y-77638500D01*
X182010189Y-77667500D01*
X182010188Y-77667500D01*
X181978943Y-77680441D01*
X181978942Y-77680442D01*
X181978941Y-77680442D01*
X181978941Y-77680443D01*
X180635142Y-79024243D01*
X180635141Y-79024242D01*
X180557646Y-79101738D01*
X180557644Y-79101740D01*
X180557643Y-79101742D01*
X180546100Y-79129609D01*
X180515700Y-79203000D01*
X180515700Y-82702677D01*
X180513231Y-82710274D01*
X180514481Y-82718164D01*
X180503956Y-82738819D01*
X180496793Y-82760868D01*
X180486704Y-82772681D01*
X180469504Y-82789881D01*
X180414987Y-82817658D01*
X180354555Y-82808087D01*
X180311290Y-82764822D01*
X180300500Y-82719877D01*
X180300500Y-76337308D01*
X181109500Y-76337308D01*
X181109500Y-76469092D01*
X181137205Y-76572488D01*
X181143609Y-76596390D01*
X181209496Y-76710509D01*
X181209498Y-76710511D01*
X181209500Y-76710514D01*
X181302686Y-76803700D01*
X181302688Y-76803701D01*
X181302690Y-76803703D01*
X181416810Y-76869590D01*
X181416808Y-76869590D01*
X181416812Y-76869591D01*
X181416814Y-76869592D01*
X181544108Y-76903700D01*
X181544110Y-76903700D01*
X181675890Y-76903700D01*
X181675892Y-76903700D01*
X181803186Y-76869592D01*
X181803188Y-76869590D01*
X181803190Y-76869590D01*
X181917309Y-76803703D01*
X181917309Y-76803702D01*
X181917314Y-76803700D01*
X182010500Y-76710514D01*
X182014946Y-76702814D01*
X182076390Y-76596390D01*
X182076390Y-76596388D01*
X182076392Y-76596386D01*
X182098467Y-76514001D01*
X184314001Y-76514001D01*
X184314001Y-76518203D01*
X184316850Y-76548600D01*
X184316850Y-76548602D01*
X184361654Y-76676647D01*
X184442207Y-76785790D01*
X184442209Y-76785792D01*
X184551352Y-76866345D01*
X184679398Y-76911149D01*
X184709788Y-76913998D01*
X184789000Y-76913998D01*
X184789000Y-76514001D01*
X184788999Y-76514000D01*
X184314002Y-76514000D01*
X184314001Y-76514001D01*
X182098467Y-76514001D01*
X182110500Y-76469092D01*
X182110500Y-76337308D01*
X182076392Y-76210014D01*
X182076390Y-76210011D01*
X182076390Y-76210009D01*
X182010503Y-76095890D01*
X182010501Y-76095888D01*
X182010500Y-76095886D01*
X181924402Y-76009788D01*
X184314000Y-76009788D01*
X184314000Y-76013999D01*
X184314001Y-76014000D01*
X184788999Y-76014000D01*
X184789000Y-76013999D01*
X184789000Y-75613999D01*
X184709797Y-75614000D01*
X184679399Y-75616850D01*
X184679397Y-75616850D01*
X184551352Y-75661654D01*
X184442209Y-75742207D01*
X184442207Y-75742209D01*
X184361654Y-75851352D01*
X184316850Y-75979398D01*
X184314000Y-76009788D01*
X181924402Y-76009788D01*
X181917314Y-76002700D01*
X181917311Y-76002698D01*
X181917309Y-76002696D01*
X181803189Y-75936809D01*
X181803191Y-75936809D01*
X181753799Y-75923575D01*
X181675892Y-75902700D01*
X181544108Y-75902700D01*
X181466200Y-75923575D01*
X181416809Y-75936809D01*
X181302690Y-76002696D01*
X181209496Y-76095890D01*
X181143609Y-76210009D01*
X181135925Y-76238686D01*
X181109500Y-76337308D01*
X180300500Y-76337308D01*
X180300500Y-76004861D01*
X180300977Y-75995157D01*
X180307719Y-75926701D01*
X180312985Y-75873233D01*
X180316771Y-75854203D01*
X180318772Y-75847609D01*
X180350915Y-75741643D01*
X180358342Y-75723714D01*
X180361158Y-75718447D01*
X180413792Y-75619975D01*
X180424573Y-75603841D01*
X180499196Y-75512912D01*
X180512912Y-75499196D01*
X180603842Y-75424571D01*
X180619977Y-75413791D01*
X180723716Y-75358340D01*
X180741643Y-75350915D01*
X180854207Y-75316770D01*
X180873233Y-75312985D01*
X180995157Y-75300976D01*
X181004861Y-75300500D01*
X181047595Y-75300500D01*
X232952405Y-75300500D01*
X232995139Y-75300500D01*
X233004842Y-75300976D01*
G37*
%TD.AperFunction*%
%TA.AperFunction,Conductor*%
G36*
X197334794Y-82281202D02*
G01*
X197360140Y-82285217D01*
X197363933Y-82289010D01*
X197369113Y-82290398D01*
X197385259Y-82310336D01*
X197403405Y-82328482D01*
X197404243Y-82333779D01*
X197407619Y-82337947D01*
X197408962Y-82363570D01*
X197412976Y-82388914D01*
X197410822Y-82399049D01*
X197402500Y-82430108D01*
X197402500Y-82561892D01*
X197422592Y-82636876D01*
X197436609Y-82689190D01*
X197502496Y-82803309D01*
X197502498Y-82803311D01*
X197502500Y-82803314D01*
X197595686Y-82896500D01*
X197595688Y-82896501D01*
X197595690Y-82896503D01*
X197709810Y-82962390D01*
X197709808Y-82962390D01*
X197709812Y-82962391D01*
X197709814Y-82962392D01*
X197837108Y-82996500D01*
X197837110Y-82996500D01*
X197968890Y-82996500D01*
X197968892Y-82996500D01*
X198096186Y-82962392D01*
X198096188Y-82962390D01*
X198096190Y-82962390D01*
X198210309Y-82896503D01*
X198210309Y-82896502D01*
X198210314Y-82896500D01*
X198255898Y-82850915D01*
X198310413Y-82823140D01*
X198370845Y-82832711D01*
X198414110Y-82875976D01*
X198424900Y-82920921D01*
X198424900Y-83110573D01*
X198427713Y-83140568D01*
X198427715Y-83140577D01*
X198433567Y-83157300D01*
X198471945Y-83266979D01*
X198503650Y-83309937D01*
X198549893Y-83372594D01*
X198569235Y-83430641D01*
X198550764Y-83488972D01*
X198501534Y-83525305D01*
X198489555Y-83528479D01*
X198476754Y-83531025D01*
X198476751Y-83531026D01*
X198303770Y-83602677D01*
X198303761Y-83602681D01*
X198148092Y-83706698D01*
X198148088Y-83706701D01*
X198015701Y-83839088D01*
X198015698Y-83839092D01*
X197911681Y-83994761D01*
X197911677Y-83994770D01*
X197840026Y-84167750D01*
X197803500Y-84351381D01*
X197803500Y-85038618D01*
X197840026Y-85222249D01*
X197911677Y-85395229D01*
X197911681Y-85395238D01*
X197979010Y-85496000D01*
X198015698Y-85550908D01*
X198148092Y-85683302D01*
X198214463Y-85727649D01*
X198303761Y-85787318D01*
X198303767Y-85787320D01*
X198303769Y-85787322D01*
X198476749Y-85858973D01*
X198590304Y-85881560D01*
X198643688Y-85911457D01*
X198669304Y-85967022D01*
X198657367Y-86027031D01*
X198640994Y-86048661D01*
X198378153Y-86311503D01*
X198323636Y-86339281D01*
X198308149Y-86340500D01*
X192283123Y-86340500D01*
X192224932Y-86321593D01*
X192213120Y-86311504D01*
X191936557Y-86034942D01*
X191915693Y-86026300D01*
X191915692Y-86026300D01*
X191902421Y-86020803D01*
X191843659Y-85996462D01*
X191797134Y-85956726D01*
X191782851Y-85897231D01*
X191806266Y-85840703D01*
X191858435Y-85808734D01*
X191881546Y-85805999D01*
X192061499Y-85805999D01*
X192061500Y-85805998D01*
X192311500Y-85805998D01*
X192311501Y-85805999D01*
X192698117Y-85805999D01*
X192698127Y-85805998D01*
X192743625Y-85800009D01*
X192743630Y-85800008D01*
X192843505Y-85753435D01*
X192921435Y-85675505D01*
X192968007Y-85575632D01*
X192968010Y-85575622D01*
X192970593Y-85556001D01*
X192970593Y-85556000D01*
X192311500Y-85556000D01*
X192311500Y-85805998D01*
X192061500Y-85805998D01*
X192061500Y-85530000D01*
X192066345Y-85515088D01*
X192066345Y-85499407D01*
X192075561Y-85486721D01*
X192080407Y-85471809D01*
X192093092Y-85462592D01*
X192102309Y-85449907D01*
X192117221Y-85445061D01*
X192129907Y-85435845D01*
X192160500Y-85431000D01*
X192186500Y-85431000D01*
X192186500Y-85405000D01*
X192205407Y-85346809D01*
X192254907Y-85310845D01*
X192285500Y-85306000D01*
X192970593Y-85306000D01*
X192984428Y-85290224D01*
X193037012Y-85258941D01*
X193058860Y-85256500D01*
X193468064Y-85256500D01*
X193526255Y-85275407D01*
X193559527Y-85317612D01*
X193568500Y-85339274D01*
X193591677Y-85395230D01*
X193598205Y-85405000D01*
X193695698Y-85550908D01*
X193828092Y-85683302D01*
X193894463Y-85727649D01*
X193983761Y-85787318D01*
X193983767Y-85787320D01*
X193983769Y-85787322D01*
X194156749Y-85858973D01*
X194340384Y-85895500D01*
X194340385Y-85895500D01*
X194527615Y-85895500D01*
X194527616Y-85895500D01*
X194711251Y-85858973D01*
X194884231Y-85787322D01*
X194884234Y-85787319D01*
X194884238Y-85787318D01*
X194933665Y-85754291D01*
X195039908Y-85683302D01*
X195172302Y-85550908D01*
X195259501Y-85420406D01*
X195276318Y-85395238D01*
X195276319Y-85395234D01*
X195276322Y-85395231D01*
X195347973Y-85222251D01*
X195384500Y-85038616D01*
X195384500Y-84351384D01*
X195347973Y-84167749D01*
X195276322Y-83994769D01*
X195276320Y-83994767D01*
X195276318Y-83994761D01*
X195196630Y-83875502D01*
X195180021Y-83816614D01*
X195201198Y-83759210D01*
X195252072Y-83725217D01*
X195278945Y-83721500D01*
X195749055Y-83721500D01*
X195807246Y-83740407D01*
X195843210Y-83789907D01*
X195843210Y-83851093D01*
X195831370Y-83875502D01*
X195751681Y-83994761D01*
X195751677Y-83994770D01*
X195680026Y-84167750D01*
X195643500Y-84351381D01*
X195643500Y-85038618D01*
X195680026Y-85222249D01*
X195751677Y-85395229D01*
X195751681Y-85395238D01*
X195819010Y-85496000D01*
X195855698Y-85550908D01*
X195988092Y-85683302D01*
X196054463Y-85727649D01*
X196143761Y-85787318D01*
X196143767Y-85787320D01*
X196143769Y-85787322D01*
X196316749Y-85858973D01*
X196500384Y-85895500D01*
X196500385Y-85895500D01*
X196687615Y-85895500D01*
X196687616Y-85895500D01*
X196871251Y-85858973D01*
X197044231Y-85787322D01*
X197044234Y-85787319D01*
X197044238Y-85787318D01*
X197093665Y-85754291D01*
X197199908Y-85683302D01*
X197332302Y-85550908D01*
X197419501Y-85420406D01*
X197436318Y-85395238D01*
X197436319Y-85395234D01*
X197436322Y-85395231D01*
X197507973Y-85222251D01*
X197544500Y-85038616D01*
X197544500Y-84351384D01*
X197507973Y-84167749D01*
X197436322Y-83994769D01*
X197436320Y-83994767D01*
X197436318Y-83994761D01*
X197356630Y-83875502D01*
X197332302Y-83839092D01*
X197199908Y-83706698D01*
X197137925Y-83665282D01*
X197044238Y-83602681D01*
X197044229Y-83602677D01*
X196871249Y-83531026D01*
X196687618Y-83494500D01*
X196687616Y-83494500D01*
X196500384Y-83494500D01*
X196500381Y-83494500D01*
X196316749Y-83531027D01*
X196316747Y-83531027D01*
X196265868Y-83552102D01*
X196204871Y-83556902D01*
X196152702Y-83524933D01*
X196129288Y-83468404D01*
X196143572Y-83408910D01*
X196157974Y-83390639D01*
X197245192Y-82303422D01*
X197249970Y-82300988D01*
X197252891Y-82296490D01*
X197276844Y-82287294D01*
X197299708Y-82275646D01*
X197305005Y-82276485D01*
X197310013Y-82274563D01*
X197334794Y-82281202D01*
G37*
%TD.AperFunction*%
%TA.AperFunction,Conductor*%
G36*
X184719114Y-81556773D02*
G01*
X184728959Y-81573417D01*
X184776566Y-81675508D01*
X184776593Y-81675547D01*
X184776610Y-81675602D01*
X184780226Y-81683357D01*
X184779136Y-81683865D01*
X184794484Y-81734058D01*
X184789886Y-81756165D01*
X184790662Y-81756320D01*
X184773500Y-81842596D01*
X184773500Y-82019397D01*
X184773501Y-82019402D01*
X184777039Y-82037186D01*
X184769847Y-82097947D01*
X184728315Y-82142877D01*
X184679941Y-82155500D01*
X184640853Y-82155500D01*
X184582662Y-82136593D01*
X184546698Y-82087093D01*
X184541854Y-82056863D01*
X184541848Y-82055117D01*
X184540236Y-81615618D01*
X184558929Y-81557360D01*
X184608297Y-81521215D01*
X184669482Y-81520991D01*
X184719114Y-81556773D01*
G37*
%TD.AperFunction*%
%TD*%
M02*
