M48
; DRILL file {KiCad 9.0.3} date 2025-08-28T21:01:52-0700
; FORMAT={-:-/ absolute / metric / decimal}
; #@! TF.CreationDate,2025-08-28T21:01:52-07:00
; #@! TF.GenerationSoftware,Kicad,Pcbnew,9.0.3
; #@! TF.FileFunction,Plated,1,4,PTH
FMAT,2
METRIC
; #@! TA.AperFunction,Plated,PTH,ViaDrill
T1C0.300
; #@! TA.AperFunction,Plated,PTH,ComponentDrill
T2C0.600
; #@! TA.AperFunction,Plated,PTH,ComponentDrill
T3C1.000
%
G90
G05
T1
X181.003Y-83.896
X182.153Y-83.796
X182.153Y-85.796
X183.303Y-80.846
X183.728Y-86.046
X183.903Y-87.696
X184.003Y-76.246
X184.394Y-83.279
X184.403Y-84.046
X184.553Y-81.496
X184.553Y-86.546
X185.511Y-86.188
X185.706Y-87.186
X185.803Y-79.596
X186.053Y-76.096
X186.353Y-78.396
X186.847Y-87.247
X186.849Y-80.931
X186.849Y-84.931
X186.953Y-76.546
X187.253Y-78.396
X188.053Y-78.346
X188.849Y-82.931
X188.849Y-82.931
X188.849Y-82.931
X188.849Y-82.931
X188.849Y-82.931
X188.849Y-82.931
X189.333Y-78.074
X189.453Y-76.896
X190.083Y-78.074
X190.849Y-80.931
X190.849Y-84.931
X191.803Y-76.314
X192.703Y-79.746
X193.153Y-85.946
X193.253Y-81.946
X193.453Y-76.314
X195.053Y-82.496
X196.803Y-76.296
X197.099Y-83.181
X197.903Y-82.496
X198.853Y-76.096
X199.303Y-76.771
X199.303Y-77.521
X201.253Y-77.096
X204.253Y-76.096
X205.153Y-76.096
X206.603Y-82.546
X209.61Y-86.833
X213.253Y-76.096
X213.599Y-87.431
X214.103Y-82.546
X216.349Y-89.181
X219.653Y-80.896
X220.349Y-81.681
X221.853Y-77.696
X225.653Y-79.696
X225.653Y-84.596
X225.753Y-85.696
X225.853Y-78.896
T3
X194.434Y-80.405
X194.434Y-84.695
X196.594Y-80.405
X196.594Y-84.695
X198.754Y-80.405
X198.754Y-84.695
X200.914Y-80.405
X200.914Y-84.695
X203.074Y-80.405
X203.074Y-84.695
X205.234Y-80.405
X205.234Y-84.695
X207.394Y-80.405
X207.394Y-84.695
X209.554Y-80.405
X209.554Y-84.695
X211.714Y-80.405
X211.714Y-84.695
X213.874Y-80.405
X213.874Y-84.695
X216.034Y-80.405
X216.034Y-84.695
X218.194Y-80.405
X218.194Y-84.695
T2
X226.786Y-78.277G85X227.886Y-78.277
G05
X226.786Y-86.917G85X227.886Y-86.917
G05
X231.216Y-78.277G85X231.816Y-78.277
G05
X231.216Y-86.917G85X231.816Y-86.917
G05
M30
